<mxfile host="65bd71144e">
    <diagram id="0T9BTSvAgo3iK4GIwWJV" name="Page-1">
        <mxGraphModel dx="4184" dy="1515" grid="1" gridSize="10" guides="1" tooltips="1" connect="1" arrows="1" fold="1" page="1" pageScale="1" pageWidth="827" pageHeight="1169" background="#ffffff" math="0" shadow="0">
            <root>
                <mxCell id="0"/>
                <mxCell id="1" parent="0"/>
                <mxCell id="212" value="" style="rounded=0;whiteSpace=wrap;html=1;fillColor=#f5f5f5;fontColor=#333333;strokeColor=#666666;" vertex="1" parent="1">
                    <mxGeometry x="2456.5" y="1406.25" width="1993.5" height="883.75" as="geometry"/>
                </mxCell>
                <mxCell id="126" value="" style="rounded=0;whiteSpace=wrap;html=1;fillColor=#f5f5f5;fontColor=#333333;strokeColor=#666666;" vertex="1" parent="1">
                    <mxGeometry x="760" y="1774.75" width="983" height="523.25" as="geometry"/>
                </mxCell>
                <mxCell id="72" value="" style="rounded=0;whiteSpace=wrap;html=1;fillColor=#f5f5f5;fontColor=#333333;strokeColor=#666666;" vertex="1" parent="1">
                    <mxGeometry x="2470" y="755.12" width="985" height="566.75" as="geometry"/>
                </mxCell>
                <mxCell id="33" value="" style="rounded=0;whiteSpace=wrap;html=1;fillColor=#f5f5f5;fontColor=#333333;strokeColor=#666666;" vertex="1" parent="1">
                    <mxGeometry x="2470" y="158.75" width="840" height="566.75" as="geometry"/>
                </mxCell>
                <mxCell id="vMF5pIukRqWADJI_kbgt-280" value="" style="rounded=0;whiteSpace=wrap;html=1;fillColor=#f5f5f5;fontColor=#333333;strokeColor=#666666;" parent="1" vertex="1">
                    <mxGeometry x="740" y="766.5" width="1680" height="943.5" as="geometry"/>
                </mxCell>
                <mxCell id="vMF5pIukRqWADJI_kbgt-278" value="" style="rounded=0;whiteSpace=wrap;html=1;fillColor=#f5f5f5;fontColor=#333333;strokeColor=#666666;" parent="1" vertex="1">
                    <mxGeometry x="-80" y="472.5" width="750" height="605" as="geometry"/>
                </mxCell>
                <mxCell id="vMF5pIukRqWADJI_kbgt-276" value="" style="rounded=0;whiteSpace=wrap;html=1;fillColor=#f5f5f5;fontColor=#333333;strokeColor=#666666;" parent="1" vertex="1">
                    <mxGeometry x="-850" y="500" width="750" height="605" as="geometry"/>
                </mxCell>
                <mxCell id="vMF5pIukRqWADJI_kbgt-261" value="" style="rounded=0;whiteSpace=wrap;html=1;fillColor=#f5f5f5;fontColor=#333333;strokeColor=#666666;" parent="1" vertex="1">
                    <mxGeometry x="-80" y="1778" width="780" height="440" as="geometry"/>
                </mxCell>
                <mxCell id="kI2Mg8Bmc6EN0yd2Mqpg-250" value="" style="rounded=0;whiteSpace=wrap;html=1;fillColor=#f5f5f5;fontColor=#333333;strokeColor=#666666;" parent="1" vertex="1">
                    <mxGeometry x="-732" y="1190" width="580" height="420" as="geometry"/>
                </mxCell>
                <mxCell id="vMF5pIukRqWADJI_kbgt-237" style="edgeStyle=orthogonalEdgeStyle;rounded=0;orthogonalLoop=1;jettySize=auto;html=1;exitX=0;exitY=0.5;exitDx=0;exitDy=0;entryX=1;entryY=0.5;entryDx=0;entryDy=0;" parent="1" source="VBRFXhDjpI9AC9tL_B45-124" target="kI2Mg8Bmc6EN0yd2Mqpg-269" edge="1">
                    <mxGeometry relative="1" as="geometry"/>
                </mxCell>
                <mxCell id="vMF5pIukRqWADJI_kbgt-239" value="memberNick&lt;br&gt;memberEmail" style="edgeStyle=orthogonalEdgeStyle;rounded=0;orthogonalLoop=1;jettySize=auto;html=1;exitX=0.5;exitY=1;exitDx=0;exitDy=0;entryX=0.5;entryY=0;entryDx=0;entryDy=0;" parent="1" source="VBRFXhDjpI9AC9tL_B45-124" target="vMF5pIukRqWADJI_kbgt-238" edge="1">
                    <mxGeometry relative="1" as="geometry"/>
                </mxCell>
                <mxCell id="vMF5pIukRqWADJI_kbgt-241" value="memberId&lt;br&gt;memberNick&lt;br&gt;memberEmail" style="edgeStyle=orthogonalEdgeStyle;rounded=0;orthogonalLoop=1;jettySize=auto;html=1;exitX=0.25;exitY=1;exitDx=0;exitDy=0;" parent="1" source="VBRFXhDjpI9AC9tL_B45-124" target="vMF5pIukRqWADJI_kbgt-240" edge="1">
                    <mxGeometry relative="1" as="geometry">
                        <Array as="points">
                            <mxPoint x="-512" y="1351"/>
                            <mxPoint x="-512" y="1385"/>
                            <mxPoint x="-615" y="1385"/>
                        </Array>
                    </mxGeometry>
                </mxCell>
                <mxCell id="VBRFXhDjpI9AC9tL_B45-124" value="회원가입&lt;br&gt;/member/join" style="rounded=0;whiteSpace=wrap;html=1;" parent="1" vertex="1">
                    <mxGeometry x="-516" y="1289.75" width="112" height="61.5" as="geometry"/>
                </mxCell>
                <mxCell id="gZNQRzPZnHdo37b-jTko-80" style="edgeStyle=orthogonalEdgeStyle;rounded=0;orthogonalLoop=1;jettySize=auto;html=1;exitX=1;exitY=0.5;exitDx=0;exitDy=0;entryX=0;entryY=0.5;entryDx=0;entryDy=0;fontSize=25;" parent="1" source="gZNQRzPZnHdo37b-jTko-74" target="gZNQRzPZnHdo37b-jTko-77" edge="1">
                    <mxGeometry relative="1" as="geometry"/>
                </mxCell>
                <mxCell id="gZNQRzPZnHdo37b-jTko-81" style="edgeStyle=orthogonalEdgeStyle;rounded=0;orthogonalLoop=1;jettySize=auto;html=1;exitX=1;exitY=0.5;exitDx=0;exitDy=0;entryX=0;entryY=0.5;entryDx=0;entryDy=0;fontSize=25;" parent="1" source="gZNQRzPZnHdo37b-jTko-74" target="gZNQRzPZnHdo37b-jTko-78" edge="1">
                    <mxGeometry relative="1" as="geometry"/>
                </mxCell>
                <mxCell id="vMF5pIukRqWADJI_kbgt-254" value="placeIdx" style="edgeLabel;html=1;align=center;verticalAlign=middle;resizable=0;points=[];" parent="gZNQRzPZnHdo37b-jTko-81" vertex="1" connectable="0">
                    <mxGeometry x="-0.6719" y="3" relative="1" as="geometry">
                        <mxPoint x="73" as="offset"/>
                    </mxGeometry>
                </mxCell>
                <mxCell id="vMF5pIukRqWADJI_kbgt-255" style="edgeStyle=orthogonalEdgeStyle;rounded=0;orthogonalLoop=1;jettySize=auto;html=1;exitX=1;exitY=0.5;exitDx=0;exitDy=0;entryX=0;entryY=0.5;entryDx=0;entryDy=0;fontSize=24;" parent="1" source="vMF5pIukRqWADJI_kbgt-250" target="gZNQRzPZnHdo37b-jTko-76" edge="1">
                    <mxGeometry relative="1" as="geometry"/>
                </mxCell>
                <mxCell id="gZNQRzPZnHdo37b-jTko-74" value="강의장 상세&amp;nbsp;&lt;br&gt;/place/detail" style="rounded=0;whiteSpace=wrap;html=1;" parent="1" vertex="1">
                    <mxGeometry x="-50.00000000000006" y="2083" width="160" height="80" as="geometry"/>
                </mxCell>
                <mxCell id="gZNQRzPZnHdo37b-jTko-84" style="edgeStyle=orthogonalEdgeStyle;rounded=0;orthogonalLoop=1;jettySize=auto;html=1;exitX=1;exitY=0.5;exitDx=0;exitDy=0;entryX=0;entryY=0.5;entryDx=0;entryDy=0;fontSize=25;" parent="1" source="gZNQRzPZnHdo37b-jTko-76" target="gZNQRzPZnHdo37b-jTko-82" edge="1">
                    <mxGeometry relative="1" as="geometry"/>
                </mxCell>
                <mxCell id="gZNQRzPZnHdo37b-jTko-76" value="강의장 등록&lt;br&gt;/place/register" style="rounded=0;whiteSpace=wrap;html=1;" parent="1" vertex="1">
                    <mxGeometry x="170.99999999999994" y="1908" width="160" height="80" as="geometry"/>
                </mxCell>
                <mxCell id="gZNQRzPZnHdo37b-jTko-85" style="edgeStyle=orthogonalEdgeStyle;rounded=0;orthogonalLoop=1;jettySize=auto;html=1;exitX=1;exitY=0.5;exitDx=0;exitDy=0;fontSize=25;" parent="1" source="gZNQRzPZnHdo37b-jTko-77" edge="1">
                    <mxGeometry relative="1" as="geometry">
                        <mxPoint x="418.30999999999995" y="2045.947368421053" as="targetPoint"/>
                    </mxGeometry>
                </mxCell>
                <mxCell id="gZNQRzPZnHdo37b-jTko-77" value="강의장 수정&lt;br&gt;/place/update" style="rounded=0;whiteSpace=wrap;html=1;" parent="1" vertex="1">
                    <mxGeometry x="168.30999999999995" y="2005.5" width="160" height="80" as="geometry"/>
                </mxCell>
                <mxCell id="vMF5pIukRqWADJI_kbgt-268" style="edgeStyle=orthogonalEdgeStyle;rounded=0;orthogonalLoop=1;jettySize=auto;html=1;exitX=1;exitY=0.5;exitDx=0;exitDy=0;entryX=0.5;entryY=0;entryDx=0;entryDy=0;fontSize=25;fillColor=#dae8fc;strokeColor=#6c8ebf;" parent="1" source="gZNQRzPZnHdo37b-jTko-78" target="vMF5pIukRqWADJI_kbgt-250" edge="1">
                    <mxGeometry relative="1" as="geometry">
                        <Array as="points">
                            <mxPoint x="663" y="2148"/>
                            <mxPoint x="663" y="1804"/>
                            <mxPoint x="30" y="1804"/>
                        </Array>
                    </mxGeometry>
                </mxCell>
                <mxCell id="gZNQRzPZnHdo37b-jTko-78" value="강의장 삭제 처리&lt;br&gt;/place/delete" style="rounded=0;whiteSpace=wrap;html=1;fillColor=#F8CECC;" parent="1" vertex="1">
                    <mxGeometry x="169.80999999999995" y="2108" width="160" height="80" as="geometry"/>
                </mxCell>
                <mxCell id="vMF5pIukRqWADJI_kbgt-264" style="edgeStyle=orthogonalEdgeStyle;rounded=0;orthogonalLoop=1;jettySize=auto;html=1;exitX=1;exitY=0.5;exitDx=0;exitDy=0;entryX=0.5;entryY=0;entryDx=0;entryDy=0;fontSize=25;fillColor=#dae8fc;strokeColor=#6c8ebf;" parent="1" source="gZNQRzPZnHdo37b-jTko-82" target="vMF5pIukRqWADJI_kbgt-250" edge="1">
                    <mxGeometry relative="1" as="geometry">
                        <Array as="points">
                            <mxPoint x="581" y="1960"/>
                            <mxPoint x="661" y="1960"/>
                            <mxPoint x="661" y="1804"/>
                            <mxPoint x="30" y="1804"/>
                        </Array>
                    </mxGeometry>
                </mxCell>
                <mxCell id="gZNQRzPZnHdo37b-jTko-82" value="강의장 등록처리&lt;br&gt;/place/register" style="rounded=0;whiteSpace=wrap;html=1;fillColor=#F8CECC;" parent="1" vertex="1">
                    <mxGeometry x="420.80999999999995" y="1908" width="160" height="80" as="geometry"/>
                </mxCell>
                <mxCell id="vMF5pIukRqWADJI_kbgt-266" style="edgeStyle=orthogonalEdgeStyle;rounded=0;orthogonalLoop=1;jettySize=auto;html=1;exitX=1;exitY=0.5;exitDx=0;exitDy=0;entryX=0.5;entryY=0;entryDx=0;entryDy=0;fontSize=25;fillColor=#dae8fc;strokeColor=#6c8ebf;" parent="1" source="gZNQRzPZnHdo37b-jTko-83" target="vMF5pIukRqWADJI_kbgt-250" edge="1">
                    <mxGeometry relative="1" as="geometry">
                        <Array as="points">
                            <mxPoint x="661" y="2037"/>
                            <mxPoint x="661" y="1804"/>
                            <mxPoint x="30" y="1804"/>
                        </Array>
                    </mxGeometry>
                </mxCell>
                <mxCell id="gZNQRzPZnHdo37b-jTko-83" value="강의장 수정처리&lt;br&gt;/place/update" style="rounded=0;whiteSpace=wrap;html=1;fillColor=#F8CECC;" parent="1" vertex="1">
                    <mxGeometry x="419.30999999999995" y="2005.5" width="160" height="80" as="geometry"/>
                </mxCell>
                <mxCell id="kI2Mg8Bmc6EN0yd2Mqpg-53" value="" style="rounded=0;whiteSpace=wrap;html=1;fillColor=#f5f5f5;fontColor=#333333;strokeColor=#666666;" parent="1" vertex="1">
                    <mxGeometry x="-80" y="1096.5" width="750" height="605" as="geometry"/>
                </mxCell>
                <mxCell id="kI2Mg8Bmc6EN0yd2Mqpg-54" value="" style="group" parent="1" vertex="1" connectable="0">
                    <mxGeometry x="171" y="1268.5" width="290" height="401.5" as="geometry"/>
                </mxCell>
                <mxCell id="kI2Mg8Bmc6EN0yd2Mqpg-55" value="" style="group" parent="kI2Mg8Bmc6EN0yd2Mqpg-54" vertex="1" connectable="0">
                    <mxGeometry x="0.17142857142857137" y="-10.615085536547435" width="290" height="401.5" as="geometry"/>
                </mxCell>
                <mxCell id="kI2Mg8Bmc6EN0yd2Mqpg-101" value="회원&lt;br&gt;이메일 수정&lt;br&gt;페이지&lt;br&gt;&amp;nbsp;/member/updateMail" style="whiteSpace=wrap;html=1;rounded=0;" parent="kI2Mg8Bmc6EN0yd2Mqpg-55" vertex="1">
                    <mxGeometry x="80.82857142857142" y="242.11508553654744" width="120" height="60" as="geometry"/>
                </mxCell>
                <mxCell id="kI2Mg8Bmc6EN0yd2Mqpg-65" style="edgeStyle=orthogonalEdgeStyle;rounded=0;orthogonalLoop=1;jettySize=auto;html=1;startArrow=none;" parent="1" source="kI2Mg8Bmc6EN0yd2Mqpg-78" target="kI2Mg8Bmc6EN0yd2Mqpg-72" edge="1">
                    <mxGeometry relative="1" as="geometry">
                        <Array as="points">
                            <mxPoint x="231" y="1343"/>
                            <mxPoint x="231" y="1343"/>
                        </Array>
                    </mxGeometry>
                </mxCell>
                <mxCell id="kI2Mg8Bmc6EN0yd2Mqpg-95" style="edgeStyle=orthogonalEdgeStyle;rounded=0;orthogonalLoop=1;jettySize=auto;html=1;exitX=0.5;exitY=1;exitDx=0;exitDy=0;entryX=0;entryY=0.5;entryDx=0;entryDy=0;" parent="1" source="kI2Mg8Bmc6EN0yd2Mqpg-68" target="kI2Mg8Bmc6EN0yd2Mqpg-94" edge="1">
                    <mxGeometry relative="1" as="geometry">
                        <Array as="points">
                            <mxPoint x="61" y="1601"/>
                        </Array>
                    </mxGeometry>
                </mxCell>
                <mxCell id="kI2Mg8Bmc6EN0yd2Mqpg-104" value="memberIdx" style="edgeStyle=orthogonalEdgeStyle;rounded=0;orthogonalLoop=1;jettySize=auto;html=1;exitX=0.5;exitY=1;exitDx=0;exitDy=0;entryX=0;entryY=0.5;entryDx=0;entryDy=0;" parent="1" source="kI2Mg8Bmc6EN0yd2Mqpg-68" target="kI2Mg8Bmc6EN0yd2Mqpg-94" edge="1">
                    <mxGeometry relative="1" as="geometry"/>
                </mxCell>
                <mxCell id="kI2Mg8Bmc6EN0yd2Mqpg-105" value="memberIdx" style="edgeStyle=orthogonalEdgeStyle;rounded=0;orthogonalLoop=1;jettySize=auto;html=1;exitX=0.5;exitY=1;exitDx=0;exitDy=0;entryX=0;entryY=0.5;entryDx=0;entryDy=0;" parent="1" source="kI2Mg8Bmc6EN0yd2Mqpg-68" target="kI2Mg8Bmc6EN0yd2Mqpg-70" edge="1">
                    <mxGeometry relative="1" as="geometry">
                        <Array as="points">
                            <mxPoint x="61" y="1459"/>
                        </Array>
                    </mxGeometry>
                </mxCell>
                <mxCell id="vMF5pIukRqWADJI_kbgt-246" style="edgeStyle=orthogonalEdgeStyle;rounded=0;orthogonalLoop=1;jettySize=auto;html=1;exitX=1;exitY=0.5;exitDx=0;exitDy=0;entryX=0;entryY=0.5;entryDx=0;entryDy=0;" parent="1" source="kI2Mg8Bmc6EN0yd2Mqpg-68" target="vMF5pIukRqWADJI_kbgt-245" edge="1">
                    <mxGeometry relative="1" as="geometry"/>
                </mxCell>
                <mxCell id="vMF5pIukRqWADJI_kbgt-270" style="edgeStyle=orthogonalEdgeStyle;rounded=0;orthogonalLoop=1;jettySize=auto;html=1;exitX=0;exitY=0.5;exitDx=0;exitDy=0;entryX=0;entryY=0.5;entryDx=0;entryDy=0;fontSize=25;" parent="1" source="kI2Mg8Bmc6EN0yd2Mqpg-68" target="vMF5pIukRqWADJI_kbgt-250" edge="1">
                    <mxGeometry relative="1" as="geometry">
                        <Array as="points">
                            <mxPoint x="-120" y="1341"/>
                            <mxPoint x="-120" y="1973"/>
                        </Array>
                    </mxGeometry>
                </mxCell>
                <mxCell id="sw_Dny4Hdyo4KNv0hMdQ-1" style="edgeStyle=orthogonalEdgeStyle;rounded=0;orthogonalLoop=1;jettySize=auto;html=1;exitX=0.75;exitY=1;exitDx=0;exitDy=0;entryX=0;entryY=0.5;entryDx=0;entryDy=0;" parent="1" source="kI2Mg8Bmc6EN0yd2Mqpg-68" target="vMF5pIukRqWADJI_kbgt-147" edge="1">
                    <mxGeometry relative="1" as="geometry">
                        <Array as="points">
                            <mxPoint x="91" y="1392"/>
                            <mxPoint x="710" y="1392"/>
                            <mxPoint x="710" y="936"/>
                        </Array>
                    </mxGeometry>
                </mxCell>
                <mxCell id="kI2Mg8Bmc6EN0yd2Mqpg-68" value="&lt;b&gt;회원 상세페이지&lt;br&gt;member/mypage&lt;br&gt;&lt;/b&gt;" style="rounded=0;whiteSpace=wrap;html=1;" parent="1" vertex="1">
                    <mxGeometry x="1" y="1311.5" width="120" height="60" as="geometry"/>
                </mxCell>
                <mxCell id="kI2Mg8Bmc6EN0yd2Mqpg-96" value="memberDto" style="edgeStyle=orthogonalEdgeStyle;rounded=0;orthogonalLoop=1;jettySize=auto;html=1;exitX=1;exitY=0.5;exitDx=0;exitDy=0;entryX=0;entryY=0.5;entryDx=0;entryDy=0;" parent="1" source="kI2Mg8Bmc6EN0yd2Mqpg-70" target="kI2Mg8Bmc6EN0yd2Mqpg-74" edge="1">
                    <mxGeometry relative="1" as="geometry">
                        <Array as="points">
                            <mxPoint x="376" y="1453"/>
                        </Array>
                    </mxGeometry>
                </mxCell>
                <mxCell id="kI2Mg8Bmc6EN0yd2Mqpg-103" style="edgeStyle=orthogonalEdgeStyle;rounded=0;orthogonalLoop=1;jettySize=auto;html=1;exitX=0.5;exitY=1;exitDx=0;exitDy=0;entryX=0.5;entryY=0;entryDx=0;entryDy=0;" parent="1" source="kI2Mg8Bmc6EN0yd2Mqpg-70" target="kI2Mg8Bmc6EN0yd2Mqpg-101" edge="1">
                    <mxGeometry relative="1" as="geometry"/>
                </mxCell>
                <mxCell id="kI2Mg8Bmc6EN0yd2Mqpg-70" value="&lt;b&gt;회원 수정페이지&lt;br&gt;/member/edit&lt;br&gt;&lt;/b&gt;" style="rounded=0;whiteSpace=wrap;html=1;" parent="1" vertex="1">
                    <mxGeometry x="251" y="1428.5" width="125" height="60" as="geometry"/>
                </mxCell>
                <mxCell id="vMF5pIukRqWADJI_kbgt-249" style="edgeStyle=orthogonalEdgeStyle;rounded=0;orthogonalLoop=1;jettySize=auto;html=1;exitX=1;exitY=0.5;exitDx=0;exitDy=0;entryX=1;entryY=0.25;entryDx=0;entryDy=0;fillColor=#dae8fc;strokeColor=#6c8ebf;" parent="1" source="kI2Mg8Bmc6EN0yd2Mqpg-72" target="kI2Mg8Bmc6EN0yd2Mqpg-112" edge="1">
                    <mxGeometry relative="1" as="geometry"/>
                </mxCell>
                <mxCell id="kI2Mg8Bmc6EN0yd2Mqpg-72" value="회원 탈퇴&lt;br&gt;/member/quit" style="rounded=0;whiteSpace=wrap;html=1;fillColor=#f8cecc;strokeColor=#b85450;" parent="1" vertex="1">
                    <mxGeometry x="251" y="1296.5" width="130" height="75" as="geometry"/>
                </mxCell>
                <mxCell id="vMF5pIukRqWADJI_kbgt-231" style="edgeStyle=orthogonalEdgeStyle;rounded=0;orthogonalLoop=1;jettySize=auto;html=1;exitX=1;exitY=0.5;exitDx=0;exitDy=0;entryX=0;entryY=0.5;entryDx=0;entryDy=0;fillColor=#dae8fc;strokeColor=#6c8ebf;" parent="1" source="kI2Mg8Bmc6EN0yd2Mqpg-74" target="kI2Mg8Bmc6EN0yd2Mqpg-68" edge="1">
                    <mxGeometry relative="1" as="geometry">
                        <Array as="points">
                            <mxPoint x="618" y="1453"/>
                            <mxPoint x="618" y="1660"/>
                            <mxPoint x="-19" y="1660"/>
                            <mxPoint x="-19" y="1341"/>
                        </Array>
                    </mxGeometry>
                </mxCell>
                <mxCell id="kI2Mg8Bmc6EN0yd2Mqpg-74" value="&lt;b&gt;회원 수정&lt;br&gt;/member/edit&lt;/b&gt;" style="rounded=0;whiteSpace=wrap;html=1;fillColor=#f8cecc;strokeColor=#b85450;" parent="1" vertex="1">
                    <mxGeometry x="470" y="1427" width="127.5" height="51.5" as="geometry"/>
                </mxCell>
                <mxCell id="kI2Mg8Bmc6EN0yd2Mqpg-75" style="edgeStyle=orthogonalEdgeStyle;rounded=0;orthogonalLoop=1;jettySize=auto;html=1;startArrow=none;" parent="1" source="kI2Mg8Bmc6EN0yd2Mqpg-76" target="kI2Mg8Bmc6EN0yd2Mqpg-68" edge="1">
                    <mxGeometry relative="1" as="geometry"/>
                </mxCell>
                <mxCell id="kI2Mg8Bmc6EN0yd2Mqpg-76" value="memberDto" style="text;html=1;strokeColor=none;fillColor=none;align=center;verticalAlign=middle;whiteSpace=wrap;rounded=0;" parent="1" vertex="1">
                    <mxGeometry x="36" y="1256" width="50" height="40" as="geometry"/>
                </mxCell>
                <mxCell id="kI2Mg8Bmc6EN0yd2Mqpg-77" value="" style="edgeStyle=orthogonalEdgeStyle;rounded=0;orthogonalLoop=1;jettySize=auto;html=1;endArrow=none;" parent="1" target="kI2Mg8Bmc6EN0yd2Mqpg-76" edge="1">
                    <mxGeometry relative="1" as="geometry">
                        <mxPoint x="61" y="1241" as="sourcePoint"/>
                        <mxPoint x="61" y="1301.5" as="targetPoint"/>
                    </mxGeometry>
                </mxCell>
                <mxCell id="kI2Mg8Bmc6EN0yd2Mqpg-78" value="memberDto" style="text;html=1;strokeColor=none;fillColor=none;align=center;verticalAlign=middle;whiteSpace=wrap;rounded=0;" parent="1" vertex="1">
                    <mxGeometry x="151" y="1327.5" width="60" height="30" as="geometry"/>
                </mxCell>
                <mxCell id="kI2Mg8Bmc6EN0yd2Mqpg-79" value="" style="edgeStyle=orthogonalEdgeStyle;rounded=0;orthogonalLoop=1;jettySize=auto;html=1;endArrow=none;" parent="1" source="kI2Mg8Bmc6EN0yd2Mqpg-68" target="kI2Mg8Bmc6EN0yd2Mqpg-78" edge="1">
                    <mxGeometry relative="1" as="geometry">
                        <mxPoint x="121" y="1342.5" as="sourcePoint"/>
                        <mxPoint x="371" y="1361" as="targetPoint"/>
                    </mxGeometry>
                </mxCell>
                <mxCell id="kI2Mg8Bmc6EN0yd2Mqpg-88" value="&lt;font color=&quot;#000000&quot;&gt;&lt;span style=&quot;font-size: 21px&quot;&gt;&lt;b&gt;회원&lt;/b&gt;&lt;/span&gt;&lt;/font&gt;" style="text;html=1;strokeColor=none;fillColor=none;align=center;verticalAlign=middle;whiteSpace=wrap;rounded=0;fontColor=#FF6666;fontFamily=Nanum Myeongjo;fontSource=https%3A%2F%2Ffonts.googleapis.com%2Fcss%3Ffamily%3DNanum%2BMyeongjo;" parent="1" vertex="1">
                    <mxGeometry x="-70.81421267135971" y="1105.0015789473687" width="150.81141163393852" height="49.73684210526316" as="geometry"/>
                </mxCell>
                <mxCell id="kI2Mg8Bmc6EN0yd2Mqpg-91" style="edgeStyle=orthogonalEdgeStyle;rounded=0;orthogonalLoop=1;jettySize=auto;html=1;exitX=0.5;exitY=1;exitDx=0;exitDy=0;entryX=0.6;entryY=1.008;entryDx=0;entryDy=0;entryPerimeter=0;" parent="1" source="kI2Mg8Bmc6EN0yd2Mqpg-68" target="kI2Mg8Bmc6EN0yd2Mqpg-68" edge="1">
                    <mxGeometry relative="1" as="geometry"/>
                </mxCell>
                <mxCell id="vMF5pIukRqWADJI_kbgt-233" style="edgeStyle=orthogonalEdgeStyle;rounded=0;orthogonalLoop=1;jettySize=auto;html=1;exitX=1;exitY=0.5;exitDx=0;exitDy=0;entryX=0;entryY=0.5;entryDx=0;entryDy=0;fillColor=#dae8fc;strokeColor=#6c8ebf;" parent="1" source="kI2Mg8Bmc6EN0yd2Mqpg-97" target="kI2Mg8Bmc6EN0yd2Mqpg-68" edge="1">
                    <mxGeometry relative="1" as="geometry">
                        <Array as="points">
                            <mxPoint x="618" y="1600"/>
                            <mxPoint x="618" y="1660"/>
                            <mxPoint x="-19" y="1660"/>
                            <mxPoint x="-19" y="1341"/>
                        </Array>
                    </mxGeometry>
                </mxCell>
                <mxCell id="kI2Mg8Bmc6EN0yd2Mqpg-97" value="&lt;b&gt;회원&lt;br&gt;비밀번호 수정&lt;br&gt;/member/password&lt;/b&gt;" style="rounded=0;whiteSpace=wrap;html=1;fillColor=#f8cecc;strokeColor=#b85450;" parent="1" vertex="1">
                    <mxGeometry x="470" y="1569.5" width="127.5" height="61.5" as="geometry"/>
                </mxCell>
                <mxCell id="kI2Mg8Bmc6EN0yd2Mqpg-110" value="memberDto" style="edgeStyle=orthogonalEdgeStyle;rounded=0;orthogonalLoop=1;jettySize=auto;html=1;exitX=1;exitY=0.5;exitDx=0;exitDy=0;" parent="1" source="kI2Mg8Bmc6EN0yd2Mqpg-94" target="kI2Mg8Bmc6EN0yd2Mqpg-97" edge="1">
                    <mxGeometry relative="1" as="geometry"/>
                </mxCell>
                <mxCell id="kI2Mg8Bmc6EN0yd2Mqpg-94" value="&lt;b&gt;회원 &lt;br&gt;비밀번호 수정 &lt;br&gt;페이지&lt;br&gt;/member/password&lt;br&gt;&lt;/b&gt;" style="rounded=0;whiteSpace=wrap;html=1;" parent="1" vertex="1">
                    <mxGeometry x="251" y="1571" width="125" height="60" as="geometry"/>
                </mxCell>
                <mxCell id="vMF5pIukRqWADJI_kbgt-232" style="edgeStyle=orthogonalEdgeStyle;rounded=0;orthogonalLoop=1;jettySize=auto;html=1;exitX=1;exitY=0.5;exitDx=0;exitDy=0;entryX=0;entryY=0.5;entryDx=0;entryDy=0;fillColor=#dae8fc;strokeColor=#6c8ebf;" parent="1" source="kI2Mg8Bmc6EN0yd2Mqpg-108" target="kI2Mg8Bmc6EN0yd2Mqpg-68" edge="1">
                    <mxGeometry relative="1" as="geometry">
                        <Array as="points">
                            <mxPoint x="618" y="1526"/>
                            <mxPoint x="618" y="1660"/>
                            <mxPoint x="-19" y="1660"/>
                            <mxPoint x="-19" y="1341"/>
                        </Array>
                    </mxGeometry>
                </mxCell>
                <mxCell id="kI2Mg8Bmc6EN0yd2Mqpg-108" value="이메일 수정&lt;br&gt;/member/updateMail" style="rounded=0;whiteSpace=wrap;html=1;fillColor=#f8cecc;strokeColor=#b85450;" parent="1" vertex="1">
                    <mxGeometry x="470" y="1500" width="127.5" height="51.5" as="geometry"/>
                </mxCell>
                <mxCell id="kI2Mg8Bmc6EN0yd2Mqpg-109" value="memberDto" style="edgeStyle=orthogonalEdgeStyle;rounded=0;orthogonalLoop=1;jettySize=auto;html=1;exitX=1;exitY=0.5;exitDx=0;exitDy=0;" parent="1" source="kI2Mg8Bmc6EN0yd2Mqpg-101" edge="1">
                    <mxGeometry relative="1" as="geometry">
                        <mxPoint x="470" y="1529.8333333333335" as="targetPoint"/>
                    </mxGeometry>
                </mxCell>
                <mxCell id="kI2Mg8Bmc6EN0yd2Mqpg-112" value="&lt;b&gt;main&lt;br&gt;&lt;/b&gt;" style="rounded=0;whiteSpace=wrap;html=1;" parent="1" vertex="1">
                    <mxGeometry x="1" y="1180" width="120" height="60" as="geometry"/>
                </mxCell>
                <mxCell id="kI2Mg8Bmc6EN0yd2Mqpg-269" value="회원가입&lt;br&gt;/member/join" style="rounded=0;whiteSpace=wrap;html=1;fillColor=#f8cecc;strokeColor=#b85450;" parent="1" vertex="1">
                    <mxGeometry x="-673" y="1291" width="122" height="60.25" as="geometry"/>
                </mxCell>
                <mxCell id="kI2Mg8Bmc6EN0yd2Mqpg-285" value="&lt;font color=&quot;#000000&quot;&gt;&lt;span style=&quot;font-size: 21px&quot;&gt;&lt;b&gt;비회원&lt;/b&gt;&lt;/span&gt;&lt;/font&gt;" style="text;html=1;strokeColor=none;fillColor=none;align=center;verticalAlign=middle;whiteSpace=wrap;rounded=0;fontColor=#FF6666;fontFamily=Nanum Myeongjo;fontSource=https%3A%2F%2Ffonts.googleapis.com%2Fcss%3Ffamily%3DNanum%2BMyeongjo;" parent="1" vertex="1">
                    <mxGeometry x="-308.0042126713597" y="1209.5015789473687" width="150.81141163393852" height="49.73684210526316" as="geometry"/>
                </mxCell>
                <mxCell id="kI2Mg8Bmc6EN0yd2Mqpg-292" value="로그인&lt;br&gt;/member/login" style="rounded=0;whiteSpace=wrap;html=1;fillColor=#f8cecc;strokeColor=#b85450;" parent="1" vertex="1">
                    <mxGeometry x="-354" y="1411.5" width="120" height="68.5" as="geometry"/>
                </mxCell>
                <mxCell id="vMF5pIukRqWADJI_kbgt-78" style="edgeStyle=orthogonalEdgeStyle;rounded=0;orthogonalLoop=1;jettySize=auto;html=1;exitX=1;exitY=0.5;exitDx=0;exitDy=0;entryX=0;entryY=0.5;entryDx=0;entryDy=0;" parent="1" source="vMF5pIukRqWADJI_kbgt-79" target="vMF5pIukRqWADJI_kbgt-92" edge="1">
                    <mxGeometry relative="1" as="geometry">
                        <Array as="points">
                            <mxPoint x="-375" y="580"/>
                            <mxPoint x="-375" y="580"/>
                        </Array>
                    </mxGeometry>
                </mxCell>
                <mxCell id="vMF5pIukRqWADJI_kbgt-79" value="목록페이지&lt;br&gt;/notice/list" style="rounded=0;whiteSpace=wrap;html=1;" parent="1" vertex="1">
                    <mxGeometry x="-535" y="550" width="120" height="60" as="geometry"/>
                </mxCell>
                <mxCell id="vMF5pIukRqWADJI_kbgt-80" style="edgeStyle=orthogonalEdgeStyle;rounded=0;orthogonalLoop=1;jettySize=auto;html=1;exitX=0.5;exitY=1;exitDx=0;exitDy=0;entryX=0.5;entryY=0;entryDx=0;entryDy=0;" parent="1" source="vMF5pIukRqWADJI_kbgt-79" target="vMF5pIukRqWADJI_kbgt-89" edge="1">
                    <mxGeometry relative="1" as="geometry">
                        <mxPoint x="-475" y="640" as="sourcePoint"/>
                        <mxPoint x="-475" y="715" as="targetPoint"/>
                    </mxGeometry>
                </mxCell>
                <mxCell id="vMF5pIukRqWADJI_kbgt-81" value="noticeIdx&lt;br&gt;조회수증가" style="edgeLabel;html=1;align=center;verticalAlign=middle;resizable=0;points=[];" parent="vMF5pIukRqWADJI_kbgt-80" vertex="1" connectable="0">
                    <mxGeometry x="-0.2395" y="1" relative="1" as="geometry">
                        <mxPoint as="offset"/>
                    </mxGeometry>
                </mxCell>
                <mxCell id="vMF5pIukRqWADJI_kbgt-82" style="edgeStyle=orthogonalEdgeStyle;rounded=0;orthogonalLoop=1;jettySize=auto;html=1;exitX=0.5;exitY=1;exitDx=0;exitDy=0;entryX=0.5;entryY=0;entryDx=0;entryDy=0;" parent="1" source="vMF5pIukRqWADJI_kbgt-89" target="vMF5pIukRqWADJI_kbgt-100" edge="1">
                    <mxGeometry relative="1" as="geometry">
                        <mxPoint x="-235" y="920" as="targetPoint"/>
                        <Array as="points">
                            <mxPoint x="-465" y="805"/>
                        </Array>
                    </mxGeometry>
                </mxCell>
                <mxCell id="vMF5pIukRqWADJI_kbgt-83" value="noticeIdx" style="edgeLabel;html=1;align=center;verticalAlign=middle;resizable=0;points=[];" parent="vMF5pIukRqWADJI_kbgt-82" vertex="1" connectable="0">
                    <mxGeometry x="0.3026" relative="1" as="geometry">
                        <mxPoint as="offset"/>
                    </mxGeometry>
                </mxCell>
                <mxCell id="vMF5pIukRqWADJI_kbgt-84" style="edgeStyle=orthogonalEdgeStyle;rounded=0;orthogonalLoop=1;jettySize=auto;html=1;exitX=0;exitY=0.5;exitDx=0;exitDy=0;entryX=1;entryY=0.5;entryDx=0;entryDy=0;" parent="1" source="vMF5pIukRqWADJI_kbgt-89" target="vMF5pIukRqWADJI_kbgt-99" edge="1">
                    <mxGeometry relative="1" as="geometry"/>
                </mxCell>
                <mxCell id="vMF5pIukRqWADJI_kbgt-85" style="edgeStyle=orthogonalEdgeStyle;rounded=0;orthogonalLoop=1;jettySize=auto;html=1;exitX=0;exitY=0.5;exitDx=0;exitDy=0;entryX=1;entryY=0.5;entryDx=0;entryDy=0;" parent="1" source="vMF5pIukRqWADJI_kbgt-89" target="vMF5pIukRqWADJI_kbgt-96" edge="1">
                    <mxGeometry relative="1" as="geometry"/>
                </mxCell>
                <mxCell id="vMF5pIukRqWADJI_kbgt-86" style="edgeStyle=orthogonalEdgeStyle;rounded=0;orthogonalLoop=1;jettySize=auto;html=1;exitX=0;exitY=0.5;exitDx=0;exitDy=0;entryX=0.992;entryY=0.64;entryDx=0;entryDy=0;entryPerimeter=0;" parent="1" source="vMF5pIukRqWADJI_kbgt-89" target="vMF5pIukRqWADJI_kbgt-98" edge="1">
                    <mxGeometry relative="1" as="geometry"/>
                </mxCell>
                <mxCell id="vMF5pIukRqWADJI_kbgt-87" style="edgeStyle=orthogonalEdgeStyle;rounded=0;orthogonalLoop=1;jettySize=auto;html=1;exitX=1;exitY=0.5;exitDx=0;exitDy=0;entryX=0;entryY=0.75;entryDx=0;entryDy=0;" parent="1" source="vMF5pIukRqWADJI_kbgt-89" target="vMF5pIukRqWADJI_kbgt-108" edge="1">
                    <mxGeometry relative="1" as="geometry">
                        <Array as="points">
                            <mxPoint x="-365" y="775"/>
                            <mxPoint x="-365" y="856"/>
                        </Array>
                    </mxGeometry>
                </mxCell>
                <mxCell id="vMF5pIukRqWADJI_kbgt-88" value="noticeIdx" style="edgeLabel;html=1;align=center;verticalAlign=middle;resizable=0;points=[];" parent="vMF5pIukRqWADJI_kbgt-87" vertex="1" connectable="0">
                    <mxGeometry x="0.1988" relative="1" as="geometry">
                        <mxPoint as="offset"/>
                    </mxGeometry>
                </mxCell>
                <mxCell id="vMF5pIukRqWADJI_kbgt-89" value="상세페이지&lt;br&gt;/notice/detail" style="rounded=0;whiteSpace=wrap;html=1;" parent="1" vertex="1">
                    <mxGeometry x="-535" y="745" width="120" height="60" as="geometry"/>
                </mxCell>
                <mxCell id="vMF5pIukRqWADJI_kbgt-90" style="edgeStyle=orthogonalEdgeStyle;rounded=0;orthogonalLoop=1;jettySize=auto;html=1;exitX=0.5;exitY=1;exitDx=0;exitDy=0;entryX=0.5;entryY=0;entryDx=0;entryDy=0;" parent="1" source="vMF5pIukRqWADJI_kbgt-92" target="vMF5pIukRqWADJI_kbgt-106" edge="1">
                    <mxGeometry relative="1" as="geometry">
                        <Array as="points">
                            <mxPoint x="-215" y="640"/>
                            <mxPoint x="-215" y="640"/>
                        </Array>
                    </mxGeometry>
                </mxCell>
                <mxCell id="vMF5pIukRqWADJI_kbgt-91" value="&lt;span style=&quot;font-size: 12px ; background-color: rgb(248 , 249 , 250)&quot;&gt;noticeIdx&lt;/span&gt;&lt;br style=&quot;font-size: 12px ; background-color: rgb(248 , 249 , 250)&quot;&gt;&lt;span style=&quot;font-size: 12px ; background-color: rgb(248 , 249 , 250)&quot;&gt;noticeName&lt;/span&gt;&lt;br style=&quot;font-size: 12px ; background-color: rgb(248 , 249 , 250)&quot;&gt;&lt;span style=&quot;font-size: 12px ; background-color: rgb(248 , 249 , 250)&quot;&gt;noticeDetail&lt;/span&gt;" style="edgeLabel;html=1;align=center;verticalAlign=middle;resizable=0;points=[];" parent="vMF5pIukRqWADJI_kbgt-90" vertex="1" connectable="0">
                    <mxGeometry x="-0.2766" y="2" relative="1" as="geometry">
                        <mxPoint as="offset"/>
                    </mxGeometry>
                </mxCell>
                <mxCell id="vMF5pIukRqWADJI_kbgt-92" value="글작성&lt;br&gt;/notice/write[GET]" style="rounded=0;whiteSpace=wrap;html=1;" parent="1" vertex="1">
                    <mxGeometry x="-275" y="550" width="120" height="60" as="geometry"/>
                </mxCell>
                <mxCell id="vMF5pIukRqWADJI_kbgt-93" style="edgeStyle=orthogonalEdgeStyle;rounded=0;orthogonalLoop=1;jettySize=auto;html=1;exitX=0;exitY=0.643;exitDx=0;exitDy=0;entryX=1;entryY=0.75;entryDx=0;entryDy=0;fillColor=#dae8fc;strokeColor=#6c8ebf;exitPerimeter=0;" parent="1" source="vMF5pIukRqWADJI_kbgt-103" target="vMF5pIukRqWADJI_kbgt-89" edge="1">
                    <mxGeometry relative="1" as="geometry">
                        <mxPoint x="-265" y="920" as="sourcePoint"/>
                    </mxGeometry>
                </mxCell>
                <mxCell id="vMF5pIukRqWADJI_kbgt-94" value="noticeIdx" style="edgeLabel;html=1;align=center;verticalAlign=middle;resizable=0;points=[];" parent="vMF5pIukRqWADJI_kbgt-93" vertex="1" connectable="0">
                    <mxGeometry x="-0.4214" y="2" relative="1" as="geometry">
                        <mxPoint as="offset"/>
                    </mxGeometry>
                </mxCell>
                <mxCell id="vMF5pIukRqWADJI_kbgt-95" style="edgeStyle=orthogonalEdgeStyle;rounded=0;orthogonalLoop=1;jettySize=auto;html=1;exitX=1;exitY=0.25;exitDx=0;exitDy=0;entryX=0;entryY=0.25;entryDx=0;entryDy=0;fillColor=#dae8fc;strokeColor=#6c8ebf;" parent="1" source="vMF5pIukRqWADJI_kbgt-96" target="vMF5pIukRqWADJI_kbgt-89" edge="1">
                    <mxGeometry relative="1" as="geometry">
                        <Array as="points">
                            <mxPoint x="-665" y="730"/>
                            <mxPoint x="-545" y="730"/>
                            <mxPoint x="-545" y="760"/>
                        </Array>
                    </mxGeometry>
                </mxCell>
                <mxCell id="vMF5pIukRqWADJI_kbgt-96" value="&lt;span&gt;댓글 작성&lt;/span&gt;&lt;br&gt;&lt;span&gt;/noticeReply/&lt;/span&gt;&lt;br&gt;&lt;span&gt;edit[POST]&lt;/span&gt;" style="rounded=0;whiteSpace=wrap;html=1;fillColor=#f8cecc;strokeColor=#b85450;" parent="1" vertex="1">
                    <mxGeometry x="-785" y="725.5" width="120" height="50" as="geometry"/>
                </mxCell>
                <mxCell id="vMF5pIukRqWADJI_kbgt-97" style="edgeStyle=orthogonalEdgeStyle;rounded=0;orthogonalLoop=1;jettySize=auto;html=1;exitX=1;exitY=0.25;exitDx=0;exitDy=0;entryX=0;entryY=0.65;entryDx=0;entryDy=0;entryPerimeter=0;fillColor=#dae8fc;strokeColor=#6c8ebf;" parent="1" source="vMF5pIukRqWADJI_kbgt-98" target="vMF5pIukRqWADJI_kbgt-89" edge="1">
                    <mxGeometry relative="1" as="geometry"/>
                </mxCell>
                <mxCell id="vMF5pIukRqWADJI_kbgt-98" value="&lt;span&gt;댓글 삭제&lt;/span&gt;&lt;br&gt;&lt;span&gt;/noticeReply/&lt;/span&gt;&lt;br&gt;&lt;span&gt;delete[DELETE]&lt;/span&gt;" style="rounded=0;whiteSpace=wrap;html=1;fillColor=#f8cecc;strokeColor=#b85450;" parent="1" vertex="1">
                    <mxGeometry x="-785" y="830" width="120" height="50" as="geometry"/>
                </mxCell>
                <mxCell id="vMF5pIukRqWADJI_kbgt-99" value="댓글 수정&lt;br&gt;/noticeReply/&lt;br&gt;Insert[POST]" style="rounded=0;whiteSpace=wrap;html=1;fillColor=#f8cecc;strokeColor=#b85450;" parent="1" vertex="1">
                    <mxGeometry x="-785" y="610" width="120" height="50" as="geometry"/>
                </mxCell>
                <mxCell id="vMF5pIukRqWADJI_kbgt-100" value="글 수정&lt;br&gt;/notice/edit[GET]" style="rounded=0;whiteSpace=wrap;html=1;fillColor=#f5f5f5;fontColor=#333333;strokeColor=#666666;" parent="1" vertex="1">
                    <mxGeometry x="-525" y="920" width="120" height="60" as="geometry"/>
                </mxCell>
                <mxCell id="vMF5pIukRqWADJI_kbgt-101" style="edgeStyle=orthogonalEdgeStyle;rounded=0;orthogonalLoop=1;jettySize=auto;html=1;exitX=0.5;exitY=1;exitDx=0;exitDy=0;entryX=0.5;entryY=1;entryDx=0;entryDy=0;" parent="1" source="vMF5pIukRqWADJI_kbgt-100" target="vMF5pIukRqWADJI_kbgt-103" edge="1">
                    <mxGeometry relative="1" as="geometry">
                        <mxPoint x="-235" y="1000" as="sourcePoint"/>
                        <mxPoint x="-195" y="1000" as="targetPoint"/>
                        <Array as="points">
                            <mxPoint x="-465" y="1060"/>
                            <mxPoint x="-195" y="1060"/>
                        </Array>
                    </mxGeometry>
                </mxCell>
                <mxCell id="vMF5pIukRqWADJI_kbgt-102" value="noticeIdx&lt;br&gt;noticeName&lt;br&gt;noticeDetail" style="edgeLabel;html=1;align=center;verticalAlign=middle;resizable=0;points=[];" parent="vMF5pIukRqWADJI_kbgt-101" vertex="1" connectable="0">
                    <mxGeometry x="-0.2978" y="1" relative="1" as="geometry">
                        <mxPoint as="offset"/>
                    </mxGeometry>
                </mxCell>
                <mxCell id="vMF5pIukRqWADJI_kbgt-103" value="글 수정&lt;br&gt;/notice/edit[POST]" style="rounded=0;whiteSpace=wrap;html=1;fillColor=#f8cecc;strokeColor=#b85450;" parent="1" vertex="1">
                    <mxGeometry x="-255" y="940" width="120" height="50" as="geometry"/>
                </mxCell>
                <mxCell id="vMF5pIukRqWADJI_kbgt-104" style="edgeStyle=orthogonalEdgeStyle;rounded=0;orthogonalLoop=1;jettySize=auto;html=1;exitX=0;exitY=0.5;exitDx=0;exitDy=0;entryX=1.007;entryY=0.342;entryDx=0;entryDy=0;entryPerimeter=0;fillColor=#dae8fc;strokeColor=#6c8ebf;" parent="1" source="vMF5pIukRqWADJI_kbgt-106" target="vMF5pIukRqWADJI_kbgt-89" edge="1">
                    <mxGeometry relative="1" as="geometry"/>
                </mxCell>
                <mxCell id="vMF5pIukRqWADJI_kbgt-105" value="noticeIdx" style="edgeLabel;html=1;align=center;verticalAlign=middle;resizable=0;points=[];" parent="vMF5pIukRqWADJI_kbgt-104" vertex="1" connectable="0">
                    <mxGeometry x="0.0988" y="-2" relative="1" as="geometry">
                        <mxPoint as="offset"/>
                    </mxGeometry>
                </mxCell>
                <mxCell id="vMF5pIukRqWADJI_kbgt-106" value="글작성&lt;br&gt;/notice/write[POST]" style="rounded=0;whiteSpace=wrap;html=1;fillColor=#f8cecc;strokeColor=#b85450;" parent="1" vertex="1">
                    <mxGeometry x="-275" y="680.5" width="120" height="60" as="geometry"/>
                </mxCell>
                <mxCell id="vMF5pIukRqWADJI_kbgt-107" style="edgeStyle=orthogonalEdgeStyle;rounded=0;orthogonalLoop=1;jettySize=auto;html=1;exitX=0;exitY=0.25;exitDx=0;exitDy=0;entryX=1;entryY=0.75;entryDx=0;entryDy=0;fillColor=#dae8fc;strokeColor=#6c8ebf;" parent="1" source="vMF5pIukRqWADJI_kbgt-108" target="vMF5pIukRqWADJI_kbgt-79" edge="1">
                    <mxGeometry relative="1" as="geometry">
                        <Array as="points">
                            <mxPoint x="-305" y="826"/>
                            <mxPoint x="-305" y="595"/>
                        </Array>
                    </mxGeometry>
                </mxCell>
                <mxCell id="vMF5pIukRqWADJI_kbgt-108" value="글삭제&lt;br&gt;/notice/delete[GET]" style="rounded=0;whiteSpace=wrap;html=1;fillColor=#f5f5f5;fontColor=#333333;strokeColor=#666666;" parent="1" vertex="1">
                    <mxGeometry x="-275" y="810.5" width="120" height="60" as="geometry"/>
                </mxCell>
                <mxCell id="vMF5pIukRqWADJI_kbgt-109" style="edgeStyle=orthogonalEdgeStyle;rounded=0;orthogonalLoop=1;jettySize=auto;html=1;exitX=1;exitY=0.5;exitDx=0;exitDy=0;entryX=0;entryY=0.5;entryDx=0;entryDy=0;" parent="1" source="vMF5pIukRqWADJI_kbgt-110" target="vMF5pIukRqWADJI_kbgt-123" edge="1">
                    <mxGeometry relative="1" as="geometry">
                        <Array as="points">
                            <mxPoint x="420" y="570"/>
                            <mxPoint x="420" y="570"/>
                        </Array>
                    </mxGeometry>
                </mxCell>
                <mxCell id="vMF5pIukRqWADJI_kbgt-110" value="목록페이지&lt;br&gt;/petitions/list" style="rounded=0;whiteSpace=wrap;html=1;" parent="1" vertex="1">
                    <mxGeometry x="260" y="540" width="120" height="60" as="geometry"/>
                </mxCell>
                <mxCell id="vMF5pIukRqWADJI_kbgt-111" style="edgeStyle=orthogonalEdgeStyle;rounded=0;orthogonalLoop=1;jettySize=auto;html=1;exitX=0.5;exitY=1;exitDx=0;exitDy=0;entryX=0.5;entryY=0;entryDx=0;entryDy=0;" parent="1" source="vMF5pIukRqWADJI_kbgt-110" target="vMF5pIukRqWADJI_kbgt-120" edge="1">
                    <mxGeometry relative="1" as="geometry">
                        <mxPoint x="320" y="630" as="sourcePoint"/>
                        <mxPoint x="320" y="705" as="targetPoint"/>
                    </mxGeometry>
                </mxCell>
                <mxCell id="vMF5pIukRqWADJI_kbgt-112" value="&lt;span style=&quot;color: rgb(51 , 51 , 51) ; font-size: 12px ; background-color: rgb(248 , 249 , 250)&quot;&gt;petitions&lt;/span&gt;Idx&lt;br&gt;조회수증가" style="edgeLabel;html=1;align=center;verticalAlign=middle;resizable=0;points=[];" parent="vMF5pIukRqWADJI_kbgt-111" vertex="1" connectable="0">
                    <mxGeometry x="-0.2395" y="1" relative="1" as="geometry">
                        <mxPoint as="offset"/>
                    </mxGeometry>
                </mxCell>
                <mxCell id="vMF5pIukRqWADJI_kbgt-113" style="edgeStyle=orthogonalEdgeStyle;rounded=0;orthogonalLoop=1;jettySize=auto;html=1;exitX=0.5;exitY=1;exitDx=0;exitDy=0;entryX=0.5;entryY=0;entryDx=0;entryDy=0;" parent="1" source="vMF5pIukRqWADJI_kbgt-120" target="vMF5pIukRqWADJI_kbgt-131" edge="1">
                    <mxGeometry relative="1" as="geometry">
                        <mxPoint x="560" y="910" as="targetPoint"/>
                        <Array as="points">
                            <mxPoint x="330" y="795"/>
                        </Array>
                    </mxGeometry>
                </mxCell>
                <mxCell id="vMF5pIukRqWADJI_kbgt-114" value="&lt;span style=&quot;color: rgb(51 , 51 , 51) ; font-size: 12px ; background-color: rgb(248 , 249 , 250)&quot;&gt;petitions&lt;/span&gt;Idx" style="edgeLabel;html=1;align=center;verticalAlign=middle;resizable=0;points=[];" parent="vMF5pIukRqWADJI_kbgt-113" vertex="1" connectable="0">
                    <mxGeometry x="0.3026" relative="1" as="geometry">
                        <mxPoint as="offset"/>
                    </mxGeometry>
                </mxCell>
                <mxCell id="vMF5pIukRqWADJI_kbgt-115" style="edgeStyle=orthogonalEdgeStyle;rounded=0;orthogonalLoop=1;jettySize=auto;html=1;exitX=0;exitY=0.5;exitDx=0;exitDy=0;entryX=1;entryY=0.5;entryDx=0;entryDy=0;" parent="1" source="vMF5pIukRqWADJI_kbgt-120" target="vMF5pIukRqWADJI_kbgt-130" edge="1">
                    <mxGeometry relative="1" as="geometry"/>
                </mxCell>
                <mxCell id="vMF5pIukRqWADJI_kbgt-116" style="edgeStyle=orthogonalEdgeStyle;rounded=0;orthogonalLoop=1;jettySize=auto;html=1;exitX=0;exitY=0.5;exitDx=0;exitDy=0;entryX=1;entryY=0.5;entryDx=0;entryDy=0;" parent="1" source="vMF5pIukRqWADJI_kbgt-120" target="vMF5pIukRqWADJI_kbgt-127" edge="1">
                    <mxGeometry relative="1" as="geometry"/>
                </mxCell>
                <mxCell id="vMF5pIukRqWADJI_kbgt-117" style="edgeStyle=orthogonalEdgeStyle;rounded=0;orthogonalLoop=1;jettySize=auto;html=1;exitX=0;exitY=0.5;exitDx=0;exitDy=0;entryX=0.992;entryY=0.64;entryDx=0;entryDy=0;entryPerimeter=0;" parent="1" source="vMF5pIukRqWADJI_kbgt-120" target="vMF5pIukRqWADJI_kbgt-129" edge="1">
                    <mxGeometry relative="1" as="geometry"/>
                </mxCell>
                <mxCell id="vMF5pIukRqWADJI_kbgt-118" style="edgeStyle=orthogonalEdgeStyle;rounded=0;orthogonalLoop=1;jettySize=auto;html=1;exitX=1;exitY=0.5;exitDx=0;exitDy=0;entryX=0;entryY=0.75;entryDx=0;entryDy=0;" parent="1" source="vMF5pIukRqWADJI_kbgt-120" target="vMF5pIukRqWADJI_kbgt-139" edge="1">
                    <mxGeometry relative="1" as="geometry">
                        <Array as="points">
                            <mxPoint x="430" y="765"/>
                            <mxPoint x="430" y="846"/>
                        </Array>
                    </mxGeometry>
                </mxCell>
                <mxCell id="vMF5pIukRqWADJI_kbgt-119" value="&lt;span style=&quot;color: rgb(51 , 51 , 51) ; font-size: 12px ; background-color: rgb(248 , 249 , 250)&quot;&gt;petitions&lt;/span&gt;Idx" style="edgeLabel;html=1;align=center;verticalAlign=middle;resizable=0;points=[];" parent="vMF5pIukRqWADJI_kbgt-118" vertex="1" connectable="0">
                    <mxGeometry x="0.1988" relative="1" as="geometry">
                        <mxPoint y="5" as="offset"/>
                    </mxGeometry>
                </mxCell>
                <mxCell id="vMF5pIukRqWADJI_kbgt-120" value="상세페이지&lt;br&gt;/petitions/detail" style="rounded=0;whiteSpace=wrap;html=1;" parent="1" vertex="1">
                    <mxGeometry x="260" y="735" width="120" height="60" as="geometry"/>
                </mxCell>
                <mxCell id="vMF5pIukRqWADJI_kbgt-121" style="edgeStyle=orthogonalEdgeStyle;rounded=0;orthogonalLoop=1;jettySize=auto;html=1;exitX=0.5;exitY=1;exitDx=0;exitDy=0;entryX=0.5;entryY=0;entryDx=0;entryDy=0;" parent="1" source="vMF5pIukRqWADJI_kbgt-123" target="vMF5pIukRqWADJI_kbgt-137" edge="1">
                    <mxGeometry relative="1" as="geometry">
                        <Array as="points">
                            <mxPoint x="580" y="630"/>
                            <mxPoint x="580" y="630"/>
                        </Array>
                    </mxGeometry>
                </mxCell>
                <mxCell id="vMF5pIukRqWADJI_kbgt-122" value="&lt;span style=&quot;color: rgb(51 , 51 , 51) ; font-size: 12px ; background-color: rgb(248 , 249 , 250)&quot;&gt;petitions&lt;/span&gt;&lt;span style=&quot;font-size: 12px ; background-color: rgb(248 , 249 , 250)&quot;&gt;Idx&lt;/span&gt;&lt;br style=&quot;font-size: 12px ; background-color: rgb(248 , 249 , 250)&quot;&gt;&lt;span style=&quot;color: rgb(51 , 51 , 51) ; font-size: 12px ; background-color: rgb(248 , 249 , 250)&quot;&gt;petitions&lt;/span&gt;&lt;span style=&quot;font-size: 12px ; background-color: rgb(248 , 249 , 250)&quot;&gt;Name&lt;/span&gt;&lt;br style=&quot;font-size: 12px ; background-color: rgb(248 , 249 , 250)&quot;&gt;&lt;span style=&quot;color: rgb(51 , 51 , 51) ; font-size: 12px ; background-color: rgb(248 , 249 , 250)&quot;&gt;petitions&lt;/span&gt;&lt;span style=&quot;font-size: 12px ; background-color: rgb(248 , 249 , 250)&quot;&gt;Detail&lt;/span&gt;" style="edgeLabel;html=1;align=center;verticalAlign=middle;resizable=0;points=[];" parent="vMF5pIukRqWADJI_kbgt-121" vertex="1" connectable="0">
                    <mxGeometry x="-0.2766" y="2" relative="1" as="geometry">
                        <mxPoint as="offset"/>
                    </mxGeometry>
                </mxCell>
                <mxCell id="vMF5pIukRqWADJI_kbgt-123" value="글작성&lt;br&gt;/petitions/write[GET]" style="rounded=0;whiteSpace=wrap;html=1;" parent="1" vertex="1">
                    <mxGeometry x="520" y="540" width="120" height="60" as="geometry"/>
                </mxCell>
                <mxCell id="vMF5pIukRqWADJI_kbgt-124" style="edgeStyle=orthogonalEdgeStyle;rounded=0;orthogonalLoop=1;jettySize=auto;html=1;exitX=0;exitY=0.643;exitDx=0;exitDy=0;entryX=1;entryY=0.75;entryDx=0;entryDy=0;fillColor=#dae8fc;strokeColor=#6c8ebf;exitPerimeter=0;" parent="1" source="vMF5pIukRqWADJI_kbgt-134" target="vMF5pIukRqWADJI_kbgt-120" edge="1">
                    <mxGeometry relative="1" as="geometry">
                        <mxPoint x="530" y="910" as="sourcePoint"/>
                    </mxGeometry>
                </mxCell>
                <mxCell id="vMF5pIukRqWADJI_kbgt-125" value="&lt;span style=&quot;color: rgb(51 , 51 , 51) ; font-size: 12px ; background-color: rgb(248 , 249 , 250)&quot;&gt;petitions&lt;/span&gt;Idx" style="edgeLabel;html=1;align=center;verticalAlign=middle;resizable=0;points=[];" parent="vMF5pIukRqWADJI_kbgt-124" vertex="1" connectable="0">
                    <mxGeometry x="-0.4214" y="2" relative="1" as="geometry">
                        <mxPoint as="offset"/>
                    </mxGeometry>
                </mxCell>
                <mxCell id="vMF5pIukRqWADJI_kbgt-126" style="edgeStyle=orthogonalEdgeStyle;rounded=0;orthogonalLoop=1;jettySize=auto;html=1;exitX=1;exitY=0.25;exitDx=0;exitDy=0;entryX=0;entryY=0.25;entryDx=0;entryDy=0;fillColor=#dae8fc;strokeColor=#6c8ebf;" parent="1" source="vMF5pIukRqWADJI_kbgt-127" target="vMF5pIukRqWADJI_kbgt-120" edge="1">
                    <mxGeometry relative="1" as="geometry">
                        <Array as="points">
                            <mxPoint x="130" y="720"/>
                            <mxPoint x="250" y="720"/>
                            <mxPoint x="250" y="750"/>
                        </Array>
                    </mxGeometry>
                </mxCell>
                <mxCell id="vMF5pIukRqWADJI_kbgt-127" value="&lt;span&gt;댓글 작성&lt;/span&gt;&lt;br&gt;&lt;span&gt;/petitionsReply/&lt;/span&gt;&lt;br&gt;&lt;span&gt;edit[POST]&lt;/span&gt;" style="rounded=0;whiteSpace=wrap;html=1;fillColor=#f8cecc;strokeColor=#b85450;" parent="1" vertex="1">
                    <mxGeometry x="10" y="715.5" width="120" height="50" as="geometry"/>
                </mxCell>
                <mxCell id="vMF5pIukRqWADJI_kbgt-128" style="edgeStyle=orthogonalEdgeStyle;rounded=0;orthogonalLoop=1;jettySize=auto;html=1;exitX=1;exitY=0.25;exitDx=0;exitDy=0;entryX=0;entryY=0.65;entryDx=0;entryDy=0;entryPerimeter=0;fillColor=#dae8fc;strokeColor=#6c8ebf;" parent="1" source="vMF5pIukRqWADJI_kbgt-129" target="vMF5pIukRqWADJI_kbgt-120" edge="1">
                    <mxGeometry relative="1" as="geometry"/>
                </mxCell>
                <mxCell id="vMF5pIukRqWADJI_kbgt-129" value="&lt;span&gt;댓글 삭제&lt;/span&gt;&lt;br&gt;&lt;span&gt;/petitionsReply/&lt;/span&gt;&lt;br&gt;&lt;span&gt;delete[DELETE]&lt;/span&gt;" style="rounded=0;whiteSpace=wrap;html=1;fillColor=#f8cecc;strokeColor=#b85450;" parent="1" vertex="1">
                    <mxGeometry x="10" y="820" width="120" height="50" as="geometry"/>
                </mxCell>
                <mxCell id="vMF5pIukRqWADJI_kbgt-130" value="&lt;span&gt;댓글 수정&lt;/span&gt;&lt;br&gt;&lt;span&gt;/petitionsReply/&lt;/span&gt;&lt;br&gt;&lt;span&gt;Insert[POST]&lt;/span&gt;" style="rounded=0;whiteSpace=wrap;html=1;fillColor=#f8cecc;strokeColor=#b85450;" parent="1" vertex="1">
                    <mxGeometry x="10" y="600" width="120" height="50" as="geometry"/>
                </mxCell>
                <mxCell id="vMF5pIukRqWADJI_kbgt-131" value="글 수정&lt;br&gt;/petitions/edit[GET]" style="rounded=0;whiteSpace=wrap;html=1;fillColor=#f5f5f5;fontColor=#333333;strokeColor=#666666;" parent="1" vertex="1">
                    <mxGeometry x="270" y="910" width="120" height="60" as="geometry"/>
                </mxCell>
                <mxCell id="vMF5pIukRqWADJI_kbgt-132" style="edgeStyle=orthogonalEdgeStyle;rounded=0;orthogonalLoop=1;jettySize=auto;html=1;exitX=0.5;exitY=1;exitDx=0;exitDy=0;entryX=0.5;entryY=1;entryDx=0;entryDy=0;" parent="1" source="vMF5pIukRqWADJI_kbgt-131" target="vMF5pIukRqWADJI_kbgt-134" edge="1">
                    <mxGeometry relative="1" as="geometry">
                        <mxPoint x="560" y="990" as="sourcePoint"/>
                        <mxPoint x="600" y="990" as="targetPoint"/>
                        <Array as="points">
                            <mxPoint x="330" y="1050"/>
                            <mxPoint x="600" y="1050"/>
                        </Array>
                    </mxGeometry>
                </mxCell>
                <mxCell id="vMF5pIukRqWADJI_kbgt-133" value="&lt;span style=&quot;color: rgb(51 , 51 , 51) ; font-size: 12px ; background-color: rgb(248 , 249 , 250)&quot;&gt;petitions&lt;/span&gt;Idx&lt;br&gt;&lt;span style=&quot;color: rgb(51 , 51 , 51) ; font-size: 12px ; background-color: rgb(248 , 249 , 250)&quot;&gt;petitions&lt;/span&gt;Name&lt;br&gt;&lt;span style=&quot;color: rgb(51 , 51 , 51) ; font-size: 12px ; background-color: rgb(248 , 249 , 250)&quot;&gt;petitions&lt;/span&gt;Detail" style="edgeLabel;html=1;align=center;verticalAlign=middle;resizable=0;points=[];" parent="vMF5pIukRqWADJI_kbgt-132" vertex="1" connectable="0">
                    <mxGeometry x="-0.2978" y="1" relative="1" as="geometry">
                        <mxPoint as="offset"/>
                    </mxGeometry>
                </mxCell>
                <mxCell id="vMF5pIukRqWADJI_kbgt-134" value="글 수정&lt;br&gt;/&lt;span style=&quot;color: rgb(51 , 51 , 51)&quot;&gt;petitions&lt;/span&gt;/edit[POST]" style="rounded=0;whiteSpace=wrap;html=1;fillColor=#f8cecc;strokeColor=#b85450;" parent="1" vertex="1">
                    <mxGeometry x="540" y="930" width="120" height="50" as="geometry"/>
                </mxCell>
                <mxCell id="vMF5pIukRqWADJI_kbgt-135" style="edgeStyle=orthogonalEdgeStyle;rounded=0;orthogonalLoop=1;jettySize=auto;html=1;exitX=0;exitY=0.5;exitDx=0;exitDy=0;entryX=1.007;entryY=0.342;entryDx=0;entryDy=0;entryPerimeter=0;fillColor=#dae8fc;strokeColor=#6c8ebf;" parent="1" source="vMF5pIukRqWADJI_kbgt-137" target="vMF5pIukRqWADJI_kbgt-120" edge="1">
                    <mxGeometry relative="1" as="geometry"/>
                </mxCell>
                <mxCell id="vMF5pIukRqWADJI_kbgt-136" value="&lt;span style=&quot;color: rgb(51 , 51 , 51) ; font-size: 12px ; background-color: rgb(248 , 249 , 250)&quot;&gt;petitions&lt;/span&gt;Idx" style="edgeLabel;html=1;align=center;verticalAlign=middle;resizable=0;points=[];" parent="vMF5pIukRqWADJI_kbgt-135" vertex="1" connectable="0">
                    <mxGeometry x="0.0988" y="-2" relative="1" as="geometry">
                        <mxPoint as="offset"/>
                    </mxGeometry>
                </mxCell>
                <mxCell id="vMF5pIukRqWADJI_kbgt-137" value="글작성&lt;br&gt;/petitions/write[POST]" style="rounded=0;whiteSpace=wrap;html=1;fillColor=#f8cecc;strokeColor=#b85450;" parent="1" vertex="1">
                    <mxGeometry x="520" y="670.5" width="120" height="60" as="geometry"/>
                </mxCell>
                <mxCell id="vMF5pIukRqWADJI_kbgt-138" style="edgeStyle=orthogonalEdgeStyle;rounded=0;orthogonalLoop=1;jettySize=auto;html=1;exitX=0;exitY=0.25;exitDx=0;exitDy=0;entryX=1;entryY=0.75;entryDx=0;entryDy=0;fillColor=#dae8fc;strokeColor=#6c8ebf;" parent="1" source="vMF5pIukRqWADJI_kbgt-139" target="vMF5pIukRqWADJI_kbgt-110" edge="1">
                    <mxGeometry relative="1" as="geometry">
                        <Array as="points">
                            <mxPoint x="490" y="816"/>
                            <mxPoint x="490" y="585"/>
                        </Array>
                    </mxGeometry>
                </mxCell>
                <mxCell id="vMF5pIukRqWADJI_kbgt-139" value="글삭제&lt;br&gt;/petitions/delete[GET]" style="rounded=0;whiteSpace=wrap;html=1;fillColor=#f5f5f5;fontColor=#333333;strokeColor=#666666;" parent="1" vertex="1">
                    <mxGeometry x="520" y="800.5" width="120" height="60" as="geometry"/>
                </mxCell>
                <mxCell id="vMF5pIukRqWADJI_kbgt-141" value="&lt;span style=&quot;font-size: 24px&quot;&gt;&lt;b&gt;강좌관리&lt;/b&gt;&lt;/span&gt;" style="text;html=1;strokeColor=none;fillColor=none;align=center;verticalAlign=middle;whiteSpace=wrap;rounded=0;strokeWidth=7;" parent="1" vertex="1">
                    <mxGeometry x="790" y="828.5" width="160" height="42" as="geometry"/>
                </mxCell>
                <mxCell id="vMF5pIukRqWADJI_kbgt-142" value="실패" style="edgeStyle=orthogonalEdgeStyle;rounded=0;orthogonalLoop=1;jettySize=auto;html=1;exitX=0;exitY=0.75;exitDx=0;exitDy=0;entryX=1;entryY=0.75;entryDx=0;entryDy=0;fillColor=#f8cecc;strokeColor=#b85450;" parent="1" source="vMF5pIukRqWADJI_kbgt-144" target="vMF5pIukRqWADJI_kbgt-149" edge="1">
                    <mxGeometry relative="1" as="geometry"/>
                </mxCell>
                <mxCell id="vMF5pIukRqWADJI_kbgt-143" style="edgeStyle=orthogonalEdgeStyle;rounded=0;orthogonalLoop=1;jettySize=auto;html=1;exitX=1;exitY=0.5;exitDx=0;exitDy=0;entryX=0;entryY=0.5;entryDx=0;entryDy=0;" parent="1" source="vMF5pIukRqWADJI_kbgt-144" target="vMF5pIukRqWADJI_kbgt-160" edge="1">
                    <mxGeometry relative="1" as="geometry"/>
                </mxCell>
                <mxCell id="vMF5pIukRqWADJI_kbgt-144" value="강좌등록처리" style="rounded=0;whiteSpace=wrap;html=1;fillColor=#f8cecc;strokeColor=#b85450;" parent="1" vertex="1">
                    <mxGeometry x="1365" y="868.5" width="160" height="80" as="geometry"/>
                </mxCell>
                <mxCell id="vMF5pIukRqWADJI_kbgt-145" style="edgeStyle=orthogonalEdgeStyle;rounded=0;orthogonalLoop=1;jettySize=auto;html=1;exitX=1;exitY=0.5;exitDx=0;exitDy=0;entryX=0;entryY=0.5;entryDx=0;entryDy=0;fillColor=#dae8fc;strokeColor=#6c8ebf;" parent="1" source="vMF5pIukRqWADJI_kbgt-147" target="vMF5pIukRqWADJI_kbgt-151" edge="1">
                    <mxGeometry relative="1" as="geometry"/>
                </mxCell>
                <mxCell id="vMF5pIukRqWADJI_kbgt-146" style="edgeStyle=orthogonalEdgeStyle;rounded=0;orthogonalLoop=1;jettySize=auto;html=1;exitX=1;exitY=0.5;exitDx=0;exitDy=0;entryX=0;entryY=0.5;entryDx=0;entryDy=0;fillColor=#dae8fc;strokeColor=#6c8ebf;" parent="1" source="vMF5pIukRqWADJI_kbgt-147" target="vMF5pIukRqWADJI_kbgt-149" edge="1">
                    <mxGeometry relative="1" as="geometry"/>
                </mxCell>
                <mxCell id="vMF5pIukRqWADJI_kbgt-147" value="강좌관리&lt;br&gt;lecture" style="rounded=0;whiteSpace=wrap;html=1;" parent="1" vertex="1">
                    <mxGeometry x="806.5" y="896.5" width="160" height="80" as="geometry"/>
                </mxCell>
                <mxCell id="vMF5pIukRqWADJI_kbgt-148" style="edgeStyle=orthogonalEdgeStyle;rounded=0;orthogonalLoop=1;jettySize=auto;html=1;exitX=1;exitY=0.25;exitDx=0;exitDy=0;entryX=0;entryY=0.25;entryDx=0;entryDy=0;" parent="1" source="vMF5pIukRqWADJI_kbgt-149" target="vMF5pIukRqWADJI_kbgt-144" edge="1">
                    <mxGeometry relative="1" as="geometry"/>
                </mxCell>
                <mxCell id="vMF5pIukRqWADJI_kbgt-149" value="강좌등록&lt;br&gt;lecture/insert" style="rounded=0;whiteSpace=wrap;html=1;" parent="1" vertex="1">
                    <mxGeometry x="1085" y="868.5" width="160" height="80" as="geometry"/>
                </mxCell>
                <mxCell id="vMF5pIukRqWADJI_kbgt-150" style="edgeStyle=orthogonalEdgeStyle;rounded=0;orthogonalLoop=1;jettySize=auto;html=1;exitX=1;exitY=0.5;exitDx=0;exitDy=0;entryX=0;entryY=0.5;entryDx=0;entryDy=0;" parent="1" source="vMF5pIukRqWADJI_kbgt-151" target="vMF5pIukRqWADJI_kbgt-159" edge="1">
                    <mxGeometry relative="1" as="geometry"/>
                </mxCell>
                <mxCell id="vMF5pIukRqWADJI_kbgt-151" value="강좌목록/검색&lt;br&gt;lecture/list" style="rounded=0;whiteSpace=wrap;html=1;" parent="1" vertex="1">
                    <mxGeometry x="1086.5" y="1096.5" width="160" height="80" as="geometry"/>
                </mxCell>
                <mxCell id="vMF5pIukRqWADJI_kbgt-152" style="edgeStyle=orthogonalEdgeStyle;rounded=0;orthogonalLoop=1;jettySize=auto;html=1;exitX=1;exitY=0.25;exitDx=0;exitDy=0;entryX=0;entryY=0.25;entryDx=0;entryDy=0;" parent="1" source="vMF5pIukRqWADJI_kbgt-153" target="vMF5pIukRqWADJI_kbgt-163" edge="1">
                    <mxGeometry relative="1" as="geometry"/>
                </mxCell>
                <mxCell id="vMF5pIukRqWADJI_kbgt-153" value="강좌수정&lt;br&gt;lecture/edit" style="rounded=0;whiteSpace=wrap;html=1;" parent="1" vertex="1">
                    <mxGeometry x="1646.5" y="1038.5" width="160" height="80" as="geometry"/>
                </mxCell>
                <mxCell id="vMF5pIukRqWADJI_kbgt-154" style="edgeStyle=orthogonalEdgeStyle;rounded=0;orthogonalLoop=1;jettySize=auto;html=1;exitX=1;exitY=0.25;exitDx=0;exitDy=0;entryX=0;entryY=0.25;entryDx=0;entryDy=0;fillColor=#dae8fc;strokeColor=#6c8ebf;" parent="1" source="vMF5pIukRqWADJI_kbgt-155" target="vMF5pIukRqWADJI_kbgt-167" edge="1">
                    <mxGeometry relative="1" as="geometry"/>
                </mxCell>
                <mxCell id="vMF5pIukRqWADJI_kbgt-155" value="강좌삭제&lt;br&gt;lecture/delete" style="rounded=0;whiteSpace=wrap;html=1;" parent="1" vertex="1">
                    <mxGeometry x="1646.5" y="1168.5" width="160" height="80" as="geometry"/>
                </mxCell>
                <mxCell id="vMF5pIukRqWADJI_kbgt-156" style="edgeStyle=orthogonalEdgeStyle;rounded=0;orthogonalLoop=1;jettySize=auto;html=1;exitX=1;exitY=0.5;exitDx=0;exitDy=0;entryX=0;entryY=0.5;entryDx=0;entryDy=0;fillColor=#dae8fc;strokeColor=#6c8ebf;" parent="1" source="vMF5pIukRqWADJI_kbgt-159" target="vMF5pIukRqWADJI_kbgt-153" edge="1">
                    <mxGeometry relative="1" as="geometry"/>
                </mxCell>
                <mxCell id="vMF5pIukRqWADJI_kbgt-157" style="edgeStyle=orthogonalEdgeStyle;rounded=0;orthogonalLoop=1;jettySize=auto;html=1;exitX=1;exitY=0.5;exitDx=0;exitDy=0;entryX=0;entryY=0.5;entryDx=0;entryDy=0;fillColor=#dae8fc;strokeColor=#6c8ebf;" parent="1" source="vMF5pIukRqWADJI_kbgt-159" target="vMF5pIukRqWADJI_kbgt-155" edge="1">
                    <mxGeometry relative="1" as="geometry"/>
                </mxCell>
                <mxCell id="vMF5pIukRqWADJI_kbgt-158" style="edgeStyle=orthogonalEdgeStyle;rounded=0;orthogonalLoop=1;jettySize=auto;html=1;exitX=0.5;exitY=1;exitDx=0;exitDy=0;entryX=0.5;entryY=0;entryDx=0;entryDy=0;" parent="1" source="vMF5pIukRqWADJI_kbgt-159" target="vMF5pIukRqWADJI_kbgt-176" edge="1">
                    <mxGeometry relative="1" as="geometry"/>
                </mxCell>
                <mxCell id="vMF5pIukRqWADJI_kbgt-159" value="강좌상세보기&lt;br&gt;lecture/detail" style="rounded=0;whiteSpace=wrap;html=1;" parent="1" vertex="1">
                    <mxGeometry x="1366.5" y="1096.5" width="160" height="80" as="geometry"/>
                </mxCell>
                <mxCell id="vMF5pIukRqWADJI_kbgt-160" value="강좌등록완료&lt;br&gt;(강좌상세조회)" style="rounded=0;whiteSpace=wrap;html=1;" parent="1" vertex="1">
                    <mxGeometry x="1645" y="868.5" width="160" height="80" as="geometry"/>
                </mxCell>
                <mxCell id="vMF5pIukRqWADJI_kbgt-161" style="edgeStyle=orthogonalEdgeStyle;rounded=0;orthogonalLoop=1;jettySize=auto;html=1;exitX=1;exitY=0.5;exitDx=0;exitDy=0;entryX=0;entryY=0.5;entryDx=0;entryDy=0;fillColor=#dae8fc;strokeColor=#6c8ebf;" parent="1" source="vMF5pIukRqWADJI_kbgt-163" target="vMF5pIukRqWADJI_kbgt-164" edge="1">
                    <mxGeometry relative="1" as="geometry"/>
                </mxCell>
                <mxCell id="vMF5pIukRqWADJI_kbgt-162" value="실패" style="edgeStyle=orthogonalEdgeStyle;rounded=0;orthogonalLoop=1;jettySize=auto;html=1;exitX=0;exitY=0.75;exitDx=0;exitDy=0;entryX=1;entryY=0.75;entryDx=0;entryDy=0;fillColor=#f8cecc;strokeColor=#b85450;" parent="1" source="vMF5pIukRqWADJI_kbgt-163" target="vMF5pIukRqWADJI_kbgt-153" edge="1">
                    <mxGeometry relative="1" as="geometry"/>
                </mxCell>
                <mxCell id="vMF5pIukRqWADJI_kbgt-163" value="강좌수정처리" style="rounded=0;whiteSpace=wrap;html=1;fillColor=#f8cecc;strokeColor=#b85450;" parent="1" vertex="1">
                    <mxGeometry x="1926.5" y="1038.5" width="160" height="80" as="geometry"/>
                </mxCell>
                <mxCell id="vMF5pIukRqWADJI_kbgt-164" value="강좌수정완료&lt;br&gt;(강좌상세조회)" style="rounded=0;whiteSpace=wrap;html=1;" parent="1" vertex="1">
                    <mxGeometry x="2206.5" y="1038.5" width="160" height="80" as="geometry"/>
                </mxCell>
                <mxCell id="vMF5pIukRqWADJI_kbgt-165" style="edgeStyle=orthogonalEdgeStyle;rounded=0;orthogonalLoop=1;jettySize=auto;html=1;exitX=1;exitY=0.5;exitDx=0;exitDy=0;entryX=0;entryY=0.5;entryDx=0;entryDy=0;fillColor=#dae8fc;strokeColor=#6c8ebf;" parent="1" source="vMF5pIukRqWADJI_kbgt-167" target="vMF5pIukRqWADJI_kbgt-168" edge="1">
                    <mxGeometry relative="1" as="geometry"/>
                </mxCell>
                <mxCell id="vMF5pIukRqWADJI_kbgt-166" value="실패" style="edgeStyle=orthogonalEdgeStyle;rounded=0;orthogonalLoop=1;jettySize=auto;html=1;exitX=0;exitY=0.75;exitDx=0;exitDy=0;entryX=1;entryY=0.75;entryDx=0;entryDy=0;fillColor=#f8cecc;strokeColor=#b85450;" parent="1" source="vMF5pIukRqWADJI_kbgt-167" target="vMF5pIukRqWADJI_kbgt-155" edge="1">
                    <mxGeometry relative="1" as="geometry"/>
                </mxCell>
                <mxCell id="vMF5pIukRqWADJI_kbgt-167" value="강좌삭제처리" style="rounded=0;whiteSpace=wrap;html=1;fillColor=#f8cecc;strokeColor=#b85450;" parent="1" vertex="1">
                    <mxGeometry x="1926.5" y="1168.5" width="160" height="80" as="geometry"/>
                </mxCell>
                <mxCell id="vMF5pIukRqWADJI_kbgt-168" value="강좌삭제완료&lt;br&gt;(강좌리스트로 리다이렉트)" style="rounded=0;whiteSpace=wrap;html=1;" parent="1" vertex="1">
                    <mxGeometry x="2206.5" y="1168.5" width="160" height="80" as="geometry"/>
                </mxCell>
                <mxCell id="vMF5pIukRqWADJI_kbgt-169" style="edgeStyle=orthogonalEdgeStyle;rounded=0;orthogonalLoop=1;jettySize=auto;html=1;exitX=1;exitY=0.5;exitDx=0;exitDy=0;entryX=0;entryY=0.5;entryDx=0;entryDy=0;fillColor=#dae8fc;strokeColor=#6c8ebf;" parent="1" edge="1">
                    <mxGeometry relative="1" as="geometry">
                        <mxPoint x="1246.5" y="1136.5" as="sourcePoint"/>
                        <mxPoint x="1366.5" y="1136.5" as="targetPoint"/>
                    </mxGeometry>
                </mxCell>
                <mxCell id="vMF5pIukRqWADJI_kbgt-170" style="edgeStyle=orthogonalEdgeStyle;rounded=0;orthogonalLoop=1;jettySize=auto;html=1;exitX=1;exitY=0.25;exitDx=0;exitDy=0;entryX=0;entryY=0.25;entryDx=0;entryDy=0;fillColor=#dae8fc;strokeColor=#6c8ebf;" parent="1" edge="1">
                    <mxGeometry relative="1" as="geometry">
                        <mxPoint x="1245" y="888.5" as="sourcePoint"/>
                        <mxPoint x="1365" y="888.5" as="targetPoint"/>
                    </mxGeometry>
                </mxCell>
                <mxCell id="vMF5pIukRqWADJI_kbgt-171" style="edgeStyle=orthogonalEdgeStyle;rounded=0;orthogonalLoop=1;jettySize=auto;html=1;exitX=1;exitY=0.5;exitDx=0;exitDy=0;entryX=0;entryY=0.5;entryDx=0;entryDy=0;fillColor=#dae8fc;strokeColor=#6c8ebf;" parent="1" edge="1">
                    <mxGeometry relative="1" as="geometry">
                        <mxPoint x="1525.0000000000005" y="908.5" as="sourcePoint"/>
                        <mxPoint x="1645.0000000000005" y="908.5" as="targetPoint"/>
                    </mxGeometry>
                </mxCell>
                <mxCell id="vMF5pIukRqWADJI_kbgt-172" style="edgeStyle=orthogonalEdgeStyle;rounded=0;orthogonalLoop=1;jettySize=auto;html=1;exitX=1;exitY=0.25;exitDx=0;exitDy=0;entryX=0;entryY=0.25;entryDx=0;entryDy=0;fillColor=#dae8fc;strokeColor=#6c8ebf;" parent="1" edge="1">
                    <mxGeometry relative="1" as="geometry">
                        <mxPoint x="1806.4999999999995" y="1058.5" as="sourcePoint"/>
                        <mxPoint x="1926.4999999999995" y="1058.5" as="targetPoint"/>
                    </mxGeometry>
                </mxCell>
                <mxCell id="vMF5pIukRqWADJI_kbgt-173" style="edgeStyle=orthogonalEdgeStyle;rounded=0;orthogonalLoop=1;jettySize=auto;html=1;entryX=0;entryY=0.5;entryDx=0;entryDy=0;" parent="1" source="vMF5pIukRqWADJI_kbgt-174" target="vMF5pIukRqWADJI_kbgt-176" edge="1">
                    <mxGeometry relative="1" as="geometry"/>
                </mxCell>
                <mxCell id="vMF5pIukRqWADJI_kbgt-174" value="찜" style="rounded=0;whiteSpace=wrap;html=1;" parent="1" vertex="1">
                    <mxGeometry x="840" y="1428.5" width="160" height="80" as="geometry"/>
                </mxCell>
                <mxCell id="vMF5pIukRqWADJI_kbgt-175" value="DB" style="edgeStyle=orthogonalEdgeStyle;rounded=0;orthogonalLoop=1;jettySize=auto;html=1;exitX=1;exitY=0.5;exitDx=0;exitDy=0;entryX=0;entryY=0.5;entryDx=0;entryDy=0;" parent="1" source="vMF5pIukRqWADJI_kbgt-176" target="vMF5pIukRqWADJI_kbgt-180" edge="1">
                    <mxGeometry relative="1" as="geometry"/>
                </mxCell>
                <mxCell id="vMF5pIukRqWADJI_kbgt-176" value="결제 확인 페이지&lt;br&gt;/pay/confirm[GET]" style="rounded=0;whiteSpace=wrap;html=1;" parent="1" vertex="1">
                    <mxGeometry x="1133" y="1428.5" width="160" height="80" as="geometry"/>
                </mxCell>
                <mxCell id="vMF5pIukRqWADJI_kbgt-177" style="edgeStyle=orthogonalEdgeStyle;rounded=0;orthogonalLoop=1;jettySize=auto;html=1;exitX=1;exitY=0.5;exitDx=0;exitDy=0;entryX=0;entryY=0.5;entryDx=0;entryDy=0;" parent="1" source="vMF5pIukRqWADJI_kbgt-180" target="vMF5pIukRqWADJI_kbgt-182" edge="1">
                    <mxGeometry relative="1" as="geometry"/>
                </mxCell>
                <mxCell id="vMF5pIukRqWADJI_kbgt-178" style="edgeStyle=orthogonalEdgeStyle;rounded=0;orthogonalLoop=1;jettySize=auto;html=1;entryX=0;entryY=0.5;entryDx=0;entryDy=0;" parent="1" source="vMF5pIukRqWADJI_kbgt-180" target="vMF5pIukRqWADJI_kbgt-181" edge="1">
                    <mxGeometry relative="1" as="geometry"/>
                </mxCell>
                <mxCell id="vMF5pIukRqWADJI_kbgt-179" style="edgeStyle=orthogonalEdgeStyle;rounded=0;orthogonalLoop=1;jettySize=auto;html=1;entryX=0;entryY=0.5;entryDx=0;entryDy=0;" parent="1" source="vMF5pIukRqWADJI_kbgt-180" target="vMF5pIukRqWADJI_kbgt-184" edge="1">
                    <mxGeometry relative="1" as="geometry"/>
                </mxCell>
                <mxCell id="vMF5pIukRqWADJI_kbgt-180" value="실제 결제 페이지&lt;br&gt;(카카오페이)" style="rounded=0;whiteSpace=wrap;html=1;" parent="1" vertex="1">
                    <mxGeometry x="1423" y="1428.5" width="160" height="80" as="geometry"/>
                </mxCell>
                <mxCell id="vMF5pIukRqWADJI_kbgt-181" value="실패처리페이지" style="rounded=0;whiteSpace=wrap;html=1;" parent="1" vertex="1">
                    <mxGeometry x="1643" y="1568.5" width="160" height="80" as="geometry"/>
                </mxCell>
                <mxCell id="vMF5pIukRqWADJI_kbgt-182" value="취소처리페이지" style="rounded=0;whiteSpace=wrap;html=1;" parent="1" vertex="1">
                    <mxGeometry x="1643" y="1428.5" width="160" height="80" as="geometry"/>
                </mxCell>
                <mxCell id="vMF5pIukRqWADJI_kbgt-183" value="DB" style="edgeStyle=orthogonalEdgeStyle;rounded=0;orthogonalLoop=1;jettySize=auto;html=1;exitX=1;exitY=0.5;exitDx=0;exitDy=0;" parent="1" source="vMF5pIukRqWADJI_kbgt-184" target="vMF5pIukRqWADJI_kbgt-185" edge="1">
                    <mxGeometry relative="1" as="geometry"/>
                </mxCell>
                <mxCell id="vMF5pIukRqWADJI_kbgt-184" value="성공처리페이지" style="rounded=0;whiteSpace=wrap;html=1;" parent="1" vertex="1">
                    <mxGeometry x="1643" y="1288.5" width="160" height="80" as="geometry"/>
                </mxCell>
                <mxCell id="vMF5pIukRqWADJI_kbgt-185" value="승인요청&lt;br&gt;(결제완료 페이지로 리다이렉트)" style="rounded=0;whiteSpace=wrap;html=1;" parent="1" vertex="1">
                    <mxGeometry x="1913" y="1288.5" width="183.5" height="80" as="geometry"/>
                </mxCell>
                <mxCell id="vMF5pIukRqWADJI_kbgt-186" value="강좌평점&lt;br&gt;" style="rounded=0;whiteSpace=wrap;html=1;" parent="1" vertex="1">
                    <mxGeometry x="842" y="1588.5" width="160" height="80" as="geometry"/>
                </mxCell>
                <mxCell id="vMF5pIukRqWADJI_kbgt-188" value="" style="rounded=0;whiteSpace=wrap;html=1;fontSize=12;strokeColor=#666666;strokeWidth=1;fillColor=#F5F5F5;fontColor=#333333;" parent="1" vertex="1">
                    <mxGeometry x="-1042" y="1668" width="310" height="640" as="geometry"/>
                </mxCell>
                <mxCell id="vMF5pIukRqWADJI_kbgt-189" value="" style="rounded=0;whiteSpace=wrap;html=1;fontSize=12;strokeColor=#666666;strokeWidth=1;fillColor=#F5F5F5;fontColor=#333333;" parent="1" vertex="1">
                    <mxGeometry x="-642" y="1668" width="500" height="630" as="geometry"/>
                </mxCell>
                <mxCell id="vMF5pIukRqWADJI_kbgt-190" style="edgeStyle=orthogonalEdgeStyle;rounded=0;orthogonalLoop=1;jettySize=auto;html=1;exitX=1;exitY=0.5;exitDx=0;exitDy=0;entryX=0;entryY=0.5;entryDx=0;entryDy=0;" parent="1" source="vMF5pIukRqWADJI_kbgt-191" target="vMF5pIukRqWADJI_kbgt-207" edge="1">
                    <mxGeometry relative="1" as="geometry">
                        <Array as="points">
                            <mxPoint x="-452" y="1748"/>
                            <mxPoint x="-452" y="1748"/>
                        </Array>
                    </mxGeometry>
                </mxCell>
                <mxCell id="vMF5pIukRqWADJI_kbgt-191" value="목록페이지&lt;br&gt;/gather/list" style="rounded=0;whiteSpace=wrap;html=1;" parent="1" vertex="1">
                    <mxGeometry x="-612" y="1718" width="120" height="60" as="geometry"/>
                </mxCell>
                <mxCell id="vMF5pIukRqWADJI_kbgt-192" style="edgeStyle=orthogonalEdgeStyle;rounded=0;orthogonalLoop=1;jettySize=auto;html=1;exitX=0.5;exitY=1;exitDx=0;exitDy=0;entryX=0.5;entryY=0;entryDx=0;entryDy=0;" parent="1" source="vMF5pIukRqWADJI_kbgt-191" target="vMF5pIukRqWADJI_kbgt-204" edge="1">
                    <mxGeometry relative="1" as="geometry">
                        <mxPoint x="-552" y="1808" as="sourcePoint"/>
                        <mxPoint x="-552" y="1883" as="targetPoint"/>
                    </mxGeometry>
                </mxCell>
                <mxCell id="vMF5pIukRqWADJI_kbgt-193" value="&lt;font color=&quot;#333333&quot;&gt;&lt;span style=&quot;font-size: 12px ; background-color: rgb(248 , 249 , 250)&quot;&gt;memberIdx&lt;/span&gt;&lt;/font&gt;" style="edgeLabel;html=1;align=center;verticalAlign=middle;resizable=0;points=[];" parent="vMF5pIukRqWADJI_kbgt-192" vertex="1" connectable="0">
                    <mxGeometry x="-0.2395" y="1" relative="1" as="geometry">
                        <mxPoint x="119" y="-81" as="offset"/>
                    </mxGeometry>
                </mxCell>
                <mxCell id="vMF5pIukRqWADJI_kbgt-194" style="edgeStyle=orthogonalEdgeStyle;rounded=0;orthogonalLoop=1;jettySize=auto;html=1;exitX=0.5;exitY=1;exitDx=0;exitDy=0;entryX=0.5;entryY=0;entryDx=0;entryDy=0;" parent="1" source="vMF5pIukRqWADJI_kbgt-204" target="vMF5pIukRqWADJI_kbgt-213" edge="1">
                    <mxGeometry relative="1" as="geometry">
                        <mxPoint x="-312" y="2088" as="targetPoint"/>
                        <Array as="points">
                            <mxPoint x="-542" y="1973"/>
                        </Array>
                    </mxGeometry>
                </mxCell>
                <mxCell id="vMF5pIukRqWADJI_kbgt-195" value="&lt;span style=&quot;color: rgb(51 , 51 , 51) ; font-size: 12px ; background-color: rgb(248 , 249 , 250)&quot;&gt;gatherIdx&lt;/span&gt;" style="edgeLabel;html=1;align=center;verticalAlign=middle;resizable=0;points=[];" parent="vMF5pIukRqWADJI_kbgt-194" vertex="1" connectable="0">
                    <mxGeometry x="0.3026" relative="1" as="geometry">
                        <mxPoint as="offset"/>
                    </mxGeometry>
                </mxCell>
                <mxCell id="vMF5pIukRqWADJI_kbgt-196" style="edgeStyle=orthogonalEdgeStyle;rounded=0;orthogonalLoop=1;jettySize=auto;html=1;exitX=0;exitY=0.5;exitDx=0;exitDy=0;entryX=1;entryY=0.5;entryDx=0;entryDy=0;" parent="1" source="vMF5pIukRqWADJI_kbgt-204" target="vMF5pIukRqWADJI_kbgt-212" edge="1">
                    <mxGeometry relative="1" as="geometry"/>
                </mxCell>
                <mxCell id="vMF5pIukRqWADJI_kbgt-197" style="edgeStyle=orthogonalEdgeStyle;rounded=0;orthogonalLoop=1;jettySize=auto;html=1;exitX=0;exitY=0.5;exitDx=0;exitDy=0;entryX=1;entryY=0.5;entryDx=0;entryDy=0;" parent="1" source="vMF5pIukRqWADJI_kbgt-204" target="vMF5pIukRqWADJI_kbgt-210" edge="1">
                    <mxGeometry relative="1" as="geometry">
                        <Array as="points">
                            <mxPoint x="-682" y="1943"/>
                            <mxPoint x="-682" y="1799"/>
                        </Array>
                    </mxGeometry>
                </mxCell>
                <mxCell id="vMF5pIukRqWADJI_kbgt-198" style="edgeStyle=orthogonalEdgeStyle;rounded=0;orthogonalLoop=1;jettySize=auto;html=1;exitX=1;exitY=0.5;exitDx=0;exitDy=0;entryX=0;entryY=0.75;entryDx=0;entryDy=0;" parent="1" source="vMF5pIukRqWADJI_kbgt-204" target="vMF5pIukRqWADJI_kbgt-222" edge="1">
                    <mxGeometry relative="1" as="geometry">
                        <Array as="points">
                            <mxPoint x="-442" y="1943"/>
                            <mxPoint x="-442" y="2024"/>
                        </Array>
                    </mxGeometry>
                </mxCell>
                <mxCell id="vMF5pIukRqWADJI_kbgt-199" value="&#10;&#10;&lt;span style=&quot;color: rgb(51, 51, 51); font-family: helvetica; font-size: 12px; font-style: normal; font-weight: 400; letter-spacing: normal; text-align: center; text-indent: 0px; text-transform: none; word-spacing: 0px; background-color: rgb(248, 249, 250); display: inline; float: none;&quot;&gt;gatherIdx&lt;/span&gt;&#10;&#10;" style="edgeLabel;html=1;align=center;verticalAlign=middle;resizable=0;points=[];" parent="vMF5pIukRqWADJI_kbgt-198" vertex="1" connectable="0">
                    <mxGeometry x="0.1988" relative="1" as="geometry">
                        <mxPoint y="5" as="offset"/>
                    </mxGeometry>
                </mxCell>
                <mxCell id="vMF5pIukRqWADJI_kbgt-200" style="edgeStyle=orthogonalEdgeStyle;rounded=0;orthogonalLoop=1;jettySize=auto;html=1;exitX=0;exitY=0.5;exitDx=0;exitDy=0;entryX=1;entryY=0.5;entryDx=0;entryDy=0;" parent="1" source="vMF5pIukRqWADJI_kbgt-204" target="vMF5pIukRqWADJI_kbgt-211" edge="1">
                    <mxGeometry relative="1" as="geometry"/>
                </mxCell>
                <mxCell id="vMF5pIukRqWADJI_kbgt-201" style="edgeStyle=orthogonalEdgeStyle;rounded=0;orthogonalLoop=1;jettySize=auto;html=1;" parent="1" source="vMF5pIukRqWADJI_kbgt-204" target="vMF5pIukRqWADJI_kbgt-226" edge="1">
                    <mxGeometry relative="1" as="geometry">
                        <Array as="points">
                            <mxPoint x="-552" y="2023"/>
                        </Array>
                    </mxGeometry>
                </mxCell>
                <mxCell id="vMF5pIukRqWADJI_kbgt-202" style="edgeStyle=orthogonalEdgeStyle;rounded=0;orthogonalLoop=1;jettySize=auto;html=1;entryX=1;entryY=0.75;entryDx=0;entryDy=0;" parent="1" source="vMF5pIukRqWADJI_kbgt-204" target="vMF5pIukRqWADJI_kbgt-224" edge="1">
                    <mxGeometry relative="1" as="geometry"/>
                </mxCell>
                <mxCell id="vMF5pIukRqWADJI_kbgt-203" style="edgeStyle=orthogonalEdgeStyle;rounded=0;orthogonalLoop=1;jettySize=auto;html=1;entryX=1;entryY=0.5;entryDx=0;entryDy=0;" parent="1" source="vMF5pIukRqWADJI_kbgt-204" target="vMF5pIukRqWADJI_kbgt-225" edge="1">
                    <mxGeometry relative="1" as="geometry">
                        <Array as="points">
                            <mxPoint x="-682" y="1938"/>
                            <mxPoint x="-682" y="2248"/>
                            <mxPoint x="-822" y="2248"/>
                        </Array>
                    </mxGeometry>
                </mxCell>
                <mxCell id="vMF5pIukRqWADJI_kbgt-204" value="상세페이지&lt;br&gt;/gather/detail" style="rounded=0;whiteSpace=wrap;html=1;" parent="1" vertex="1">
                    <mxGeometry x="-612" y="1913" width="120" height="60" as="geometry"/>
                </mxCell>
                <mxCell id="vMF5pIukRqWADJI_kbgt-205" style="edgeStyle=orthogonalEdgeStyle;rounded=0;orthogonalLoop=1;jettySize=auto;html=1;exitX=0.5;exitY=1;exitDx=0;exitDy=0;entryX=0.5;entryY=0;entryDx=0;entryDy=0;" parent="1" source="vMF5pIukRqWADJI_kbgt-207" target="vMF5pIukRqWADJI_kbgt-220" edge="1">
                    <mxGeometry relative="1" as="geometry">
                        <Array as="points">
                            <mxPoint x="-292" y="1808"/>
                            <mxPoint x="-292" y="1808"/>
                        </Array>
                    </mxGeometry>
                </mxCell>
                <mxCell id="vMF5pIukRqWADJI_kbgt-206" value="&lt;font color=&quot;#333333&quot;&gt;&lt;span style=&quot;font-size: 12px ; background-color: rgb(248 , 249 , 250)&quot;&gt;gatherVO&lt;/span&gt;&lt;/font&gt;" style="edgeLabel;html=1;align=center;verticalAlign=middle;resizable=0;points=[];" parent="vMF5pIukRqWADJI_kbgt-205" vertex="1" connectable="0">
                    <mxGeometry x="-0.2766" y="2" relative="1" as="geometry">
                        <mxPoint as="offset"/>
                    </mxGeometry>
                </mxCell>
                <mxCell id="vMF5pIukRqWADJI_kbgt-207" value="글작성&lt;br&gt;/gather/insert" style="rounded=0;whiteSpace=wrap;html=1;" parent="1" vertex="1">
                    <mxGeometry x="-352" y="1718" width="120" height="60" as="geometry"/>
                </mxCell>
                <mxCell id="vMF5pIukRqWADJI_kbgt-208" style="edgeStyle=orthogonalEdgeStyle;rounded=0;orthogonalLoop=1;jettySize=auto;html=1;exitX=0;exitY=0.643;exitDx=0;exitDy=0;entryX=1;entryY=0.75;entryDx=0;entryDy=0;fillColor=#dae8fc;strokeColor=#6c8ebf;exitPerimeter=0;" parent="1" source="vMF5pIukRqWADJI_kbgt-216" target="vMF5pIukRqWADJI_kbgt-204" edge="1">
                    <mxGeometry relative="1" as="geometry">
                        <mxPoint x="-342" y="2088" as="sourcePoint"/>
                    </mxGeometry>
                </mxCell>
                <mxCell id="vMF5pIukRqWADJI_kbgt-209" value="&lt;span style=&quot;color: rgb(51 , 51 , 51) ; font-size: 12px ; background-color: rgb(248 , 249 , 250)&quot;&gt;gatherIdx&lt;/span&gt;" style="edgeLabel;html=1;align=center;verticalAlign=middle;resizable=0;points=[];" parent="vMF5pIukRqWADJI_kbgt-208" vertex="1" connectable="0">
                    <mxGeometry x="-0.4214" y="2" relative="1" as="geometry">
                        <mxPoint as="offset"/>
                    </mxGeometry>
                </mxCell>
                <mxCell id="vMF5pIukRqWADJI_kbgt-210" value="&lt;span&gt;댓글 작성&lt;/span&gt;&lt;br&gt;&lt;span&gt;/&lt;/span&gt;gatherRepl/update" style="rounded=0;whiteSpace=wrap;html=1;fillColor=#f8cecc;strokeColor=#b85450;" parent="1" vertex="1">
                    <mxGeometry x="-942" y="1794" width="120" height="50" as="geometry"/>
                </mxCell>
                <mxCell id="vMF5pIukRqWADJI_kbgt-211" value="&lt;span&gt;댓글 삭제&lt;/span&gt;&lt;br&gt;&lt;span&gt;/gatherReply/delete&lt;/span&gt;" style="rounded=0;whiteSpace=wrap;html=1;fillColor=#f8cecc;strokeColor=#b85450;" parent="1" vertex="1">
                    <mxGeometry x="-942" y="1898.5" width="120" height="50" as="geometry"/>
                </mxCell>
                <mxCell id="vMF5pIukRqWADJI_kbgt-212" value="&lt;span&gt;댓글 수정&lt;/span&gt;&lt;br&gt;&lt;span&gt;/gatherReply/insert&lt;/span&gt;" style="rounded=0;whiteSpace=wrap;html=1;fillColor=#f8cecc;strokeColor=#b85450;" parent="1" vertex="1">
                    <mxGeometry x="-942" y="1678.5" width="120" height="50" as="geometry"/>
                </mxCell>
                <mxCell id="vMF5pIukRqWADJI_kbgt-213" value="글 수정&lt;br&gt;/gather/update" style="rounded=0;whiteSpace=wrap;html=1;fillColor=#f5f5f5;fontColor=#333333;strokeColor=#666666;" parent="1" vertex="1">
                    <mxGeometry x="-612" y="2088" width="120" height="60" as="geometry"/>
                </mxCell>
                <mxCell id="vMF5pIukRqWADJI_kbgt-214" style="edgeStyle=orthogonalEdgeStyle;rounded=0;orthogonalLoop=1;jettySize=auto;html=1;exitX=0.5;exitY=1;exitDx=0;exitDy=0;entryX=0.5;entryY=1;entryDx=0;entryDy=0;" parent="1" source="vMF5pIukRqWADJI_kbgt-213" target="vMF5pIukRqWADJI_kbgt-216" edge="1">
                    <mxGeometry relative="1" as="geometry">
                        <mxPoint x="-312" y="2168" as="sourcePoint"/>
                        <mxPoint x="-272" y="2168" as="targetPoint"/>
                        <Array as="points">
                            <mxPoint x="-542" y="2228"/>
                            <mxPoint x="-272" y="2228"/>
                        </Array>
                    </mxGeometry>
                </mxCell>
                <mxCell id="vMF5pIukRqWADJI_kbgt-215" value="&lt;span style=&quot;color: rgb(51 , 51 , 51) ; font-size: 12px ; background-color: rgb(248 , 249 , 250)&quot;&gt;gatherIdx&lt;br&gt;gatherVO&lt;br&gt;&lt;br&gt;&lt;/span&gt;" style="edgeLabel;html=1;align=center;verticalAlign=middle;resizable=0;points=[];" parent="vMF5pIukRqWADJI_kbgt-214" vertex="1" connectable="0">
                    <mxGeometry x="-0.2978" y="1" relative="1" as="geometry">
                        <mxPoint as="offset"/>
                    </mxGeometry>
                </mxCell>
                <mxCell id="vMF5pIukRqWADJI_kbgt-216" value="글 수정&lt;br&gt;gather/update" style="rounded=0;whiteSpace=wrap;html=1;fillColor=#f8cecc;strokeColor=#b85450;" parent="1" vertex="1">
                    <mxGeometry x="-352" y="2108" width="120" height="50" as="geometry"/>
                </mxCell>
                <mxCell id="vMF5pIukRqWADJI_kbgt-217" style="edgeStyle=orthogonalEdgeStyle;rounded=0;orthogonalLoop=1;jettySize=auto;html=1;exitX=0;exitY=0.5;exitDx=0;exitDy=0;entryX=1.007;entryY=0.342;entryDx=0;entryDy=0;entryPerimeter=0;fillColor=#dae8fc;strokeColor=#6c8ebf;" parent="1" source="vMF5pIukRqWADJI_kbgt-220" target="vMF5pIukRqWADJI_kbgt-204" edge="1">
                    <mxGeometry relative="1" as="geometry"/>
                </mxCell>
                <mxCell id="vMF5pIukRqWADJI_kbgt-218" value="&lt;span style=&quot;color: rgba(0 , 0 , 0 , 0) ; font-family: monospace ; font-size: 0px ; background-color: rgb(248 , 249 , 250)&quot;&gt;%3CmxGraphModel%3E%3Croot%3E%3CmxCell%20id%3D%220%22%2F%3E%3CmxCell%20id%3D%221%22%20parent%3D%220%22%2F%3E%3CmxCell%20id%3D%222%22%20value%3D%22%26lt%3Bfont%20color%3D%26quot%3B%23333333%26quot%3B%26gt%3B%26lt%3Bspan%20style%3D%26quot%3Bfont-size%3A%2012px%20%3B%20background-color%3A%20rgb(248%20%2C%20249%20%2C%20250)%26quot%3B%26gt%3BgatherIdx%26lt%3B%2Fspan%26gt%3B%26lt%3B%2Ffont%26gt%3B%22%20style%3D%22edgeLabel%3Bhtml%3D1%3Balign%3Dcenter%3BverticalAlign%3Dmiddle%3Bresizable%3D0%3Bpoints%3D%5B%5D%3B%22%20vertex%3D%221%22%20connectable%3D%220%22%20parent%3D%221%22%3E%3CmxGeometry%20x%3D%221121%22%20y%3D%22521%22%20as%3D%22geometry%22%2F%3E%3C%2FmxCell%3E%3C%2Froot%3E%3C%2FmxGraphModel%3EGD&lt;/span&gt;" style="edgeLabel;html=1;align=center;verticalAlign=middle;resizable=0;points=[];" parent="vMF5pIukRqWADJI_kbgt-217" vertex="1" connectable="0">
                    <mxGeometry x="0.0988" y="-2" relative="1" as="geometry">
                        <mxPoint as="offset"/>
                    </mxGeometry>
                </mxCell>
                <mxCell id="vMF5pIukRqWADJI_kbgt-219" value="gatherIdx" style="edgeLabel;html=1;align=center;verticalAlign=middle;resizable=0;points=[];" parent="vMF5pIukRqWADJI_kbgt-217" vertex="1" connectable="0">
                    <mxGeometry x="0.097" y="2" relative="1" as="geometry">
                        <mxPoint y="1" as="offset"/>
                    </mxGeometry>
                </mxCell>
                <mxCell id="vMF5pIukRqWADJI_kbgt-220" value="글작성&lt;br&gt;/gather/insert" style="rounded=0;whiteSpace=wrap;html=1;fillColor=#f8cecc;strokeColor=#b85450;" parent="1" vertex="1">
                    <mxGeometry x="-352" y="1848.5" width="120" height="60" as="geometry"/>
                </mxCell>
                <mxCell id="vMF5pIukRqWADJI_kbgt-221" style="edgeStyle=orthogonalEdgeStyle;rounded=0;orthogonalLoop=1;jettySize=auto;html=1;exitX=0;exitY=0.25;exitDx=0;exitDy=0;entryX=1;entryY=0.75;entryDx=0;entryDy=0;fillColor=#dae8fc;strokeColor=#6c8ebf;" parent="1" source="vMF5pIukRqWADJI_kbgt-222" target="vMF5pIukRqWADJI_kbgt-191" edge="1">
                    <mxGeometry relative="1" as="geometry">
                        <Array as="points">
                            <mxPoint x="-382" y="1994"/>
                            <mxPoint x="-382" y="1763"/>
                        </Array>
                    </mxGeometry>
                </mxCell>
                <mxCell id="vMF5pIukRqWADJI_kbgt-222" value="글삭제&lt;br&gt;/gather/delete" style="rounded=0;whiteSpace=wrap;html=1;fillColor=#f5f5f5;fontColor=#333333;strokeColor=#666666;" parent="1" vertex="1">
                    <mxGeometry x="-352" y="1978.5" width="120" height="60" as="geometry"/>
                </mxCell>
                <mxCell id="vMF5pIukRqWADJI_kbgt-223" value="&lt;font color=&quot;#333333&quot;&gt;&lt;span style=&quot;font-size: 12px ; background-color: rgb(248 , 249 , 250)&quot;&gt;gatherIdx&lt;/span&gt;&lt;/font&gt;" style="edgeLabel;html=1;align=center;verticalAlign=middle;resizable=0;points=[];" parent="1" vertex="1" connectable="0">
                    <mxGeometry x="-552" y="1838.5" as="geometry"/>
                </mxCell>
                <mxCell id="vMF5pIukRqWADJI_kbgt-224" value="리뷰 수정&lt;br&gt;/gatherReview/update" style="rounded=0;whiteSpace=wrap;html=1;fillColor=#f8cecc;strokeColor=#b85450;" parent="1" vertex="1">
                    <mxGeometry x="-942" y="2133.5" width="120" height="50" as="geometry"/>
                </mxCell>
                <mxCell id="vMF5pIukRqWADJI_kbgt-225" value="리뷰 삭제&lt;br&gt;/gatherReview/delete" style="rounded=0;whiteSpace=wrap;html=1;fillColor=#f8cecc;strokeColor=#b85450;" parent="1" vertex="1">
                    <mxGeometry x="-942" y="2238" width="120" height="50" as="geometry"/>
                </mxCell>
                <mxCell id="vMF5pIukRqWADJI_kbgt-226" value="리뷰 작성&lt;br&gt;/gatherReview/insert" style="rounded=0;whiteSpace=wrap;html=1;fillColor=#f8cecc;strokeColor=#b85450;" parent="1" vertex="1">
                    <mxGeometry x="-942" y="2018" width="120" height="50" as="geometry"/>
                </mxCell>
                <mxCell id="vMF5pIukRqWADJI_kbgt-227" value="GatherDataController" style="rounded=0;whiteSpace=wrap;html=1;fillColor=#dae8fc;strokeColor=#6c8ebf;" parent="1" vertex="1">
                    <mxGeometry x="-1042" y="1638" width="310" height="30" as="geometry"/>
                </mxCell>
                <mxCell id="vMF5pIukRqWADJI_kbgt-228" value="" style="edgeStyle=orthogonalEdgeStyle;rounded=0;orthogonalLoop=1;jettySize=auto;html=1;" parent="1" source="vMF5pIukRqWADJI_kbgt-229" target="vMF5pIukRqWADJI_kbgt-189" edge="1">
                    <mxGeometry relative="1" as="geometry"/>
                </mxCell>
                <mxCell id="vMF5pIukRqWADJI_kbgt-229" value="GatherController" style="rounded=0;whiteSpace=wrap;html=1;fillColor=#dae8fc;strokeColor=#6c8ebf;" parent="1" vertex="1">
                    <mxGeometry x="-642" y="1638" width="500" height="30" as="geometry"/>
                </mxCell>
                <mxCell id="vMF5pIukRqWADJI_kbgt-235" value="memberDto" style="edgeStyle=orthogonalEdgeStyle;rounded=0;orthogonalLoop=1;jettySize=auto;html=1;exitX=0.5;exitY=1;exitDx=0;exitDy=0;entryX=0.5;entryY=0;entryDx=0;entryDy=0;" parent="1" source="vMF5pIukRqWADJI_kbgt-234" target="kI2Mg8Bmc6EN0yd2Mqpg-292" edge="1">
                    <mxGeometry relative="1" as="geometry"/>
                </mxCell>
                <mxCell id="vMF5pIukRqWADJI_kbgt-236" style="edgeStyle=orthogonalEdgeStyle;rounded=0;orthogonalLoop=1;jettySize=auto;html=1;exitX=0;exitY=0.5;exitDx=0;exitDy=0;entryX=1;entryY=0.5;entryDx=0;entryDy=0;" parent="1" source="vMF5pIukRqWADJI_kbgt-234" target="VBRFXhDjpI9AC9tL_B45-124" edge="1">
                    <mxGeometry relative="1" as="geometry"/>
                </mxCell>
                <mxCell id="vMF5pIukRqWADJI_kbgt-234" value="로그인&lt;br&gt;/member/login" style="rounded=0;whiteSpace=wrap;html=1;" parent="1" vertex="1">
                    <mxGeometry x="-354" y="1289.5" width="120" height="60" as="geometry"/>
                </mxCell>
                <mxCell id="vMF5pIukRqWADJI_kbgt-238" value="아이디 찾기&lt;br&gt;/member/idfindmail" style="rounded=0;whiteSpace=wrap;html=1;" parent="1" vertex="1">
                    <mxGeometry x="-516" y="1418.5" width="112" height="61.5" as="geometry"/>
                </mxCell>
                <mxCell id="vMF5pIukRqWADJI_kbgt-243" value="memberDto" style="edgeStyle=orthogonalEdgeStyle;rounded=0;orthogonalLoop=1;jettySize=auto;html=1;exitX=0.5;exitY=1;exitDx=0;exitDy=0;entryX=0.5;entryY=0;entryDx=0;entryDy=0;" parent="1" source="vMF5pIukRqWADJI_kbgt-240" target="vMF5pIukRqWADJI_kbgt-242" edge="1">
                    <mxGeometry relative="1" as="geometry"/>
                </mxCell>
                <mxCell id="vMF5pIukRqWADJI_kbgt-240" value="비밀번호 찾기&lt;br&gt;/member/pwfindmail" style="rounded=0;whiteSpace=wrap;html=1;" parent="1" vertex="1">
                    <mxGeometry x="-671" y="1418.5" width="112" height="61.5" as="geometry"/>
                </mxCell>
                <mxCell id="vMF5pIukRqWADJI_kbgt-242" value="임시비밀번호 발급&lt;br&gt;/member/pwfindmail" style="rounded=0;whiteSpace=wrap;html=1;fillColor=#f8cecc;strokeColor=#b85450;" parent="1" vertex="1">
                    <mxGeometry x="-669" y="1509" width="109" height="63" as="geometry"/>
                </mxCell>
                <mxCell id="vMF5pIukRqWADJI_kbgt-247" style="edgeStyle=orthogonalEdgeStyle;rounded=0;orthogonalLoop=1;jettySize=auto;html=1;exitX=1;exitY=0.5;exitDx=0;exitDy=0;fillColor=#dae8fc;strokeColor=#6c8ebf;" parent="1" edge="1">
                    <mxGeometry relative="1" as="geometry">
                        <mxPoint x="380" y="1248.5" as="sourcePoint"/>
                        <mxPoint x="120" y="1191" as="targetPoint"/>
                        <Array as="points">
                            <mxPoint x="400" y="1249"/>
                            <mxPoint x="400" y="1191"/>
                        </Array>
                    </mxGeometry>
                </mxCell>
                <mxCell id="vMF5pIukRqWADJI_kbgt-245" value="로그아웃&lt;br&gt;/member/logout" style="rounded=0;whiteSpace=wrap;html=1;fillColor=#f8cecc;strokeColor=#b85450;" parent="1" vertex="1">
                    <mxGeometry x="251" y="1211" width="130" height="75" as="geometry"/>
                </mxCell>
                <mxCell id="vMF5pIukRqWADJI_kbgt-262" style="edgeStyle=orthogonalEdgeStyle;rounded=0;orthogonalLoop=1;jettySize=auto;html=1;exitX=0.5;exitY=1;exitDx=0;exitDy=0;entryX=0.5;entryY=0;entryDx=0;entryDy=0;fontSize=25;" parent="1" source="vMF5pIukRqWADJI_kbgt-250" target="gZNQRzPZnHdo37b-jTko-74" edge="1">
                    <mxGeometry relative="1" as="geometry"/>
                </mxCell>
                <mxCell id="vMF5pIukRqWADJI_kbgt-250" value="강의장 목록&lt;br&gt;/place/list" style="rounded=0;whiteSpace=wrap;html=1;" parent="1" vertex="1">
                    <mxGeometry x="-50.00000000000006" y="1933" width="160" height="80" as="geometry"/>
                </mxCell>
                <mxCell id="vMF5pIukRqWADJI_kbgt-256" value="placeVO" style="edgeLabel;html=1;align=center;verticalAlign=middle;resizable=0;points=[];" parent="1" vertex="1" connectable="0">
                    <mxGeometry x="376.80999999999904" y="1948" as="geometry">
                        <mxPoint x="-5" as="offset"/>
                    </mxGeometry>
                </mxCell>
                <mxCell id="vMF5pIukRqWADJI_kbgt-257" value="placeVO" style="edgeLabel;html=1;align=center;verticalAlign=middle;resizable=0;points=[];" parent="1" vertex="1" connectable="0">
                    <mxGeometry x="375.30999999999904" y="2045.5" as="geometry">
                        <mxPoint x="-5" as="offset"/>
                    </mxGeometry>
                </mxCell>
                <mxCell id="vMF5pIukRqWADJI_kbgt-259" value="memberIdx" style="edgeLabel;html=1;align=center;verticalAlign=middle;resizable=0;points=[];" parent="1" vertex="1" connectable="0">
                    <mxGeometry x="159.99999999999903" y="2148" as="geometry">
                        <mxPoint x="-17" y="-179" as="offset"/>
                    </mxGeometry>
                </mxCell>
                <mxCell id="vMF5pIukRqWADJI_kbgt-260" value="placeIdx" style="edgeLabel;html=1;align=center;verticalAlign=middle;resizable=0;points=[];" parent="1" vertex="1" connectable="0">
                    <mxGeometry x="150.99999999999903" y="1913" as="geometry">
                        <mxPoint x="-15" y="150" as="offset"/>
                    </mxGeometry>
                </mxCell>
                <mxCell id="vMF5pIukRqWADJI_kbgt-269" value="&lt;font color=&quot;#000000&quot;&gt;&lt;span style=&quot;font-size: 21px&quot;&gt;&lt;b&gt;강의장&lt;/b&gt;&lt;/span&gt;&lt;/font&gt;" style="text;html=1;strokeColor=none;fillColor=none;align=center;verticalAlign=middle;whiteSpace=wrap;rounded=0;fontColor=#FF6666;fontFamily=Nanum Myeongjo;fontSource=https%3A%2F%2Ffonts.googleapis.com%2Fcss%3Ffamily%3DNanum%2BMyeongjo;" parent="1" vertex="1">
                    <mxGeometry x="-114.81421267135966" y="1786.7615789473687" width="150.81141163393852" height="49.73684210526316" as="geometry"/>
                </mxCell>
                <mxCell id="vMF5pIukRqWADJI_kbgt-271" style="edgeStyle=orthogonalEdgeStyle;rounded=0;orthogonalLoop=1;jettySize=auto;html=1;exitX=0;exitY=0.5;exitDx=0;exitDy=0;entryX=1;entryY=0.5;entryDx=0;entryDy=0;fontSize=25;" parent="1" source="kI2Mg8Bmc6EN0yd2Mqpg-68" target="vMF5pIukRqWADJI_kbgt-204" edge="1">
                    <mxGeometry relative="1" as="geometry">
                        <Array as="points">
                            <mxPoint x="-120" y="1341"/>
                            <mxPoint x="-120" y="1931"/>
                        </Array>
                    </mxGeometry>
                </mxCell>
                <mxCell id="vMF5pIukRqWADJI_kbgt-272" value="placeIdx" style="edgeLabel;html=1;align=center;verticalAlign=middle;resizable=0;points=[];" parent="1" vertex="1" connectable="0">
                    <mxGeometry x="150.99999999999903" y="2000" as="geometry">
                        <mxPoint x="-15" y="150" as="offset"/>
                    </mxGeometry>
                </mxCell>
                <mxCell id="vMF5pIukRqWADJI_kbgt-273" value="placeIdx" style="edgeLabel;html=1;align=center;verticalAlign=middle;resizable=0;points=[];" parent="1" vertex="1" connectable="0">
                    <mxGeometry x="39.999999999999034" y="1898.5" as="geometry">
                        <mxPoint x="-15" y="150" as="offset"/>
                    </mxGeometry>
                </mxCell>
                <mxCell id="vMF5pIukRqWADJI_kbgt-277" value="&lt;font color=&quot;#000000&quot;&gt;&lt;span style=&quot;font-size: 21px&quot;&gt;&lt;b&gt;공지게시판&lt;/b&gt;&lt;/span&gt;&lt;/font&gt;" style="text;html=1;strokeColor=none;fillColor=none;align=center;verticalAlign=middle;whiteSpace=wrap;rounded=0;fontColor=#FF6666;fontFamily=Nanum Myeongjo;fontSource=https%3A%2F%2Ffonts.googleapis.com%2Fcss%3Ffamily%3DNanum%2BMyeongjo;" parent="1" vertex="1">
                    <mxGeometry x="-255.0042126713597" y="1055.2615789473687" width="150.81141163393852" height="49.73684210526316" as="geometry"/>
                </mxCell>
                <mxCell id="vMF5pIukRqWADJI_kbgt-279" value="&lt;font color=&quot;#000000&quot;&gt;&lt;span style=&quot;font-size: 21px&quot;&gt;&lt;b&gt;청원게시판&lt;/b&gt;&lt;/span&gt;&lt;/font&gt;" style="text;html=1;strokeColor=none;fillColor=none;align=center;verticalAlign=middle;whiteSpace=wrap;rounded=0;fontColor=#FF6666;fontFamily=Nanum Myeongjo;fontSource=https%3A%2F%2Ffonts.googleapis.com%2Fcss%3Ffamily%3DNanum%2BMyeongjo;" parent="1" vertex="1">
                    <mxGeometry x="-70.81421267135971" y="1020.0015789473687" width="150.81141163393852" height="49.73684210526316" as="geometry"/>
                </mxCell>
                <mxCell id="sw_Dny4Hdyo4KNv0hMdQ-3" value="&lt;font color=&quot;#000000&quot;&gt;&lt;span style=&quot;font-size: 21px&quot;&gt;&lt;b&gt;소모임&lt;/b&gt;&lt;/span&gt;&lt;/font&gt;" style="text;html=1;strokeColor=none;fillColor=none;align=center;verticalAlign=middle;whiteSpace=wrap;rounded=0;fontColor=#FF6666;fontFamily=Nanum Myeongjo;fontSource=https%3A%2F%2Ffonts.googleapis.com%2Fcss%3Ffamily%3DNanum%2BMyeongjo;" parent="1" vertex="1">
                    <mxGeometry x="-292.81421267135966" y="1670.0015789473687" width="150.81141163393852" height="49.73684210526316" as="geometry"/>
                </mxCell>
                <mxCell id="2" value="" style="edgeStyle=none;html=1;" edge="1" parent="1" source="4" target="7">
                    <mxGeometry relative="1" as="geometry"/>
                </mxCell>
                <mxCell id="3" value="List&amp;lt;PointDto&amp;gt;&lt;br&gt;(포인트상품 목록)" style="edgeLabel;html=1;align=center;verticalAlign=middle;resizable=0;points=[];" vertex="1" connectable="0" parent="2">
                    <mxGeometry x="-0.6493" y="-4" relative="1" as="geometry">
                        <mxPoint x="4" y="18" as="offset"/>
                    </mxGeometry>
                </mxCell>
                <mxCell id="4" value="&amp;lt;컨트롤러&amp;gt;&lt;br&gt;/new&lt;br&gt;포인트상품 목록 불러옴" style="rounded=0;whiteSpace=wrap;html=1;fillColor=#f8cecc;strokeColor=#b85450;" vertex="1" parent="1">
                    <mxGeometry x="2510" y="205.5" width="140" height="60" as="geometry"/>
                </mxCell>
                <mxCell id="5" value="" style="edgeStyle=none;html=1;" edge="1" parent="1" source="7" target="10">
                    <mxGeometry relative="1" as="geometry">
                        <Array as="points"/>
                    </mxGeometry>
                </mxCell>
                <mxCell id="6" value="pointIdx&lt;br&gt;(사용자가 선택한&lt;br&gt;포인트상품 번호)" style="edgeLabel;html=1;align=center;verticalAlign=middle;resizable=0;points=[];" vertex="1" connectable="0" parent="5">
                    <mxGeometry x="-0.3868" relative="1" as="geometry">
                        <mxPoint y="12" as="offset"/>
                    </mxGeometry>
                </mxCell>
                <mxCell id="7" value="&amp;lt;JSP&amp;gt;&lt;br&gt;/new.jsp&lt;br&gt;결제할 포인트상품 선택" style="rounded=0;whiteSpace=wrap;html=1;fillColor=#dae8fc;strokeColor=#6c8ebf;" vertex="1" parent="1">
                    <mxGeometry x="2510" y="345.5" width="140" height="60" as="geometry"/>
                </mxCell>
                <mxCell id="8" value="" style="edgeStyle=none;html=1;" edge="1" parent="1" source="10" target="12">
                    <mxGeometry relative="1" as="geometry"/>
                </mxCell>
                <mxCell id="9" value="pointDto&lt;br&gt;(사용자가 선택한&lt;br&gt;포인트상품 상세 정보)" style="edgeLabel;html=1;align=center;verticalAlign=middle;resizable=0;points=[];" vertex="1" connectable="0" parent="8">
                    <mxGeometry x="0.2079" relative="1" as="geometry">
                        <mxPoint y="-13" as="offset"/>
                    </mxGeometry>
                </mxCell>
                <mxCell id="10" value="&amp;lt;컨트롤러&amp;gt;&lt;br&gt;/buyConfirm&lt;br&gt;세션에 pointIdx 저장" style="rounded=0;whiteSpace=wrap;html=1;fillColor=#f8cecc;strokeColor=#b85450;" vertex="1" parent="1">
                    <mxGeometry x="2510" y="485.5" width="140" height="60" as="geometry"/>
                </mxCell>
                <mxCell id="11" value="" style="edgeStyle=none;html=1;rounded=0;" edge="1" parent="1" source="12" target="17">
                    <mxGeometry relative="1" as="geometry">
                        <Array as="points">
                            <mxPoint x="2680" y="665.5"/>
                            <mxPoint x="2680" y="235.5"/>
                        </Array>
                    </mxGeometry>
                </mxCell>
                <mxCell id="12" value="&amp;lt;JSP&amp;gt;&lt;br&gt;/confirm_pay&lt;br&gt;결제할 상품정보 확인" style="rounded=0;whiteSpace=wrap;html=1;fillColor=#dae8fc;strokeColor=#6c8ebf;" vertex="1" parent="1">
                    <mxGeometry x="2510" y="635.5" width="140" height="60" as="geometry"/>
                </mxCell>
                <mxCell id="13" value="" style="edgeStyle=none;rounded=0;html=1;entryX=0;entryY=0.25;entryDx=0;entryDy=0;exitX=1;exitY=0.25;exitDx=0;exitDy=0;" edge="1" parent="1" source="17" target="18">
                    <mxGeometry relative="1" as="geometry"/>
                </mxCell>
                <mxCell id="14" value="① KakaoPayReadyRequestVO&lt;br&gt;(카카오페이 결제 생성 요청)" style="edgeLabel;html=1;align=center;verticalAlign=middle;resizable=0;points=[];" vertex="1" connectable="0" parent="13">
                    <mxGeometry x="0.0991" y="2" relative="1" as="geometry">
                        <mxPoint x="-14" y="2" as="offset"/>
                    </mxGeometry>
                </mxCell>
                <mxCell id="15" value="" style="edgeStyle=none;rounded=0;html=1;fontColor=#FF0000;exitX=0.5;exitY=1;exitDx=0;exitDy=0;entryX=0;entryY=0.25;entryDx=0;entryDy=0;" edge="1" parent="1" source="17" target="22">
                    <mxGeometry relative="1" as="geometry">
                        <Array as="points">
                            <mxPoint x="2780" y="340.5"/>
                        </Array>
                    </mxGeometry>
                </mxCell>
                <mxCell id="16" value="③ 컨트롤러가 사용자를&lt;br&gt;redirect_pc_url로&amp;nbsp;&amp;nbsp;리다이렉트" style="edgeLabel;html=1;align=center;verticalAlign=middle;resizable=0;points=[];fontColor=#000000;" vertex="1" connectable="0" parent="15">
                    <mxGeometry x="-0.3485" relative="1" as="geometry">
                        <mxPoint x="47" y="-1" as="offset"/>
                    </mxGeometry>
                </mxCell>
                <mxCell id="17" value="&amp;lt;컨트롤러&amp;gt;&lt;br&gt;/ready&lt;br&gt;카카오페이 결제 준비" style="rounded=0;whiteSpace=wrap;html=1;fillColor=#f8cecc;strokeColor=#b85450;" vertex="1" parent="1">
                    <mxGeometry x="2710" y="205.5" width="140" height="60" as="geometry"/>
                </mxCell>
                <mxCell id="18" value="&amp;lt;카카오페이측 컨트롤러&amp;gt;&lt;br&gt;/ready" style="rounded=0;whiteSpace=wrap;html=1;fillColor=#fff2cc;strokeColor=#d6b656;" vertex="1" parent="1">
                    <mxGeometry x="3100" y="205.5" width="170" height="60" as="geometry"/>
                </mxCell>
                <mxCell id="19" value="★ 결제일련번호 tid&lt;font color=&quot;#000000&quot;&gt;,&lt;br&gt;사용자 인증 페이지 redirect_pc_url 포함&lt;/font&gt;" style="text;html=1;strokeColor=none;fillColor=none;align=center;verticalAlign=middle;whiteSpace=wrap;rounded=0;fontColor=#FF0000;" vertex="1" parent="1">
                    <mxGeometry x="2840" y="255.5" width="260" height="40" as="geometry"/>
                </mxCell>
                <mxCell id="20" value="" style="edgeStyle=none;rounded=0;html=1;fontColor=#FF0000;exitX=0;exitY=0.75;exitDx=0;exitDy=0;entryX=0.5;entryY=0;entryDx=0;entryDy=0;" edge="1" parent="1" source="22" target="24">
                    <mxGeometry relative="1" as="geometry">
                        <Array as="points">
                            <mxPoint x="2780" y="370.5"/>
                        </Array>
                    </mxGeometry>
                </mxCell>
                <mxCell id="21" value="&lt;font color=&quot;#000000&quot;&gt;④ 사용자가 컨트롤러로&lt;br&gt;인증 토큰 &lt;/font&gt;★ pg_token&lt;font color=&quot;#000000&quot;&gt;을 담은 GET 요청&lt;/font&gt;" style="edgeLabel;html=1;align=center;verticalAlign=middle;resizable=0;points=[];fontColor=#FF0000;" vertex="1" connectable="0" parent="20">
                    <mxGeometry x="-0.1603" y="1" relative="1" as="geometry">
                        <mxPoint x="34" as="offset"/>
                    </mxGeometry>
                </mxCell>
                <mxCell id="22" value="&amp;lt;카카오페이측 HTML&amp;gt;&lt;br&gt;redirect_pc_url&lt;br&gt;QR 등 사용자인증 페이지" style="rounded=0;whiteSpace=wrap;html=1;fillColor=#ffe6cc;strokeColor=#d79b00;" vertex="1" parent="1">
                    <mxGeometry x="3100" y="325.5" width="170" height="60" as="geometry"/>
                </mxCell>
                <mxCell id="23" value="" style="edgeStyle=none;rounded=0;html=1;fontColor=#000000;endArrow=classic;endFill=1;exitX=0.5;exitY=1;exitDx=0;exitDy=0;entryX=0.233;entryY=0;entryDx=0;entryDy=0;entryPerimeter=0;" edge="1" parent="1" source="24" target="31">
                    <mxGeometry relative="1" as="geometry"/>
                </mxCell>
                <mxCell id="24" value="&amp;lt;컨트롤러&amp;gt;&lt;br&gt;/success&lt;br&gt;카카오페이 결제 실행" style="rounded=0;whiteSpace=wrap;html=1;fillColor=#f8cecc;strokeColor=#b85450;" vertex="1" parent="1">
                    <mxGeometry x="2710" y="415.5" width="140" height="60" as="geometry"/>
                </mxCell>
                <mxCell id="25" value="&amp;lt;카카오페이측 컨트롤러&amp;gt;&lt;br&gt;/approve&lt;br&gt;결제 최종 실행 페이지" style="rounded=0;whiteSpace=wrap;html=1;fillColor=#fff2cc;strokeColor=#d6b656;" vertex="1" parent="1">
                    <mxGeometry x="3100" y="415.5" width="170" height="60" as="geometry"/>
                </mxCell>
                <mxCell id="26" value="" style="endArrow=classic;html=1;rounded=0;entryX=1;entryY=0.75;entryDx=0;entryDy=0;exitX=0;exitY=0.75;exitDx=0;exitDy=0;endFill=1;" edge="1" parent="1" source="18" target="17">
                    <mxGeometry width="50" height="50" relative="1" as="geometry">
                        <mxPoint x="3100" y="250.5000000000001" as="sourcePoint"/>
                        <mxPoint x="2920" y="252" as="targetPoint"/>
                    </mxGeometry>
                </mxCell>
                <mxCell id="27" value="② KakaoPayReadyResponseVO&lt;br&gt;(카카오페이 결제 생성요청 결과)" style="edgeLabel;html=1;align=center;verticalAlign=middle;resizable=0;points=[];" vertex="1" connectable="0" parent="26">
                    <mxGeometry x="-0.1906" y="-2" relative="1" as="geometry">
                        <mxPoint x="-24" y="-3" as="offset"/>
                    </mxGeometry>
                </mxCell>
                <mxCell id="28" value="⑤ KakaoPayApproveRequestVO&lt;br&gt;(카카오페이 결제 실행 요청)" style="endArrow=classic;html=1;rounded=0;fontColor=#000000;exitX=1;exitY=0.25;exitDx=0;exitDy=0;entryX=0;entryY=0.25;entryDx=0;entryDy=0;" edge="1" parent="1" source="24" target="25">
                    <mxGeometry width="50" height="50" relative="1" as="geometry">
                        <mxPoint x="2840" y="515.5" as="sourcePoint"/>
                        <mxPoint x="2890" y="465.5" as="targetPoint"/>
                    </mxGeometry>
                </mxCell>
                <mxCell id="29" value="⑥ KakaoPayApproveResponseVO&lt;br&gt;(카카오페이 결제 결과)" style="endArrow=classic;html=1;rounded=0;fontColor=#000000;exitX=0;exitY=0.75;exitDx=0;exitDy=0;entryX=1;entryY=0.75;entryDx=0;entryDy=0;" edge="1" parent="1" source="25" target="24">
                    <mxGeometry width="50" height="50" relative="1" as="geometry">
                        <mxPoint x="2840" y="515.5" as="sourcePoint"/>
                        <mxPoint x="2890" y="465.5" as="targetPoint"/>
                    </mxGeometry>
                </mxCell>
                <mxCell id="30" value="" style="edgeStyle=none;rounded=0;html=1;fontColor=#000000;endArrow=classic;endFill=1;exitX=0.233;exitY=1;exitDx=0;exitDy=0;exitPerimeter=0;" edge="1" parent="1" source="31" target="32">
                    <mxGeometry relative="1" as="geometry"/>
                </mxCell>
                <mxCell id="31" value="&amp;lt;컨트롤러&amp;gt;&lt;br&gt;/success&lt;br&gt;- 결제이력을 paid 테이블에 저장&lt;br&gt;- 포인트 변동이력을 point_history 테이블에 기록&lt;br&gt;- 포인트 변동량을 member 테이블에 증대 반영" style="rounded=0;whiteSpace=wrap;html=1;fillColor=#f8cecc;strokeColor=#b85450;" vertex="1" parent="1">
                    <mxGeometry x="2710" y="515.5" width="300" height="80" as="geometry"/>
                </mxCell>
                <mxCell id="32" value="&amp;lt;JSP&amp;gt;&lt;br&gt;/success_pay&lt;br&gt;결제 완료 화면" style="rounded=0;whiteSpace=wrap;html=1;fillColor=#dae8fc;strokeColor=#6c8ebf;" vertex="1" parent="1">
                    <mxGeometry x="2710" y="635.5" width="140" height="60" as="geometry"/>
                </mxCell>
                <mxCell id="34" value="&lt;span style=&quot;font-size: 24px&quot;&gt;&lt;b&gt;결제&lt;/b&gt;&lt;/span&gt;" style="text;html=1;strokeColor=none;fillColor=none;align=center;verticalAlign=middle;whiteSpace=wrap;rounded=0;strokeWidth=7;" vertex="1" parent="1">
                    <mxGeometry x="2460" y="158.75" width="160" height="42" as="geometry"/>
                </mxCell>
                <mxCell id="35" value="" style="rounded=0;whiteSpace=wrap;html=1;fillColor=#fff2cc;strokeColor=#d6b656;gradientColor=#ffd966;" vertex="1" parent="1">
                    <mxGeometry x="3093" y="1053" width="270" height="170" as="geometry"/>
                </mxCell>
                <mxCell id="36" value="&amp;nbsp; &amp;nbsp; &amp;nbsp; &amp;nbsp; &amp;nbsp;&amp;lt;신규 첨부파일의 편집&amp;gt;" style="text;html=1;strokeColor=none;fillColor=none;align=left;verticalAlign=middle;whiteSpace=wrap;rounded=0;fontStyle=1" vertex="1" parent="1">
                    <mxGeometry x="3193" y="1029" width="216" height="30" as="geometry"/>
                </mxCell>
                <mxCell id="37" value="" style="rounded=0;whiteSpace=wrap;html=1;fillColor=#fff2cc;strokeColor=#d6b656;gradientColor=#ffd966;" vertex="1" parent="1">
                    <mxGeometry x="2805" y="1053" width="270" height="170" as="geometry"/>
                </mxCell>
                <mxCell id="38" value="" style="edgeStyle=none;html=1;exitX=1;exitY=0.5;exitDx=0;exitDy=0;" edge="1" parent="1" source="40" target="50">
                    <mxGeometry relative="1" as="geometry">
                        <mxPoint x="3453" y="1023" as="sourcePoint"/>
                    </mxGeometry>
                </mxCell>
                <mxCell id="39" value="&lt;span style=&quot;font-size: 12px ; background-color: rgb(248 , 249 , 250)&quot;&gt;글 내용&lt;br&gt;기존&amp;nbsp;&lt;/span&gt;&lt;span style=&quot;font-size: 12px ; background-color: rgb(248 , 249 , 250)&quot;&gt;첨부파일 정보&lt;/span&gt;" style="edgeLabel;html=1;align=center;verticalAlign=middle;resizable=0;points=[];" vertex="1" connectable="0" parent="38">
                    <mxGeometry x="-0.21" y="3" relative="1" as="geometry">
                        <mxPoint x="13" y="3" as="offset"/>
                    </mxGeometry>
                </mxCell>
                <mxCell id="40" value="&amp;lt;컨트롤러&amp;gt;&lt;br&gt;/update [GET]&lt;br&gt;글 수정 진입" style="rounded=0;whiteSpace=wrap;html=1;fillColor=#f8cecc;strokeColor=#b85450;" vertex="1" parent="1">
                    <mxGeometry x="2830" y="943" width="120" height="60" as="geometry"/>
                </mxCell>
                <mxCell id="41" value="" style="edgeStyle=none;html=1;rounded=0;entryX=0.5;entryY=0;entryDx=0;entryDy=0;" edge="1" parent="1" target="63">
                    <mxGeometry relative="1" as="geometry">
                        <mxPoint x="2963" y="1063" as="sourcePoint"/>
                        <mxPoint x="2995" y="1122.9999999999998" as="targetPoint"/>
                        <Array as="points">
                            <mxPoint x="3005" y="1063"/>
                        </Array>
                    </mxGeometry>
                </mxCell>
                <mxCell id="42" value="&quot;기존파일 삭제&quot;&lt;br&gt;체크 해제 시" style="edgeLabel;html=1;align=center;verticalAlign=middle;resizable=0;points=[];" vertex="1" connectable="0" parent="41">
                    <mxGeometry x="0.2769" y="-1" relative="1" as="geometry">
                        <mxPoint x="1" y="7" as="offset"/>
                    </mxGeometry>
                </mxCell>
                <mxCell id="43" value="" style="edgeStyle=none;rounded=0;html=1;entryX=0.5;entryY=0;entryDx=0;entryDy=0;" edge="1" parent="1" target="54">
                    <mxGeometry relative="1" as="geometry">
                        <mxPoint x="3123" y="1033" as="sourcePoint"/>
                        <Array as="points">
                            <mxPoint x="3193" y="1033"/>
                            <mxPoint x="3193" y="1063"/>
                            <mxPoint x="3163" y="1063"/>
                        </Array>
                    </mxGeometry>
                </mxCell>
                <mxCell id="44" value="&quot;새로운 파일&quot;을&lt;br&gt;드래그로 추가 시" style="edgeLabel;html=1;align=center;verticalAlign=middle;resizable=0;points=[];" vertex="1" connectable="0" parent="43">
                    <mxGeometry x="0.5236" y="-1" relative="1" as="geometry">
                        <mxPoint x="1" y="15" as="offset"/>
                    </mxGeometry>
                </mxCell>
                <mxCell id="45" value="" style="edgeStyle=none;rounded=0;html=1;endArrow=classic;endFill=1;entryX=0.25;entryY=1;entryDx=0;entryDy=0;exitX=0.25;exitY=0;exitDx=0;exitDy=0;" edge="1" parent="1" source="50" target="56">
                    <mxGeometry relative="1" as="geometry">
                        <mxPoint x="3129" y="933" as="sourcePoint"/>
                        <mxPoint x="3423" y="1403" as="targetPoint"/>
                        <Array as="points"/>
                    </mxGeometry>
                </mxCell>
                <mxCell id="46" value="&lt;b&gt;&amp;lt;글 수정 완료 절차&amp;gt;&lt;/b&gt;&lt;br&gt;① FormData() 객체 AJAX 전송&lt;br&gt;&amp;nbsp; - 글 내용&lt;br&gt;&amp;nbsp; - 기존 첨부파일 중 삭제 목록&lt;br&gt;&amp;nbsp; - 신규 첨부파일 정보" style="edgeLabel;html=1;align=left;verticalAlign=middle;resizable=0;points=[];" vertex="1" connectable="0" parent="45">
                    <mxGeometry x="-0.2633" y="-2" relative="1" as="geometry">
                        <mxPoint x="-166" y="-24" as="offset"/>
                    </mxGeometry>
                </mxCell>
                <mxCell id="47" value="" style="edgeStyle=none;rounded=0;html=1;endArrow=classic;endFill=1;entryX=0;entryY=0.5;entryDx=0;entryDy=0;startArrow=none;exitX=1;exitY=0.5;exitDx=0;exitDy=0;" edge="1" parent="1" source="50" target="70">
                    <mxGeometry relative="1" as="geometry">
                        <mxPoint x="2539" y="1173" as="sourcePoint"/>
                        <mxPoint x="3399" y="973" as="targetPoint"/>
                        <Array as="points"/>
                    </mxGeometry>
                </mxCell>
                <mxCell id="48" value="" style="edgeStyle=none;rounded=0;html=1;endArrow=classic;endFill=1;entryX=0.5;entryY=0;entryDx=0;entryDy=0;" edge="1" parent="1" target="55">
                    <mxGeometry relative="1" as="geometry">
                        <mxPoint x="3193" y="1063" as="sourcePoint"/>
                        <Array as="points">
                            <mxPoint x="3293" y="1063"/>
                        </Array>
                    </mxGeometry>
                </mxCell>
                <mxCell id="49" value="등록된&lt;br&gt;&quot;새로운 파일&quot;을 삭제 시" style="edgeLabel;html=1;align=center;verticalAlign=middle;resizable=0;points=[];" vertex="1" connectable="0" parent="48">
                    <mxGeometry x="0.4214" y="-1" relative="1" as="geometry">
                        <mxPoint x="1" y="16" as="offset"/>
                    </mxGeometry>
                </mxCell>
                <mxCell id="50" value="&amp;lt;JSP&amp;gt;&lt;br&gt;/insert.jsp&lt;br&gt;글 편집" style="rounded=0;whiteSpace=wrap;html=1;fillColor=#dae8fc;strokeColor=#6c8ebf;" vertex="1" parent="1">
                    <mxGeometry x="3093" y="943" width="120" height="60" as="geometry"/>
                </mxCell>
                <mxCell id="51" value="&amp;lt;자바스크립트&amp;gt;&lt;br&gt;삭제목록에 등재" style="rounded=0;whiteSpace=wrap;html=1;fillColor=#d5e8d4;strokeColor=#82b366;" vertex="1" parent="1">
                    <mxGeometry x="2811" y="1123" width="120" height="60" as="geometry"/>
                </mxCell>
                <mxCell id="52" value="" style="endArrow=classic;html=1;entryX=0.5;entryY=0;entryDx=0;entryDy=0;rounded=0;exitX=0.25;exitY=1;exitDx=0;exitDy=0;" edge="1" parent="1" source="50" target="51">
                    <mxGeometry width="50" height="50" relative="1" as="geometry">
                        <mxPoint x="2993" y="1143" as="sourcePoint"/>
                        <mxPoint x="3103" y="1073" as="targetPoint"/>
                        <Array as="points">
                            <mxPoint x="3123" y="1033"/>
                            <mxPoint x="2963" y="1033"/>
                            <mxPoint x="2963" y="1063"/>
                            <mxPoint x="2871" y="1063"/>
                        </Array>
                    </mxGeometry>
                </mxCell>
                <mxCell id="53" value="&quot;기존파일 삭제&quot;&lt;br&gt;누를 시" style="edgeLabel;html=1;align=center;verticalAlign=middle;resizable=0;points=[];" vertex="1" connectable="0" parent="52">
                    <mxGeometry x="0.7747" y="-1" relative="1" as="geometry">
                        <mxPoint x="1" y="12" as="offset"/>
                    </mxGeometry>
                </mxCell>
                <mxCell id="54" value="&amp;lt;자바스크립트&amp;gt;&lt;br&gt;추가목록에 등재" style="rounded=0;whiteSpace=wrap;html=1;fillColor=#d5e8d4;strokeColor=#82b366;" vertex="1" parent="1">
                    <mxGeometry x="3103" y="1123" width="120" height="60" as="geometry"/>
                </mxCell>
                <mxCell id="55" value="&amp;lt;자바스크립트&amp;gt;&lt;br&gt;추가목록에서 제거" style="rounded=0;whiteSpace=wrap;html=1;fillColor=#d5e8d4;strokeColor=#82b366;" vertex="1" parent="1">
                    <mxGeometry x="3233" y="1123" width="120" height="60" as="geometry"/>
                </mxCell>
                <mxCell id="56" value="컨트롤러&lt;br&gt;/data [POST]&lt;br&gt;글 등록" style="rounded=0;whiteSpace=wrap;html=1;fillColor=#f8cecc;strokeColor=#b85450;" vertex="1" parent="1">
                    <mxGeometry x="3093" y="813" width="120" height="60" as="geometry"/>
                </mxCell>
                <mxCell id="57" value="&amp;nbsp; &amp;nbsp; &amp;nbsp; &amp;nbsp; &amp;nbsp;&amp;lt;기존 첨부파일의 편집&amp;gt;" style="text;html=1;strokeColor=none;fillColor=none;align=left;verticalAlign=middle;whiteSpace=wrap;rounded=0;fontStyle=1" vertex="1" parent="1">
                    <mxGeometry x="2783" y="1029" width="196" height="30" as="geometry"/>
                </mxCell>
                <mxCell id="58" value="" style="endArrow=classic;html=1;rounded=0;exitX=0.75;exitY=1;exitDx=0;exitDy=0;entryX=0.75;entryY=0;entryDx=0;entryDy=0;" edge="1" parent="1" source="56" target="50">
                    <mxGeometry width="50" height="50" relative="1" as="geometry">
                        <mxPoint x="3513" y="1303" as="sourcePoint"/>
                        <mxPoint x="3563" y="1253" as="targetPoint"/>
                    </mxGeometry>
                </mxCell>
                <mxCell id="59" value="③ 전송 결과 회신&lt;br&gt;&lt;div&gt;&amp;nbsp; &amp;nbsp;- &quot;이동할 주소&quot; 회신&lt;/div&gt;" style="edgeLabel;html=1;align=left;verticalAlign=middle;resizable=0;points=[];" vertex="1" connectable="0" parent="58">
                    <mxGeometry x="0.3869" relative="1" as="geometry">
                        <mxPoint x="10" y="-19" as="offset"/>
                    </mxGeometry>
                </mxCell>
                <mxCell id="60" value="② 글 수정 처리&lt;br&gt;&amp;nbsp; - 글 내용 수정&lt;br&gt;&amp;nbsp; - 삭제 목록대로 기존 파일 삭제&lt;br&gt;&amp;nbsp; - 신규 첨부파일 정보대로 파일 신규 저장&amp;nbsp;" style="edgeLabel;html=1;align=left;verticalAlign=middle;resizable=0;points=[];" vertex="1" connectable="0" parent="1">
                    <mxGeometry x="3212.9976470588235" y="823" as="geometry"/>
                </mxCell>
                <mxCell id="61" value="" style="edgeStyle=none;rounded=0;html=1;endArrow=classic;endFill=1;" edge="1" parent="1" source="62" target="40">
                    <mxGeometry relative="1" as="geometry"/>
                </mxCell>
                <mxCell id="62" value="&amp;lt;JSP&amp;gt;&lt;br&gt;/detail.jsp" style="rounded=0;whiteSpace=wrap;html=1;fillColor=#dae8fc;strokeColor=#6c8ebf;" vertex="1" parent="1">
                    <mxGeometry x="2663" y="943" width="120" height="60" as="geometry"/>
                </mxCell>
                <mxCell id="63" value="&lt;span&gt;&amp;lt;자바스크립트&amp;gt;&lt;br&gt;삭제목록에서 제거&lt;/span&gt;" style="rounded=0;whiteSpace=wrap;html=1;fillColor=#d5e8d4;strokeColor=#82b366;" vertex="1" parent="1">
                    <mxGeometry x="2945" y="1123" width="120" height="60" as="geometry"/>
                </mxCell>
                <mxCell id="64" value="" style="endArrow=classic;html=1;rounded=0;exitX=0.5;exitY=1;exitDx=0;exitDy=0;entryX=0.75;entryY=1;entryDx=0;entryDy=0;" edge="1" parent="1" source="51" target="50">
                    <mxGeometry width="50" height="50" relative="1" as="geometry">
                        <mxPoint x="3123" y="1193" as="sourcePoint"/>
                        <mxPoint x="2963" y="1253" as="targetPoint"/>
                        <Array as="points">
                            <mxPoint x="2871" y="1203"/>
                            <mxPoint x="2963" y="1203"/>
                            <mxPoint x="2963" y="1243"/>
                            <mxPoint x="3383" y="1243"/>
                            <mxPoint x="3383" y="1023"/>
                            <mxPoint x="3183" y="1023"/>
                        </Array>
                    </mxGeometry>
                </mxCell>
                <mxCell id="65" value="" style="endArrow=none;html=1;rounded=0;exitX=0.5;exitY=1;exitDx=0;exitDy=0;endFill=0;" edge="1" parent="1" source="63">
                    <mxGeometry width="50" height="50" relative="1" as="geometry">
                        <mxPoint x="3123" y="1193" as="sourcePoint"/>
                        <mxPoint x="2963" y="1203" as="targetPoint"/>
                        <Array as="points">
                            <mxPoint x="3005" y="1203"/>
                        </Array>
                    </mxGeometry>
                </mxCell>
                <mxCell id="66" value="" style="endArrow=none;html=1;rounded=0;exitX=0.5;exitY=1;exitDx=0;exitDy=0;" edge="1" parent="1" source="54">
                    <mxGeometry width="50" height="50" relative="1" as="geometry">
                        <mxPoint x="3123" y="1193" as="sourcePoint"/>
                        <mxPoint x="3193" y="1243" as="targetPoint"/>
                        <Array as="points">
                            <mxPoint x="3163" y="1203"/>
                            <mxPoint x="3193" y="1203"/>
                        </Array>
                    </mxGeometry>
                </mxCell>
                <mxCell id="67" value="" style="endArrow=none;html=1;rounded=0;entryX=0.5;entryY=1;entryDx=0;entryDy=0;" edge="1" parent="1" target="55">
                    <mxGeometry width="50" height="50" relative="1" as="geometry">
                        <mxPoint x="3189" y="1203" as="sourcePoint"/>
                        <mxPoint x="3173" y="1143" as="targetPoint"/>
                        <Array as="points">
                            <mxPoint x="3293" y="1203"/>
                        </Array>
                    </mxGeometry>
                </mxCell>
                <mxCell id="68" value="" style="edgeStyle=none;rounded=0;html=1;endArrow=classic;endFill=1;" edge="1" parent="1" source="69" target="62">
                    <mxGeometry relative="1" as="geometry"/>
                </mxCell>
                <mxCell id="69" value="&amp;lt;컨트롤러&amp;gt;&lt;br&gt;/detail [GET]" style="rounded=0;whiteSpace=wrap;html=1;fillColor=#f8cecc;strokeColor=#b85450;" vertex="1" parent="1">
                    <mxGeometry x="2499" y="943" width="120" height="60" as="geometry"/>
                </mxCell>
                <mxCell id="70" value="&lt;span&gt;&amp;lt;자바스크립트&amp;gt;&lt;/span&gt;&lt;br&gt;&lt;span&gt;주소 이동 처리&lt;/span&gt;&lt;br&gt;&lt;span&gt;(location.href=&amp;nbsp;&lt;/span&gt;&lt;span&gt;/detail)&lt;/span&gt;&lt;span style=&quot;color: rgba(0 , 0 , 0 , 0) ; font-family: monospace ; font-size: 0px&quot;&gt;on&lt;/span&gt;" style="rounded=0;whiteSpace=wrap;html=1;fillColor=#d5e8d4;strokeColor=#82b366;" vertex="1" parent="1">
                    <mxGeometry x="3249" y="943" width="140" height="60" as="geometry"/>
                </mxCell>
                <mxCell id="71" value="" style="edgeStyle=none;rounded=0;html=1;endArrow=none;endFill=1;entryX=0.5;entryY=1;entryDx=0;entryDy=0;exitX=1;exitY=0.5;exitDx=0;exitDy=0;" edge="1" parent="1" source="70" target="69">
                    <mxGeometry relative="1" as="geometry">
                        <mxPoint x="3213" y="973" as="sourcePoint"/>
                        <mxPoint x="2549" y="1003" as="targetPoint"/>
                        <Array as="points">
                            <mxPoint x="3419" y="973"/>
                            <mxPoint x="3419" y="1273"/>
                            <mxPoint x="2559" y="1273"/>
                        </Array>
                    </mxGeometry>
                </mxCell>
                <mxCell id="73" value="&lt;span style=&quot;font-size: 24px&quot;&gt;&lt;b&gt;글 수정 상세&lt;/b&gt;&lt;/span&gt;" style="text;html=1;strokeColor=none;fillColor=none;align=center;verticalAlign=middle;whiteSpace=wrap;rounded=0;strokeWidth=7;" vertex="1" parent="1">
                    <mxGeometry x="2479" y="764.37" width="160" height="42" as="geometry"/>
                </mxCell>
                <mxCell id="100" value="" style="edgeStyle=none;html=1;entryX=0;entryY=0.25;entryDx=0;entryDy=0;exitX=1;exitY=0.25;exitDx=0;exitDy=0;" edge="1" parent="1" source="102" target="106">
                    <mxGeometry relative="1" as="geometry">
                        <mxPoint x="954" y="1879" as="sourcePoint"/>
                        <Array as="points"/>
                    </mxGeometry>
                </mxCell>
                <mxCell id="101" value="포인트상품 목록&lt;br&gt;(혹은 검색결과)&lt;br&gt;List&amp;lt;PointDto&amp;gt;" style="edgeLabel;html=1;align=center;verticalAlign=middle;resizable=0;points=[];" vertex="1" connectable="0" parent="100">
                    <mxGeometry x="-0.2806" y="-4" relative="1" as="geometry">
                        <mxPoint x="13" y="-28" as="offset"/>
                    </mxGeometry>
                </mxCell>
                <mxCell id="102" value="&amp;lt;컨트롤러&amp;gt;&lt;br&gt;/&lt;br&gt;포인트상품 목록 및&lt;br&gt;검색결과 준비" style="rounded=0;whiteSpace=wrap;html=1;fillColor=#f8cecc;strokeColor=#b85450;" vertex="1" parent="1">
                    <mxGeometry x="824" y="1859" width="120" height="60" as="geometry"/>
                </mxCell>
                <mxCell id="103" value="" style="edgeStyle=none;html=1;" edge="1" parent="1" source="106" target="110">
                    <mxGeometry relative="1" as="geometry"/>
                </mxCell>
                <mxCell id="104" value="" style="edgeStyle=none;html=1;entryX=1;entryY=0.75;entryDx=0;entryDy=0;exitX=0;exitY=0.75;exitDx=0;exitDy=0;" edge="1" parent="1" source="106" target="102">
                    <mxGeometry relative="1" as="geometry"/>
                </mxCell>
                <mxCell id="105" value="포인트상품 검색옵션&lt;br&gt;PointSearchVO" style="edgeLabel;html=1;align=center;verticalAlign=middle;resizable=0;points=[];" vertex="1" connectable="0" parent="104">
                    <mxGeometry x="-0.3444" relative="1" as="geometry">
                        <mxPoint x="-17" y="21" as="offset"/>
                    </mxGeometry>
                </mxCell>
                <mxCell id="106" value="&amp;lt;JSP&amp;gt;&lt;br&gt;/select.jsp&lt;br&gt;포인트상품 목록" style="rounded=0;whiteSpace=wrap;html=1;fillColor=#dae8fc;strokeColor=#6c8ebf;" vertex="1" parent="1">
                    <mxGeometry x="1054" y="1859" width="120" height="60" as="geometry"/>
                </mxCell>
                <mxCell id="107" value="" style="edgeStyle=none;html=1;entryX=0.5;entryY=0;entryDx=0;entryDy=0;rounded=0;exitX=0.5;exitY=1;exitDx=0;exitDy=0;" edge="1" parent="1" source="108" target="112">
                    <mxGeometry relative="1" as="geometry">
                        <Array as="points">
                            <mxPoint x="1544" y="1939"/>
                            <mxPoint x="1629" y="1939"/>
                        </Array>
                    </mxGeometry>
                </mxCell>
                <mxCell id="108" value="&amp;lt;JSP&amp;gt;&lt;br&gt;/detail.jsp&lt;br&gt;포인트상품 상세" style="rounded=0;whiteSpace=wrap;html=1;fillColor=#dae8fc;strokeColor=#6c8ebf;" vertex="1" parent="1">
                    <mxGeometry x="1484" y="1859" width="120" height="60" as="geometry"/>
                </mxCell>
                <mxCell id="109" value="" style="edgeStyle=none;html=1;" edge="1" parent="1" source="110" target="108">
                    <mxGeometry relative="1" as="geometry"/>
                </mxCell>
                <mxCell id="110" value="&amp;lt;컨트롤러&amp;gt;&lt;br&gt;/detail&lt;br&gt;포인트상품 상세 준비" style="rounded=0;whiteSpace=wrap;html=1;fillColor=#f8cecc;strokeColor=#b85450;" vertex="1" parent="1">
                    <mxGeometry x="1264" y="1859" width="120" height="60" as="geometry"/>
                </mxCell>
                <mxCell id="111" value="" style="edgeStyle=none;html=1;" edge="1" parent="1" source="112" target="113">
                    <mxGeometry relative="1" as="geometry"/>
                </mxCell>
                <mxCell id="112" value="&amp;lt;컨트롤러&amp;gt;&lt;br&gt;/update [GET]&lt;br&gt;포인트상품 수정 준비" style="rounded=0;whiteSpace=wrap;html=1;fillColor=#f8cecc;strokeColor=#b85450;" vertex="1" parent="1">
                    <mxGeometry x="1569" y="1969" width="120" height="60" as="geometry"/>
                </mxCell>
                <mxCell id="113" value="&amp;lt;JSP&amp;gt;&lt;br&gt;/update.jsp&lt;br&gt;포인트상품 수정 폼" style="rounded=0;whiteSpace=wrap;html=1;fillColor=#dae8fc;strokeColor=#6c8ebf;" vertex="1" parent="1">
                    <mxGeometry x="1569" y="2079" width="120" height="60" as="geometry"/>
                </mxCell>
                <mxCell id="114" value="" style="endArrow=classic;html=1;exitX=0.5;exitY=1;exitDx=0;exitDy=0;rounded=0;entryX=0.5;entryY=0;entryDx=0;entryDy=0;" edge="1" parent="1" source="113" target="115">
                    <mxGeometry width="50" height="50" relative="1" as="geometry">
                        <mxPoint x="1659" y="1969" as="sourcePoint"/>
                        <mxPoint x="1689" y="1989" as="targetPoint"/>
                        <Array as="points"/>
                    </mxGeometry>
                </mxCell>
                <mxCell id="115" value="&amp;lt;컨트롤러&amp;gt;&lt;br&gt;/update [POST]&lt;br&gt;포인트상품 수정 실행" style="rounded=0;whiteSpace=wrap;html=1;fillColor=#f8cecc;strokeColor=#b85450;" vertex="1" parent="1">
                    <mxGeometry x="1569" y="2189" width="120" height="60" as="geometry"/>
                </mxCell>
                <mxCell id="116" value="" style="endArrow=classic;html=1;rounded=0;entryX=0.5;entryY=1;entryDx=0;entryDy=0;exitX=0;exitY=0.5;exitDx=0;exitDy=0;" edge="1" parent="1" source="115" target="106">
                    <mxGeometry width="50" height="50" relative="1" as="geometry">
                        <mxPoint x="1194" y="2099" as="sourcePoint"/>
                        <mxPoint x="1244" y="2049" as="targetPoint"/>
                        <Array as="points">
                            <mxPoint x="1114" y="2219"/>
                        </Array>
                    </mxGeometry>
                </mxCell>
                <mxCell id="117" value="&amp;lt;컨트롤러&amp;gt;&lt;br&gt;/delete" style="rounded=0;whiteSpace=wrap;html=1;fillColor=#f8cecc;strokeColor=#b85450;" vertex="1" parent="1">
                    <mxGeometry x="1394" y="1969" width="120" height="60" as="geometry"/>
                </mxCell>
                <mxCell id="118" value="" style="endArrow=classic;html=1;rounded=0;entryX=0.5;entryY=0;entryDx=0;entryDy=0;" edge="1" parent="1" target="117">
                    <mxGeometry width="50" height="50" relative="1" as="geometry">
                        <mxPoint x="1544" y="1939" as="sourcePoint"/>
                        <mxPoint x="1284" y="1959" as="targetPoint"/>
                        <Array as="points">
                            <mxPoint x="1454" y="1939"/>
                        </Array>
                    </mxGeometry>
                </mxCell>
                <mxCell id="119" value="" style="endArrow=none;html=1;rounded=0;entryX=0;entryY=0.5;entryDx=0;entryDy=0;" edge="1" parent="1" target="117">
                    <mxGeometry width="50" height="50" relative="1" as="geometry">
                        <mxPoint x="1114" y="1999" as="sourcePoint"/>
                        <mxPoint x="1304" y="1999" as="targetPoint"/>
                    </mxGeometry>
                </mxCell>
                <mxCell id="120" value="pointIdx" style="text;html=1;strokeColor=none;fillColor=none;align=center;verticalAlign=middle;whiteSpace=wrap;rounded=0;" vertex="1" parent="1">
                    <mxGeometry x="1190" y="1862" width="60" height="30" as="geometry"/>
                </mxCell>
                <mxCell id="121" value="pointDto" style="text;html=1;strokeColor=none;fillColor=none;align=center;verticalAlign=middle;whiteSpace=wrap;rounded=0;" vertex="1" parent="1">
                    <mxGeometry x="1403" y="1862" width="60" height="30" as="geometry"/>
                </mxCell>
                <mxCell id="122" value="pointIdx" style="text;html=1;strokeColor=none;fillColor=none;align=center;verticalAlign=middle;whiteSpace=wrap;rounded=0;" vertex="1" parent="1">
                    <mxGeometry x="1624" y="1919" width="60" height="30" as="geometry"/>
                </mxCell>
                <mxCell id="123" value="pointIdx" style="text;html=1;strokeColor=none;fillColor=none;align=center;verticalAlign=middle;whiteSpace=wrap;rounded=0;" vertex="1" parent="1">
                    <mxGeometry x="1403" y="1919" width="60" height="30" as="geometry"/>
                </mxCell>
                <mxCell id="124" value="pointDto" style="text;html=1;strokeColor=none;fillColor=none;align=center;verticalAlign=middle;whiteSpace=wrap;rounded=0;" vertex="1" parent="1">
                    <mxGeometry x="1624" y="2039" width="60" height="30" as="geometry"/>
                </mxCell>
                <mxCell id="125" value="pointDto" style="text;html=1;strokeColor=none;fillColor=none;align=center;verticalAlign=middle;whiteSpace=wrap;rounded=0;" vertex="1" parent="1">
                    <mxGeometry x="1624" y="2149" width="60" height="30" as="geometry"/>
                </mxCell>
                <mxCell id="127" value="&lt;span style=&quot;font-size: 24px&quot;&gt;&lt;b&gt;강좌 신청 상세&lt;/b&gt;&lt;/span&gt;" style="text;html=1;strokeColor=none;fillColor=none;align=center;verticalAlign=middle;whiteSpace=wrap;rounded=0;strokeWidth=7;" vertex="1" parent="1">
                    <mxGeometry x="760" y="1774.75" width="200" height="42" as="geometry"/>
                </mxCell>
                <mxCell id="128" value="&lt;b&gt;↓ 범례&lt;br&gt;&lt;br&gt;&lt;br&gt;&lt;br&gt;&lt;br&gt;&lt;br&gt;&lt;br&gt;&lt;/b&gt;" style="rounded=0;whiteSpace=wrap;html=1;labelBackgroundColor=none;fontSize=12;strokeColor=#23445d;fillColor=#bac8d3;" vertex="1" parent="1">
                    <mxGeometry x="2916" y="1453.5" width="293" height="120" as="geometry"/>
                </mxCell>
                <mxCell id="129" value="" style="rounded=0;whiteSpace=wrap;html=1;labelBackgroundColor=#ffffff;fontSize=12;strokeColor=#23445d;fillColor=#bac8d3;" vertex="1" parent="1">
                    <mxGeometry x="3689" y="1573.5" width="720" height="510" as="geometry"/>
                </mxCell>
                <mxCell id="130" value="&lt;font color=&quot;#0000ff&quot;&gt;&lt;span&gt;[관리자용 마이페이지]&lt;/span&gt;&lt;br&gt;&lt;/font&gt;&lt;br&gt;&amp;lt;메인 페이지&amp;gt;&lt;br&gt;&lt;font color=&quot;#008800&quot;&gt;▣ 웹사이트 통계&lt;br&gt;&lt;/font&gt;&lt;br&gt;&lt;br&gt;&amp;lt;회원 관리&amp;gt;&lt;br&gt;&lt;font color=&quot;#008800&quot;&gt;▣&amp;nbsp;회원 통계 (관리자용)&lt;br&gt;&lt;/font&gt;&lt;font color=&quot;#ff00ff&quot;&gt;◆&amp;nbsp;회원 관리&lt;br&gt;&lt;/font&gt;&lt;font color=&quot;#dd6600&quot;&gt;♡ 1:1 채팅 이력 조회&lt;br&gt;♡ 채널 채팅 이력 조회&lt;br&gt;&lt;/font&gt;&lt;font color=&quot;#ff00ff&quot;&gt;◆&amp;nbsp;회원 등급 관리&lt;br&gt;&lt;/font&gt;&lt;br&gt;&lt;br&gt;&amp;lt;강좌&amp;gt;&lt;br&gt;&lt;font color=&quot;#ff00ff&quot;&gt;◆&amp;nbsp;강좌 관리&lt;br&gt;&lt;/font&gt;&lt;br&gt;&amp;lt;장소&amp;gt;&lt;br&gt;&lt;font color=&quot;#ff00ff&quot;&gt;◆&amp;nbsp;장소담당자 관리&lt;/font&gt;&lt;br style=&quot;font-family: &amp;#34;helvetica&amp;#34;&quot;&gt;&lt;span style=&quot;color: rgb(255 , 0 , 255)&quot;&gt;◆ 장소 관리&lt;/span&gt;&lt;font color=&quot;#ff00ff&quot;&gt;&lt;br&gt;&lt;/font&gt;&lt;br&gt;&amp;lt;소모임&amp;gt;&lt;br&gt;&lt;font color=&quot;#ff00ff&quot;&gt;◆ 소모임 관리&lt;br&gt;&lt;/font&gt;&lt;br&gt;&amp;lt;청원&amp;gt;&lt;br&gt;&lt;font color=&quot;#ff00ff&quot;&gt;◆&amp;nbsp;청원 관리&lt;br&gt;&lt;/font&gt;&lt;br&gt;&amp;lt;공지&amp;gt;&lt;br&gt;&lt;font color=&quot;#ff00ff&quot;&gt;◆&amp;nbsp;공지 관리&lt;br&gt;&lt;/font&gt;&lt;br&gt;&amp;lt;광고&amp;gt;&lt;br&gt;&lt;font color=&quot;#ff00ff&quot;&gt;◆&amp;nbsp;광고 관리&lt;/font&gt;" style="text;whiteSpace=wrap;html=1;fontSize=12;fontStyle=1;shadow=0;" vertex="1" parent="1">
                    <mxGeometry x="4242" y="1603.5" width="140" height="450" as="geometry"/>
                </mxCell>
                <mxCell id="131" value="" style="rounded=1;whiteSpace=wrap;html=1;arcSize=7;gradientColor=#ffa500;fillColor=#ffcd28;strokeColor=#d79b00;strokeWidth=5;" vertex="1" parent="1">
                    <mxGeometry x="3059" y="1653.5" width="490" height="170" as="geometry"/>
                </mxCell>
                <mxCell id="132" value="" style="rounded=1;whiteSpace=wrap;html=1;arcSize=3;gradientColor=#b3b3b3;fillColor=#f5f5f5;strokeColor=#666666;strokeWidth=5;" vertex="1" parent="1">
                    <mxGeometry x="2499" y="1653.5" width="530" height="570" as="geometry"/>
                </mxCell>
                <mxCell id="133" value="" style="rounded=1;whiteSpace=wrap;html=1;arcSize=7;fillColor=#cdeb8b;strokeWidth=5;strokeColor=#66CC00;" vertex="1" parent="1">
                    <mxGeometry x="3059" y="1943.5" width="490" height="160" as="geometry"/>
                </mxCell>
                <mxCell id="134" value="" style="edgeStyle=none;html=1;entryX=0.5;entryY=0;entryDx=0;entryDy=0;endArrow=blockThin;endFill=1;" edge="1" parent="1" source="135" target="141">
                    <mxGeometry relative="1" as="geometry"/>
                </mxCell>
                <mxCell id="135" value="/info&lt;br&gt;내 정보 메인화면" style="rounded=0;whiteSpace=wrap;html=1;fillColor=#d5e8d4;strokeColor=#82b366;gradientColor=#97d077;" vertex="1" parent="1">
                    <mxGeometry x="2729" y="1563.5" width="120" height="60" as="geometry"/>
                </mxCell>
                <mxCell id="136" value="" style="edgeStyle=none;html=1;endArrow=blockThin;endFill=1;exitX=0.5;exitY=1;exitDx=0;exitDy=0;" edge="1" parent="1" source="141" target="144">
                    <mxGeometry relative="1" as="geometry">
                        <mxPoint x="2877" y="2013.5" as="targetPoint"/>
                        <Array as="points"/>
                    </mxGeometry>
                </mxCell>
                <mxCell id="137" value="&lt;font&gt;idx&lt;/font&gt;" style="edgeLabel;html=1;align=center;verticalAlign=middle;resizable=0;points=[];" vertex="1" connectable="0" parent="136">
                    <mxGeometry x="0.4" y="1" relative="1" as="geometry">
                        <mxPoint x="-1" y="-34" as="offset"/>
                    </mxGeometry>
                </mxCell>
                <mxCell id="138" value="" style="edgeStyle=none;rounded=0;html=1;entryX=0.5;entryY=0;entryDx=0;entryDy=0;endArrow=blockThin;endFill=1;" edge="1" parent="1" target="145">
                    <mxGeometry relative="1" as="geometry">
                        <mxPoint x="2937.29" y="1853.5" as="targetPoint"/>
                        <Array as="points">
                            <mxPoint x="2949" y="1853.5"/>
                        </Array>
                        <mxPoint x="2849" y="1853.5" as="sourcePoint"/>
                    </mxGeometry>
                </mxCell>
                <mxCell id="139" value="idx" style="edgeLabel;html=1;align=center;verticalAlign=middle;resizable=0;points=[];" vertex="1" connectable="0" parent="138">
                    <mxGeometry x="0.1673" y="-2" relative="1" as="geometry">
                        <mxPoint x="-36" y="-2" as="offset"/>
                    </mxGeometry>
                </mxCell>
                <mxCell id="140" value="" style="edgeStyle=none;rounded=0;html=1;fontColor=#0D0D0D;startArrow=none;startFill=0;endArrow=blockThin;endFill=1;entryX=1;entryY=0.667;entryDx=0;entryDy=0;entryPerimeter=0;" edge="1" parent="1" target="151">
                    <mxGeometry relative="1" as="geometry">
                        <mxPoint x="2729" y="1873.5" as="sourcePoint"/>
                    </mxGeometry>
                </mxCell>
                <mxCell id="141" value="/list&lt;br&gt;목록 및 검색" style="rounded=0;whiteSpace=wrap;html=1;fillColor=#d5e8d4;strokeColor=#82b366;gradientColor=#97d077;" vertex="1" parent="1">
                    <mxGeometry x="2729" y="1763.5" width="120" height="130" as="geometry"/>
                </mxCell>
                <mxCell id="142" value="" style="edgeStyle=none;rounded=0;html=1;fontColor=#0D0D0D;startArrow=none;startFill=0;endArrow=blockThin;endFill=1;entryX=1;entryY=0.5;entryDx=0;entryDy=0;" edge="1" parent="1" target="156">
                    <mxGeometry relative="1" as="geometry">
                        <mxPoint x="2669" y="2000.5" as="targetPoint"/>
                        <Array as="points"/>
                        <mxPoint x="2727" y="2003.5" as="sourcePoint"/>
                    </mxGeometry>
                </mxCell>
                <mxCell id="143" value="idx" style="edgeLabel;html=1;align=center;verticalAlign=middle;resizable=0;points=[];" vertex="1" connectable="0" parent="142">
                    <mxGeometry x="-0.3778" relative="1" as="geometry">
                        <mxPoint x="-11" as="offset"/>
                    </mxGeometry>
                </mxCell>
                <mxCell id="144" value="/detail&lt;br&gt;상세보기" style="rounded=0;whiteSpace=wrap;html=1;fillColor=#d5e8d4;strokeColor=#82b366;gradientColor=#97d077;" vertex="1" parent="1">
                    <mxGeometry x="2727.29" y="1973.5" width="121.71" height="60" as="geometry"/>
                </mxCell>
                <mxCell id="145" value="/delete&lt;br&gt;삭제" style="rounded=0;whiteSpace=wrap;html=1;fillColor=#f8cecc;strokeColor=#b85450;gradientColor=#ea6b66;" vertex="1" parent="1">
                    <mxGeometry x="2889" y="1903.5" width="120" height="60" as="geometry"/>
                </mxCell>
                <mxCell id="146" value="" style="endArrow=none;html=1;entryX=0.75;entryY=0;entryDx=0;entryDy=0;rounded=0;" edge="1" parent="1" target="145">
                    <mxGeometry width="50" height="50" relative="1" as="geometry">
                        <mxPoint x="2789" y="1743.5" as="sourcePoint"/>
                        <mxPoint x="3057.29" y="1823.5" as="targetPoint"/>
                        <Array as="points">
                            <mxPoint x="2979" y="1743.5"/>
                        </Array>
                    </mxGeometry>
                </mxCell>
                <mxCell id="147" value="" style="endArrow=blockThin;html=1;fontColor=#000000;rounded=0;endFill=1;strokeColor=#FF0000;exitX=0.25;exitY=0;exitDx=0;exitDy=0;" edge="1" parent="1" source="145">
                    <mxGeometry width="50" height="50" relative="1" as="geometry">
                        <mxPoint x="2987.29" y="1883.5" as="sourcePoint"/>
                        <mxPoint x="2849" y="1873.5" as="targetPoint"/>
                        <Array as="points">
                            <mxPoint x="2919" y="1873.5"/>
                        </Array>
                    </mxGeometry>
                </mxCell>
                <mxCell id="148" value="&lt;font color=&quot;#ff0000&quot;&gt;실패&lt;br&gt;&lt;/font&gt;" style="edgeLabel;html=1;align=center;verticalAlign=middle;resizable=0;points=[];fontColor=#000000;" vertex="1" connectable="0" parent="147">
                    <mxGeometry x="-0.0055" y="-1" relative="1" as="geometry">
                        <mxPoint x="-14" y="2" as="offset"/>
                    </mxGeometry>
                </mxCell>
                <mxCell id="149" value="" style="endArrow=blockThin;html=1;fontColor=#000000;exitX=0.25;exitY=1;exitDx=0;exitDy=0;rounded=0;endFill=1;strokeColor=#FF0000;entryX=1;entryY=0.333;entryDx=0;entryDy=0;entryPerimeter=0;" edge="1" parent="1" source="145" target="144">
                    <mxGeometry width="50" height="50" relative="1" as="geometry">
                        <mxPoint x="2927.29" y="1918.5" as="sourcePoint"/>
                        <mxPoint x="2849" y="2022.5" as="targetPoint"/>
                        <Array as="points">
                            <mxPoint x="2919" y="1993.5"/>
                        </Array>
                    </mxGeometry>
                </mxCell>
                <mxCell id="150" value="실패" style="edgeLabel;html=1;align=center;verticalAlign=middle;resizable=0;points=[];fontColor=#FF0000;" vertex="1" connectable="0" parent="149">
                    <mxGeometry x="0.1675" y="-1" relative="1" as="geometry">
                        <mxPoint x="-7" y="1" as="offset"/>
                    </mxGeometry>
                </mxCell>
                <mxCell id="151" value="/register&lt;br&gt;신규" style="rounded=0;whiteSpace=wrap;html=1;fillColor=#d5e8d4;strokeColor=#82b366;gradientColor=#97d077;" vertex="1" parent="1">
                    <mxGeometry x="2549" y="1833.5" width="120" height="60" as="geometry"/>
                </mxCell>
                <mxCell id="152" value="/register&lt;br&gt;신규" style="rounded=0;whiteSpace=wrap;html=1;fillColor=#f8cecc;strokeColor=#b85450;gradientColor=#ea6b66;" vertex="1" parent="1">
                    <mxGeometry x="2549" y="1713.5" width="120" height="60" as="geometry"/>
                </mxCell>
                <mxCell id="153" value="" style="endArrow=none;html=1;fontColor=#0D0D0D;" edge="1" parent="1">
                    <mxGeometry width="50" height="50" relative="1" as="geometry">
                        <mxPoint x="2669" y="1743.5" as="sourcePoint"/>
                        <mxPoint x="2790" y="1743.5" as="targetPoint"/>
                    </mxGeometry>
                </mxCell>
                <mxCell id="154" value="" style="edgeStyle=none;rounded=0;html=1;startArrow=none;startFill=0;endArrow=blockThin;endFill=1;entryX=0.25;entryY=0;entryDx=0;entryDy=0;exitX=0.25;exitY=1;exitDx=0;exitDy=0;" edge="1" parent="1" source="156" target="162">
                    <mxGeometry relative="1" as="geometry"/>
                </mxCell>
                <mxCell id="155" value="LecDto" style="edgeLabel;html=1;align=center;verticalAlign=middle;resizable=0;points=[];" vertex="1" connectable="0" parent="154">
                    <mxGeometry x="-0.6133" y="1" relative="1" as="geometry">
                        <mxPoint x="-1" y="15" as="offset"/>
                    </mxGeometry>
                </mxCell>
                <mxCell id="156" value="/modify&lt;br&gt;수정" style="rounded=0;whiteSpace=wrap;html=1;fillColor=#d5e8d4;strokeColor=#82b366;gradientColor=#97d077;" vertex="1" parent="1">
                    <mxGeometry x="2549" y="1973.5" width="120" height="60" as="geometry"/>
                </mxCell>
                <mxCell id="157" value="" style="endArrow=none;html=1;fontColor=#0D0D0D;rounded=0;exitX=0;exitY=0.25;exitDx=0;exitDy=0;" edge="1" parent="1" source="144">
                    <mxGeometry width="50" height="50" relative="1" as="geometry">
                        <mxPoint x="2727" y="2013.5" as="sourcePoint"/>
                        <mxPoint x="2699" y="1873.5" as="targetPoint"/>
                        <Array as="points">
                            <mxPoint x="2699" y="1988.5"/>
                        </Array>
                    </mxGeometry>
                </mxCell>
                <mxCell id="158" value="" style="edgeStyle=none;rounded=0;html=1;fontColor=#FFFFFF;startArrow=none;startFill=0;endArrow=blockThin;endFill=1;entryX=0.148;entryY=1;entryDx=0;entryDy=0;entryPerimeter=0;" edge="1" parent="1" source="162" target="144">
                    <mxGeometry relative="1" as="geometry">
                        <Array as="points">
                            <mxPoint x="2745" y="2118.5"/>
                        </Array>
                        <mxPoint x="2709" y="2093.5" as="targetPoint"/>
                    </mxGeometry>
                </mxCell>
                <mxCell id="159" value="idx" style="edgeLabel;html=1;align=center;verticalAlign=middle;resizable=0;points=[];" vertex="1" connectable="0" parent="158">
                    <mxGeometry x="-0.2617" relative="1" as="geometry">
                        <mxPoint x="-14" as="offset"/>
                    </mxGeometry>
                </mxCell>
                <mxCell id="160" value="" style="edgeStyle=none;rounded=0;html=1;fontColor=#FFFFFF;startArrow=none;startFill=0;endArrow=blockThin;endFill=1;entryX=0.75;entryY=1;entryDx=0;entryDy=0;exitX=0.75;exitY=0;exitDx=0;exitDy=0;strokeColor=#FF0000;" edge="1" parent="1" source="162" target="156">
                    <mxGeometry relative="1" as="geometry"/>
                </mxCell>
                <mxCell id="161" value="&lt;font color=&quot;#ff0000&quot;&gt;실패&lt;/font&gt;" style="edgeLabel;html=1;align=center;verticalAlign=middle;resizable=0;points=[];fontColor=#FFFFFF;" vertex="1" connectable="0" parent="160">
                    <mxGeometry x="-0.4867" relative="1" as="geometry">
                        <mxPoint y="-11" as="offset"/>
                    </mxGeometry>
                </mxCell>
                <mxCell id="162" value="/modify&lt;br&gt;수정" style="rounded=0;whiteSpace=wrap;html=1;fillColor=#f8cecc;strokeColor=#b85450;gradientColor=#ea6b66;" vertex="1" parent="1">
                    <mxGeometry x="2549" y="2088.5" width="120" height="60" as="geometry"/>
                </mxCell>
                <mxCell id="163" value="" style="edgeStyle=none;rounded=0;html=1;entryX=0.75;entryY=1;entryDx=0;entryDy=0;exitX=1;exitY=0.667;exitDx=0;exitDy=0;endArrow=blockThin;endFill=1;exitPerimeter=0;" edge="1" parent="1" source="144" target="145">
                    <mxGeometry relative="1" as="geometry">
                        <mxPoint x="2987.29" y="1913.5" as="targetPoint"/>
                        <Array as="points">
                            <mxPoint x="2979" y="2013.5"/>
                        </Array>
                        <mxPoint x="2849" y="2043.5" as="sourcePoint"/>
                    </mxGeometry>
                </mxCell>
                <mxCell id="164" value="idx" style="edgeLabel;html=1;align=center;verticalAlign=middle;resizable=0;points=[];rotation=0;" vertex="1" connectable="0" parent="163">
                    <mxGeometry x="0.1673" y="-2" relative="1" as="geometry">
                        <mxPoint x="-40" y="-2" as="offset"/>
                    </mxGeometry>
                </mxCell>
                <mxCell id="165" value="" style="endArrow=none;html=1;fontColor=#000000;strokeColor=#0000FF;fontStyle=1" edge="1" parent="1" target="166">
                    <mxGeometry width="50" height="50" relative="1" as="geometry">
                        <mxPoint x="2939" y="1533.5" as="sourcePoint"/>
                        <mxPoint x="2979" y="1533.5" as="targetPoint"/>
                    </mxGeometry>
                </mxCell>
                <mxCell id="166" value="비동기 흐름" style="text;html=1;strokeColor=none;fillColor=none;align=left;verticalAlign=middle;whiteSpace=wrap;rounded=0;fontColor=#000000;fontStyle=1" vertex="1" parent="1">
                    <mxGeometry x="2979" y="1523.5" width="70" height="20" as="geometry"/>
                </mxCell>
                <mxCell id="167" value="" style="endArrow=none;html=1;fontColor=#000000;fontStyle=1" edge="1" parent="1" target="168">
                    <mxGeometry width="50" height="50" relative="1" as="geometry">
                        <mxPoint x="2939" y="1513.5" as="sourcePoint"/>
                        <mxPoint x="2979" y="1513.5" as="targetPoint"/>
                    </mxGeometry>
                </mxCell>
                <mxCell id="168" value="일반 흐름" style="text;html=1;strokeColor=none;fillColor=none;align=left;verticalAlign=middle;whiteSpace=wrap;rounded=0;fontColor=#000000;fontStyle=1" vertex="1" parent="1">
                    <mxGeometry x="2979" y="1503.5" width="70" height="20" as="geometry"/>
                </mxCell>
                <mxCell id="169" value="" style="endArrow=none;html=1;fontColor=#000000;strokeColor=#FF0000;fontStyle=1" edge="1" parent="1" target="170">
                    <mxGeometry width="50" height="50" relative="1" as="geometry">
                        <mxPoint x="2939" y="1553.5" as="sourcePoint"/>
                        <mxPoint x="2979" y="1553.5" as="targetPoint"/>
                    </mxGeometry>
                </mxCell>
                <mxCell id="170" value="실패/취소 흐름" style="text;html=1;strokeColor=none;fillColor=none;align=left;verticalAlign=middle;whiteSpace=wrap;rounded=0;fontColor=#000000;fontStyle=1" vertex="1" parent="1">
                    <mxGeometry x="2979" y="1543.5" width="90" height="20" as="geometry"/>
                </mxCell>
                <mxCell id="171" value="" style="group;fontStyle=1" vertex="1" connectable="0" parent="1">
                    <mxGeometry x="3079" y="1523.5" width="110" height="20" as="geometry"/>
                </mxCell>
                <mxCell id="172" value="컨트롤러" style="text;html=1;strokeColor=none;fillColor=none;align=left;verticalAlign=middle;whiteSpace=wrap;rounded=0;fontColor=#000000;fontStyle=1" vertex="1" parent="171">
                    <mxGeometry x="40" width="70" height="20" as="geometry"/>
                </mxCell>
                <mxCell id="173" value="" style="rounded=0;whiteSpace=wrap;html=1;fillColor=#f8cecc;strokeColor=#b85450;gradientColor=#ea6b66;fontStyle=1" vertex="1" parent="171">
                    <mxGeometry width="40" height="20" as="geometry"/>
                </mxCell>
                <mxCell id="174" value="" style="group;fontStyle=1" vertex="1" connectable="0" parent="1">
                    <mxGeometry x="3079" y="1503.5" width="110" height="20" as="geometry"/>
                </mxCell>
                <mxCell id="175" value="JSP" style="text;html=1;strokeColor=none;fillColor=none;align=left;verticalAlign=middle;whiteSpace=wrap;rounded=0;fontColor=#000000;fontStyle=1" vertex="1" parent="174">
                    <mxGeometry x="40" width="70" height="20" as="geometry"/>
                </mxCell>
                <mxCell id="176" value="" style="rounded=0;whiteSpace=wrap;html=1;fillColor=#d5e8d4;strokeColor=#82b366;gradientColor=#97d077;fontStyle=1" vertex="1" parent="174">
                    <mxGeometry width="40" height="20" as="geometry"/>
                </mxCell>
                <mxCell id="177" value="" style="edgeStyle=none;rounded=0;html=1;fontColor=#0D0D0D;startArrow=none;startFill=0;endArrow=blockThin;endFill=1;exitX=1;exitY=0.333;exitDx=0;exitDy=0;exitPerimeter=0;strokeColor=#FF0000;" edge="1" parent="1" source="151">
                    <mxGeometry relative="1" as="geometry">
                        <mxPoint x="2659" y="1883.5" as="sourcePoint"/>
                        <mxPoint x="2729" y="1853.5" as="targetPoint"/>
                    </mxGeometry>
                </mxCell>
                <mxCell id="178" value="&lt;font color=&quot;#ff0000&quot;&gt;취소&lt;/font&gt;" style="edgeLabel;html=1;align=center;verticalAlign=middle;resizable=0;points=[];" vertex="1" connectable="0" parent="177">
                    <mxGeometry x="-0.354" relative="1" as="geometry">
                        <mxPoint x="10" as="offset"/>
                    </mxGeometry>
                </mxCell>
                <mxCell id="179" value="" style="edgeStyle=none;rounded=0;html=1;startArrow=blockThin;startFill=1;endArrow=none;endFill=0;entryX=0.25;entryY=0;entryDx=0;entryDy=0;exitX=0.25;exitY=1;exitDx=0;exitDy=0;" edge="1" parent="1" source="152">
                    <mxGeometry relative="1" as="geometry">
                        <mxPoint x="2578.76" y="1778.5" as="sourcePoint"/>
                        <mxPoint x="2578.76" y="1833.5" as="targetPoint"/>
                    </mxGeometry>
                </mxCell>
                <mxCell id="180" value="LecDto" style="edgeLabel;html=1;align=center;verticalAlign=middle;resizable=0;points=[];" vertex="1" connectable="0" parent="179">
                    <mxGeometry x="-0.6133" y="1" relative="1" as="geometry">
                        <mxPoint x="-1" y="18" as="offset"/>
                    </mxGeometry>
                </mxCell>
                <mxCell id="181" value="" style="edgeStyle=none;rounded=0;html=1;fontColor=#FFFFFF;startArrow=blockThin;startFill=1;endArrow=none;endFill=0;exitX=0.75;exitY=0;exitDx=0;exitDy=0;strokeColor=#FF0000;" edge="1" parent="1">
                    <mxGeometry relative="1" as="geometry">
                        <mxPoint x="2638.76" y="1833.5" as="sourcePoint"/>
                        <mxPoint x="2639" y="1773.5" as="targetPoint"/>
                    </mxGeometry>
                </mxCell>
                <mxCell id="182" value="&lt;font color=&quot;#ff0000&quot;&gt;실패&lt;/font&gt;" style="edgeLabel;html=1;align=center;verticalAlign=middle;resizable=0;points=[];fontColor=#FFFFFF;" vertex="1" connectable="0" parent="181">
                    <mxGeometry x="-0.4867" relative="1" as="geometry">
                        <mxPoint y="-15" as="offset"/>
                    </mxGeometry>
                </mxCell>
                <mxCell id="183" value="" style="edgeStyle=none;rounded=0;html=1;fontColor=#0D0D0D;startArrow=none;startFill=0;endArrow=blockThin;endFill=1;strokeColor=#FF0000;exitX=1;exitY=0.75;exitDx=0;exitDy=0;entryX=0;entryY=0.75;entryDx=0;entryDy=0;" edge="1" parent="1" source="156" target="144">
                    <mxGeometry relative="1" as="geometry">
                        <mxPoint x="2609" y="2013.5" as="sourcePoint"/>
                        <mxPoint x="2669" y="2063.5" as="targetPoint"/>
                    </mxGeometry>
                </mxCell>
                <mxCell id="184" value="&lt;font color=&quot;#ff0000&quot;&gt;취소&lt;/font&gt;" style="edgeLabel;html=1;align=center;verticalAlign=middle;resizable=0;points=[];" vertex="1" connectable="0" parent="183">
                    <mxGeometry x="-0.354" relative="1" as="geometry">
                        <mxPoint x="10" as="offset"/>
                    </mxGeometry>
                </mxCell>
                <mxCell id="185" value="" style="edgeStyle=none;html=1;endArrow=blockThin;endFill=1;" edge="1" parent="1" source="186" target="193">
                    <mxGeometry relative="1" as="geometry">
                        <mxPoint x="3544" y="1853.5" as="targetPoint"/>
                    </mxGeometry>
                </mxCell>
                <mxCell id="186" value="/info&lt;br&gt;내 정보 메인화면" style="rounded=0;whiteSpace=wrap;html=1;fillColor=#d5e8d4;strokeColor=#82b366;gradientColor=#97d077;" vertex="1" parent="1">
                    <mxGeometry x="3244" y="1563.5" width="120" height="60" as="geometry"/>
                </mxCell>
                <mxCell id="187" value="일반 메뉴 타입 (◆)" style="text;html=1;strokeColor=none;fillColor=none;align=left;verticalAlign=middle;whiteSpace=wrap;rounded=0;fontStyle=1;fontSize=18;fontColor=#0D0D0D;" vertex="1" parent="1">
                    <mxGeometry x="2519" y="1673.5" width="254" height="20" as="geometry"/>
                </mxCell>
                <mxCell id="188" value="/search&lt;br&gt;검색" style="rounded=0;whiteSpace=wrap;html=1;fillColor=#f8cecc;strokeColor=#b85450;gradientColor=#ea6b66;" vertex="1" parent="1">
                    <mxGeometry x="2879" y="1773.5" width="80" height="60" as="geometry"/>
                </mxCell>
                <mxCell id="189" value="목록조회 타입 (♡)" style="text;html=1;strokeColor=none;fillColor=none;align=left;verticalAlign=middle;whiteSpace=wrap;rounded=0;fontStyle=1;fontSize=18;fontColor=#DD6600;" vertex="1" parent="1">
                    <mxGeometry x="3079" y="1673.5" width="190" height="20" as="geometry"/>
                </mxCell>
                <mxCell id="190" value="delete&lt;br&gt;삭제" style="rounded=0;whiteSpace=wrap;html=1;fillColor=#f8cecc;strokeColor=#b85450;gradientColor=#ea6b66;" vertex="1" parent="1">
                    <mxGeometry x="3404" y="1733.5" width="120" height="70" as="geometry"/>
                </mxCell>
                <mxCell id="191" value="" style="edgeStyle=none;html=1;fontSize=18;fontColor=#666600;startArrow=none;startFill=0;endArrow=blockThin;endFill=1;strokeColor=#000000;exitX=1;exitY=0.714;exitDx=0;exitDy=0;exitPerimeter=0;" edge="1" parent="1" source="193">
                    <mxGeometry x="3054" y="1673.5" as="geometry">
                        <mxPoint x="3404" y="1783.5" as="targetPoint"/>
                    </mxGeometry>
                </mxCell>
                <mxCell id="192" value="&lt;font color=&quot;#000000&quot; style=&quot;font-size: 12px;&quot;&gt;idx&lt;/font&gt;" style="edgeLabel;html=1;align=center;verticalAlign=middle;resizable=0;points=[];fontSize=12;fontColor=#666600;" vertex="1" connectable="0" parent="191">
                    <mxGeometry x="-0.4476" y="1" relative="1" as="geometry">
                        <mxPoint x="9" y="-2" as="offset"/>
                    </mxGeometry>
                </mxCell>
                <mxCell id="193" value="list&lt;br&gt;목록 및 검색" style="rounded=0;whiteSpace=wrap;html=1;fillColor=#d5e8d4;strokeColor=#82b366;gradientColor=#97d077;" vertex="1" parent="1">
                    <mxGeometry x="3244" y="1733.5" width="120" height="70" as="geometry"/>
                </mxCell>
                <mxCell id="194" value="" style="edgeStyle=none;html=1;fontSize=18;fontColor=#666600;startArrow=none;startFill=0;endArrow=blockThin;endFill=1;strokeColor=#000000;exitX=0;exitY=0.286;exitDx=0;exitDy=0;exitPerimeter=0;entryX=1;entryY=0.286;entryDx=0;entryDy=0;entryPerimeter=0;" edge="1" parent="1" source="190" target="193">
                    <mxGeometry x="3054" y="1673.5" as="geometry">
                        <mxPoint x="3374" y="1743.5" as="targetPoint"/>
                    </mxGeometry>
                </mxCell>
                <mxCell id="195" value="" style="edgeStyle=none;html=1;endArrow=blockThin;endFill=1;" edge="1" parent="1" source="196" target="199">
                    <mxGeometry relative="1" as="geometry">
                        <mxPoint x="3529" y="2123.5" as="targetPoint"/>
                    </mxGeometry>
                </mxCell>
                <mxCell id="196" value="/admin&lt;br&gt;내 정보 메인화면" style="rounded=0;whiteSpace=wrap;html=1;fillColor=#d5e8d4;strokeColor=#82b366;gradientColor=#97d077;" vertex="1" parent="1">
                    <mxGeometry x="3189" y="1853.5" width="120" height="60" as="geometry"/>
                </mxCell>
                <mxCell id="197" value="통계 타입 (▣)" style="text;html=1;strokeColor=none;fillColor=none;align=left;verticalAlign=middle;whiteSpace=wrap;rounded=0;fontStyle=1;fontSize=18;fontColor=#008800;" vertex="1" parent="1">
                    <mxGeometry x="3079" y="1963.5" width="254" height="20" as="geometry"/>
                </mxCell>
                <mxCell id="198" value="" style="edgeStyle=none;html=1;fontSize=18;fontColor=#666600;startArrow=none;startFill=0;endArrow=blockThin;endFill=1;strokeColor=#000000;" edge="1" parent="1">
                    <mxGeometry x="3039" y="1943.5" as="geometry">
                        <mxPoint x="3309" y="2033.5" as="sourcePoint"/>
                        <mxPoint x="3409" y="2033.5" as="targetPoint"/>
                    </mxGeometry>
                </mxCell>
                <mxCell id="199" value="stat&lt;br&gt;통계 보기" style="rounded=0;whiteSpace=wrap;html=1;fillColor=#d5e8d4;strokeColor=#82b366;gradientColor=#97d077;" vertex="1" parent="1">
                    <mxGeometry x="3189" y="2003.5" width="120" height="60" as="geometry"/>
                </mxCell>
                <mxCell id="200" value="" style="edgeStyle=none;html=1;fontSize=18;fontColor=#666600;startArrow=none;startFill=0;endArrow=blockThin;endFill=1;strokeColor=#000000;" edge="1" parent="1">
                    <mxGeometry x="3049" y="1953.5" as="geometry">
                        <mxPoint x="3309" y="2053.5" as="sourcePoint"/>
                        <mxPoint x="3379" y="2083.5" as="targetPoint"/>
                    </mxGeometry>
                </mxCell>
                <mxCell id="201" value="" style="edgeStyle=none;html=1;fontSize=18;fontColor=#666600;startArrow=none;startFill=0;endArrow=blockThin;endFill=1;strokeColor=#000000;" edge="1" parent="1">
                    <mxGeometry x="3039" y="1908.5" as="geometry">
                        <mxPoint x="3309" y="2013.5" as="sourcePoint"/>
                        <mxPoint x="3379" y="1973.5" as="targetPoint"/>
                    </mxGeometry>
                </mxCell>
                <mxCell id="202" value="각 &amp;lt;div&amp;gt; 클릭 시&lt;br&gt;(각 목록(list) 컨트롤러로)" style="text;html=1;strokeColor=none;fillColor=none;align=center;verticalAlign=middle;whiteSpace=wrap;rounded=0;labelBackgroundColor=none;fontSize=15;" vertex="1" parent="1">
                    <mxGeometry x="3359" y="1983.5" width="180" height="40" as="geometry"/>
                </mxCell>
                <mxCell id="203" value="" style="edgeStyle=none;rounded=0;html=1;fontSize=12;fontColor=#000000;startArrow=blockThin;startFill=1;endArrow=none;endFill=0;strokeColor=#000000;entryX=0;entryY=0.714;entryDx=0;entryDy=0;entryPerimeter=0;" edge="1" parent="1" target="193">
                    <mxGeometry relative="1" as="geometry">
                        <mxPoint x="3204" y="1783.5" as="sourcePoint"/>
                    </mxGeometry>
                </mxCell>
                <mxCell id="204" value="search&lt;br&gt;검색" style="rounded=0;whiteSpace=wrap;html=1;fillColor=#f8cecc;strokeColor=#b85450;gradientColor=#ea6b66;" vertex="1" parent="1">
                    <mxGeometry x="3084" y="1733.5" width="120" height="70" as="geometry"/>
                </mxCell>
                <mxCell id="205" value="" style="endArrow=blockThin;html=1;fontSize=12;fontColor=#000000;strokeColor=#000000;endFill=1;rounded=0;" edge="1" parent="1">
                    <mxGeometry width="50" height="50" relative="1" as="geometry">
                        <mxPoint x="2849" y="1813.5" as="sourcePoint"/>
                        <mxPoint x="2879" y="1813.5" as="targetPoint"/>
                        <Array as="points"/>
                    </mxGeometry>
                </mxCell>
                <mxCell id="206" value="" style="endArrow=none;html=1;fontSize=12;fontColor=#000000;strokeColor=#000000;endFill=0;startArrow=blockThin;startFill=1;rounded=0;entryX=0;entryY=0.333;entryDx=0;entryDy=0;entryPerimeter=0;" edge="1" parent="1" target="188">
                    <mxGeometry width="50" height="50" relative="1" as="geometry">
                        <mxPoint x="2849" y="1793.5" as="sourcePoint"/>
                        <mxPoint x="2839" y="1793.5" as="targetPoint"/>
                        <Array as="points"/>
                    </mxGeometry>
                </mxCell>
                <mxCell id="207" value="" style="endArrow=blockThin;html=1;fontSize=12;fontColor=#000000;strokeColor=#000000;exitX=1;exitY=0.286;exitDx=0;exitDy=0;exitPerimeter=0;entryX=0;entryY=0.286;entryDx=0;entryDy=0;entryPerimeter=0;endFill=1;" edge="1" parent="1" source="204" target="193">
                    <mxGeometry width="50" height="50" relative="1" as="geometry">
                        <mxPoint x="3214" y="1773.5" as="sourcePoint"/>
                        <mxPoint x="3264" y="1723.5" as="targetPoint"/>
                    </mxGeometry>
                </mxCell>
                <mxCell id="208" value="&lt;span style=&quot;font-family: helvetica; font-size: 12px; font-style: normal; letter-spacing: normal; text-align: left; text-indent: 0px; text-transform: none; word-spacing: 0px; display: inline; float: none;&quot;&gt;&lt;span&gt;&lt;font color=&quot;#0000ff&quot;&gt;[회원용 마이페이지]&lt;/font&gt;&lt;/span&gt;&lt;/span&gt;&lt;br style=&quot;color: rgb(0, 0, 0); font-family: helvetica; font-size: 12px; font-style: normal; letter-spacing: normal; text-align: left; text-indent: 0px; text-transform: none; word-spacing: 0px;&quot;&gt;&lt;span style=&quot;font-family: helvetica; font-size: 12px; font-style: normal; letter-spacing: normal; text-align: left; text-indent: 0px; text-transform: none; word-spacing: 0px; display: inline; float: none;&quot;&gt;&lt;br&gt;&amp;lt;메인 페이지&amp;gt;&lt;br&gt;&lt;font color=&quot;#008800&quot;&gt;&lt;span style=&quot;font-family: &amp;quot;helvetica&amp;quot;&quot;&gt;▣&amp;nbsp;&lt;/span&gt;회원 통계 (개별회원용)&lt;br&gt;&lt;/font&gt;&lt;/span&gt;&lt;br&gt;&amp;lt;내 강좌&amp;gt;&lt;br&gt;&lt;font color=&quot;#ff00ff&quot;&gt;◆ 강좌 목록&lt;br style=&quot;font-family: helvetica; font-size: 12px; font-style: normal; letter-spacing: normal; text-align: left; text-indent: 0px; text-transform: none; word-spacing: 0px;&quot;&gt;&lt;/font&gt;&lt;span style=&quot;color: rgb(0, 0, 0); font-family: helvetica; font-size: 12px; font-style: normal; letter-spacing: normal; text-align: left; text-indent: 0px; text-transform: none; word-spacing: 0px; display: inline; float: none;&quot;&gt;&lt;br&gt;&lt;/span&gt;&amp;lt;좋아요 및 찜&amp;gt;&lt;br&gt;&lt;font color=&quot;#dd6600&quot;&gt;&lt;span style=&quot;font-family: &amp;quot;helvetica&amp;quot;&quot;&gt;♡ 찜 목록&lt;/span&gt;&lt;br style=&quot;font-family: &amp;quot;helvetica&amp;quot;&quot;&gt;&lt;span style=&quot;font-family: &amp;quot;helvetica&amp;quot;&quot;&gt;♡ 강좌 좋아요 목록&lt;/span&gt;&lt;/font&gt;&lt;br&gt;&lt;br&gt;&amp;lt;결제 관리&amp;gt;&lt;br style=&quot;color: rgb(0, 0, 0); font-family: helvetica; font-size: 12px; font-style: normal; letter-spacing: normal; text-align: left; text-indent: 0px; text-transform: none; word-spacing: 0px;&quot;&gt;&lt;font color=&quot;#dd6600&quot;&gt;&lt;span style=&quot;font-family: helvetica; font-size: 12px; font-style: normal; letter-spacing: normal; text-align: left; text-indent: 0px; text-transform: none; word-spacing: 0px; display: inline; float: none;&quot;&gt;♡ 포인트 사용이력 조회&lt;/span&gt;&lt;br style=&quot;font-family: helvetica; font-size: 12px; font-style: normal; letter-spacing: normal; text-align: left; text-indent: 0px; text-transform: none; word-spacing: 0px;&quot;&gt;&lt;/font&gt;&lt;span style=&quot;color: rgb(0, 0, 0); font-size: 12px; font-style: normal; letter-spacing: normal; text-align: left; text-indent: 0px; text-transform: none; word-spacing: 0px; display: inline; float: none;&quot;&gt;&lt;font face=&quot;helvetica&quot;&gt;(??) 결제이력 관리&lt;/font&gt;&lt;br&gt;&lt;br&gt;&lt;font face=&quot;helvetica&quot;&gt;&amp;lt;회원 관리&amp;gt;&lt;/font&gt;&lt;br&gt;&lt;/span&gt;&lt;span style=&quot;color: rgb(0, 0, 0); font-size: 12px; font-style: normal; letter-spacing: normal; text-align: left; text-indent: 0px; text-transform: none; word-spacing: 0px; display: inline; float: none; font-weight: normal;&quot;&gt;(外)&lt;/span&gt;&lt;span style=&quot;color: rgb(0, 0, 0); font-family: helvetica; font-size: 12px; font-style: normal; letter-spacing: normal; text-align: left; text-indent: 0px; text-transform: none; word-spacing: 0px; display: inline; float: none;&quot;&gt;&lt;span style=&quot;font-weight: normal&quot;&gt; 정보 수정&lt;br&gt;&lt;span style=&quot;font-family: &amp;quot;helvetica&amp;quot;&quot;&gt;(外)&lt;/span&gt;&lt;span style=&quot;font-family: &amp;quot;helvetica&amp;quot;&quot;&gt;&amp;nbsp;비밀번호 수정&lt;/span&gt;&lt;/span&gt;&lt;br style=&quot;font-family: &amp;quot;helvetica&amp;quot;&quot;&gt;&lt;/span&gt;" style="text;whiteSpace=wrap;html=1;fontSize=12;fontStyle=1;shadow=0;" vertex="1" parent="1">
                    <mxGeometry x="3709" y="1603.5" width="150" height="290" as="geometry"/>
                </mxCell>
                <mxCell id="209" value="&lt;span style=&quot;font-family: helvetica; font-size: 12px; font-style: normal; letter-spacing: normal; text-align: left; text-indent: 0px; text-transform: none; word-spacing: 0px; display: inline; float: none;&quot;&gt;&lt;span&gt;&lt;font color=&quot;#0000ff&quot;&gt;[강사용 마이페이지]&lt;/font&gt;&lt;/span&gt;&lt;/span&gt;&lt;br style=&quot;color: rgb(0, 0, 0); font-family: helvetica; font-size: 12px; font-style: normal; letter-spacing: normal; text-align: left; text-indent: 0px; text-transform: none; word-spacing: 0px;&quot;&gt;&lt;span style=&quot;font-family: helvetica; font-size: 12px; font-style: normal; letter-spacing: normal; text-align: left; text-indent: 0px; text-transform: none; word-spacing: 0px; display: inline; float: none;&quot;&gt;&lt;br&gt;&amp;lt;메인 페이지&amp;gt;&lt;br&gt;&lt;font color=&quot;#008800&quot;&gt;&lt;span style=&quot;font-family: &amp;quot;helvetica&amp;quot;&quot;&gt;▣&amp;nbsp;&lt;/span&gt;종합 통계 (강사용)&lt;/font&gt;&lt;/span&gt;&lt;font color=&quot;#008800&quot;&gt;&lt;br style=&quot;font-family: helvetica; font-size: 12px; font-style: normal; letter-spacing: normal; text-align: left; text-indent: 0px; text-transform: none; word-spacing: 0px;&quot;&gt;&lt;/font&gt;&lt;span style=&quot;color: rgb(0, 0, 0); font-family: helvetica; font-size: 12px; font-style: normal; letter-spacing: normal; text-align: left; text-indent: 0px; text-transform: none; word-spacing: 0px; display: inline; float: none;&quot;&gt;&lt;br&gt;&amp;lt;통계&amp;gt;&lt;br&gt;&lt;/span&gt;&lt;font color=&quot;#008800&quot;&gt;▣ 회원 통계&lt;br&gt;▣&amp;nbsp;강좌 통계&lt;/font&gt;&lt;br&gt;&lt;br&gt;&amp;lt;강사&amp;gt;&lt;br&gt;&lt;font color=&quot;#ff00ff&quot;&gt;◆ 강사 정보&lt;br style=&quot;font-family: helvetica; font-size: 12px; font-style: normal; letter-spacing: normal; text-align: left; text-indent: 0px; text-transform: none; word-spacing: 0px;&quot;&gt;&lt;/font&gt;&lt;span style=&quot;font-family: helvetica; font-size: 12px; font-style: normal; letter-spacing: normal; text-align: left; text-indent: 0px; text-transform: none; word-spacing: 0px; display: inline; float: none;&quot;&gt;&lt;span style=&quot;font-weight: normal&quot;&gt;&lt;span style=&quot;color: rgb(0 , 0 , 0)&quot;&gt;(外)&lt;/span&gt;&amp;nbsp;강사 정보 수정&lt;/span&gt;&lt;br&gt;&lt;span style=&quot;color: rgb(0 , 136 , 0) ; font-family: &amp;quot;helvetica&amp;quot;&quot;&gt;▣&amp;nbsp;&lt;/span&gt;&lt;font color=&quot;#008800&quot;&gt;강좌 목록 조회&lt;/font&gt;&lt;br&gt;&lt;br&gt;&amp;lt;회원 관리&amp;gt;&lt;br&gt;&lt;span style=&quot;color: rgb(0 , 0 , 0) ; font-weight: normal&quot;&gt;&lt;span style=&quot;font-family: &amp;quot;helvetica&amp;quot;&quot;&gt;(外)&lt;/span&gt;&amp;nbsp;정보 수정&lt;br&gt;&lt;span style=&quot;font-family: &amp;quot;helvetica&amp;quot;&quot;&gt;(外)&lt;/span&gt;&amp;nbsp;비밀번호 수정&lt;/span&gt;&lt;br&gt;&lt;/span&gt;" style="text;whiteSpace=wrap;html=1;fontSize=12;fontStyle=1;shadow=0;" vertex="1" parent="1">
                    <mxGeometry x="4069" y="1603.5" width="126" height="282.41" as="geometry"/>
                </mxCell>
                <mxCell id="210" value="↑ 범례&lt;br&gt;&lt;br&gt;&lt;font color=&quot;#008800&quot;&gt;▣ = 통계 타입&lt;/font&gt;&lt;br&gt;&lt;font color=&quot;#ff00ff&quot;&gt;◆ = 일반 메뉴 타입&lt;br&gt;&lt;/font&gt;&lt;font color=&quot;#dd6600&quot;&gt;♡ = 목록조회 타입&lt;/font&gt;&lt;br&gt;(??) = 플로우차트 제작예정&lt;br&gt;(外) = 회원 담당자가 만든 것&lt;br&gt;&amp;nbsp; &amp;nbsp; &amp;nbsp; &amp;nbsp; &amp;nbsp; 활용 예정" style="text;whiteSpace=wrap;html=1;fontSize=12;fontStyle=1;fillColor=#bac8d3;strokeColor=#23445d;" vertex="1" parent="1">
                    <mxGeometry x="3709" y="1923.5" width="160" height="130" as="geometry"/>
                </mxCell>
                <mxCell id="211" value="&lt;span style=&quot;font-family: &amp;#34;helvetica&amp;#34; ; font-size: 12px ; font-style: normal ; letter-spacing: normal ; text-align: left ; text-indent: 0px ; text-transform: none ; word-spacing: 0px ; display: inline ; float: none&quot;&gt;&lt;span&gt;&lt;font color=&quot;#0000ff&quot;&gt;[장소관리인용 마이페이지]&lt;/font&gt;&lt;/span&gt;&lt;/span&gt;&lt;br style=&quot;color: rgb(0 , 0 , 0) ; font-family: &amp;#34;helvetica&amp;#34; ; font-size: 12px ; font-style: normal ; letter-spacing: normal ; text-align: left ; text-indent: 0px ; text-transform: none ; word-spacing: 0px&quot;&gt;&lt;span style=&quot;font-family: &amp;#34;helvetica&amp;#34; ; font-size: 12px ; font-style: normal ; letter-spacing: normal ; text-align: left ; text-indent: 0px ; text-transform: none ; word-spacing: 0px ; display: inline ; float: none&quot;&gt;&lt;br&gt;&amp;lt;메인 페이지&amp;gt;&lt;br&gt;&lt;font color=&quot;#008800&quot;&gt;&lt;span style=&quot;font-family: &amp;#34;helvetica&amp;#34;&quot;&gt;▣&amp;nbsp;&lt;/span&gt;회원 통계 (개별회원용)&lt;br&gt;&lt;/font&gt;&lt;/span&gt;&lt;br&gt;&amp;lt;내 강좌&amp;gt;&lt;br&gt;&lt;font color=&quot;#ff00ff&quot;&gt;◆ 강좌 목록&lt;br style=&quot;font-family: &amp;#34;helvetica&amp;#34; ; font-size: 12px ; font-style: normal ; letter-spacing: normal ; text-align: left ; text-indent: 0px ; text-transform: none ; word-spacing: 0px&quot;&gt;&lt;/font&gt;&lt;span style=&quot;color: rgb(0 , 0 , 0) ; font-family: &amp;#34;helvetica&amp;#34; ; font-size: 12px ; font-style: normal ; letter-spacing: normal ; text-align: left ; text-indent: 0px ; text-transform: none ; word-spacing: 0px ; display: inline ; float: none&quot;&gt;&lt;br&gt;&lt;/span&gt;&amp;lt;좋아요 및 찜&amp;gt;&lt;br&gt;&lt;font color=&quot;#dd6600&quot;&gt;&lt;span style=&quot;font-family: &amp;#34;helvetica&amp;#34;&quot;&gt;♡ 찜 목록&lt;/span&gt;&lt;br style=&quot;font-family: &amp;#34;helvetica&amp;#34;&quot;&gt;&lt;span style=&quot;font-family: &amp;#34;helvetica&amp;#34;&quot;&gt;♡ 강좌 좋아요 목록&lt;/span&gt;&lt;/font&gt;&lt;br&gt;&lt;br&gt;&amp;lt;결제 관리&amp;gt;&lt;br style=&quot;color: rgb(0 , 0 , 0) ; font-family: &amp;#34;helvetica&amp;#34; ; font-size: 12px ; font-style: normal ; letter-spacing: normal ; text-align: left ; text-indent: 0px ; text-transform: none ; word-spacing: 0px&quot;&gt;&lt;font color=&quot;#dd6600&quot;&gt;&lt;span style=&quot;font-family: &amp;#34;helvetica&amp;#34; ; font-size: 12px ; font-style: normal ; letter-spacing: normal ; text-align: left ; text-indent: 0px ; text-transform: none ; word-spacing: 0px ; display: inline ; float: none&quot;&gt;♡ 포인트 사용이력 조회&lt;/span&gt;&lt;br style=&quot;font-family: &amp;#34;helvetica&amp;#34; ; font-size: 12px ; font-style: normal ; letter-spacing: normal ; text-align: left ; text-indent: 0px ; text-transform: none ; word-spacing: 0px&quot;&gt;&lt;/font&gt;&lt;span style=&quot;color: rgb(0 , 0 , 0) ; font-size: 12px ; font-style: normal ; letter-spacing: normal ; text-align: left ; text-indent: 0px ; text-transform: none ; word-spacing: 0px ; display: inline ; float: none&quot;&gt;&lt;font face=&quot;helvetica&quot;&gt;(??) 결제이력 관리&lt;/font&gt;&lt;br&gt;&lt;br&gt;&lt;font face=&quot;helvetica&quot;&gt;&amp;lt;회원 관리&amp;gt;&lt;/font&gt;&lt;br&gt;&lt;/span&gt;&lt;span style=&quot;color: rgb(0 , 0 , 0) ; font-size: 12px ; font-style: normal ; letter-spacing: normal ; text-align: left ; text-indent: 0px ; text-transform: none ; word-spacing: 0px ; display: inline ; float: none ; font-weight: normal&quot;&gt;(外)&lt;/span&gt;&lt;span style=&quot;color: rgb(0 , 0 , 0) ; font-family: &amp;#34;helvetica&amp;#34; ; font-size: 12px ; font-style: normal ; letter-spacing: normal ; text-align: left ; text-indent: 0px ; text-transform: none ; word-spacing: 0px ; display: inline ; float: none&quot;&gt;&lt;span style=&quot;font-weight: normal&quot;&gt; 정보 수정&lt;br&gt;&lt;span style=&quot;font-family: &amp;#34;helvetica&amp;#34;&quot;&gt;(外)&lt;/span&gt;&lt;span style=&quot;font-family: &amp;#34;helvetica&amp;#34;&quot;&gt;&amp;nbsp;비밀번호 수정&lt;br&gt;&lt;/span&gt;&lt;/span&gt;&lt;br&gt;&amp;lt;장소관리&amp;gt;&lt;br&gt;&lt;span style=&quot;color: rgb(255 , 0 , 255) ; font-family: &amp;#34;helvetica&amp;#34;&quot;&gt;◆ 장소 관리&lt;/span&gt;&lt;br style=&quot;color: rgb(255 , 0 , 255)&quot;&gt;&lt;/span&gt;" style="text;whiteSpace=wrap;html=1;fontSize=12;fontStyle=1;shadow=0;" vertex="1" parent="1">
                    <mxGeometry x="3879" y="1603.5" width="150" height="340" as="geometry"/>
                </mxCell>
                <mxCell id="213" value="&lt;span style=&quot;font-size: 24px&quot;&gt;&lt;b&gt;마이페이지&lt;/b&gt;&lt;/span&gt;" style="text;html=1;strokeColor=none;fillColor=none;align=center;verticalAlign=middle;whiteSpace=wrap;rounded=0;strokeWidth=7;" vertex="1" parent="1">
                    <mxGeometry x="2470" y="1424.75" width="160" height="42" as="geometry"/>
                </mxCell>
            </root>
        </mxGraphModel>
    </diagram>
</mxfile>